<svg xmlns="http://www.w3.org/2000/svg" width="297.428" height="281" viewBox="0 0 297.428 281">
  <g id="Grupo_91565" data-name="Grupo 91565" transform="translate(-26.77 -117.518)">
    <path id="Trazado_141780" data-name="Trazado 141780" d="M373.191,318.014c4.98-6.372,7.481-9.573,9.775-9.707,4.561-.266,6.756,11.689,11.865,11.514,3.161-.108,4.427-4.759,7.591-4.3,2.41.347,2.371,3.147,5.4,4.348s4.95-.854,9.095-1.05c5.092-.242,10.654,2.458,10.592,3.933-.21,5.061-36.53.9-70.413,3.6-2.53.2,4.714-9.14,7.443-8.8,2.064.26,2.781,3.256,4.967,3.264C371.067,320.82,372.194,319.289,373.191,318.014Z" transform="translate(-103.308 -59.763)" fill="#fff"/>
    <g id="Grupo_91564" data-name="Grupo 91564" transform="translate(26.77 117.518)">
      <g id="Grupo_91560" data-name="Grupo 91560" transform="translate(0 0)">
        <g id="Grupo_91559" data-name="Grupo 91559">
          <circle id="Elipse_4093" data-name="Elipse 4093" cx="99.348" cy="99.348" r="99.348" transform="translate(0 140.5) rotate(-45)" fill="#00a398"/>
          <g id="Grupo_91558" data-name="Grupo 91558" transform="translate(49.152 42.974)">
            <path id="Trazado_141781" data-name="Trazado 141781" d="M170.72,206.325c-.424-.5-.719-.731-.681-.834a4.525,4.525,0,0,1,.562-.878c.232.209.672.439.654.622A3.479,3.479,0,0,1,170.72,206.325Z" transform="translate(-120.799 -187.774)" fill="#29d98a"/>
            <path id="Trazado_141782" data-name="Trazado 141782" d="M171.874,244a1.515,1.515,0,0,0-.537.346,3.4,3.4,0,0,0-.34.83,3.343,3.343,0,0,0,.8-.582A1.019,1.019,0,0,0,171.874,244Z" transform="translate(-121.101 -200.112)" fill="#29d98a"/>
            <path id="Trazado_141783" data-name="Trazado 141783" d="M194.856,229.65a7.608,7.608,0,0,0,1.452-.746,11.807,11.807,0,0,0-1.619-.014c-.3.027-.567.3-.85.463C194.181,229.463,194.576,229.738,194.856,229.65Z" transform="translate(-128.256 -195.371)" fill="#29d98a"/>
            <path id="Trazado_141784" data-name="Trazado 141784" d="M205.247,358.742a1.735,1.735,0,0,0,.211.636l.405-.382-.226-.644C205.5,358.481,205.258,358.6,205.247,358.742Z" transform="translate(-131.829 -235.933)" fill="#29d98a"/>
            <path id="Trazado_141785" data-name="Trazado 141785" d="M245.747,194.347c.223.175.427.453.674.5a3.325,3.325,0,0,0,.953-.027,5.068,5.068,0,0,0-.931-.7C246.287,194.042,245.983,194.262,245.747,194.347Z" transform="translate(-144.516 -184.482)" fill="#29d98a"/>
            <path id="Trazado_141786" data-name="Trazado 141786" d="M306.143,222.7c-.229,1.708,1.146,2.167,2.273,2.809.017.01.238-.225.214-.28C308.127,224.065,307.919,222.583,306.143,222.7Z" transform="translate(-163.427 -193.439)" fill="#29d98a"/>
            <path id="Trazado_141787" data-name="Trazado 141787" d="M370.161,295.439a4.308,4.308,0,0,0-.2.72c-.011.1.133.208.205.314.115-.185.3-.364.321-.557C370.5,295.772,370.286,295.61,370.161,295.439Z" transform="translate(-183.426 -216.225)" fill="#29d98a"/>
            <path id="Trazado_141788" data-name="Trazado 141788" d="M311.5,207.653c-.6-.772-1.192-1.556-1.833-2.3-.1-.119-.506-.087-.695.016a.609.609,0,0,0-.154.574C309.526,206.808,310.161,207.831,311.5,207.653Z" transform="translate(-164.263 -187.984)" fill="#29d98a"/>
            <path id="Trazado_141789" data-name="Trazado 141789" d="M313.606,219.828a4.59,4.59,0,0,1,.38-1.051c.7-1.046-.152-1.407-.8-1.768-1.19-.663-1.2-.617-.331-1.774.192-.256.452-.7.353-.882-.164-.3-.682-.694-.9-.617-1.005.361-1.93.784-2.926-.055-1.886-1.588-3.989-2.915-4.745-5.549-.251-.871-1.262-1.535-1.968-2.25-.093-.095-.52-.008-.657.129a.69.69,0,0,0-.1.657c1.872,2.544,2.345,5.934,5.545,7.774,1.4.8,2.088,3.24,2.529,5.072.157.653-1.211,1.673-1.963,2.544.273,2.3,1.562-.312,2.241.472,1.089,1.259,1.966-.046,3-.229C316.526,221.722,313.34,220.6,313.606,219.828Z" transform="translate(-162.095 -188.159)" fill="#29d98a"/>
            <path id="Trazado_141790" data-name="Trazado 141790" d="M284.718,221.772c.5.888.024,2.266,1.8,2.653,1.306.285,2.378,1.709,3.509,2.68.216.185.383.841.292.911-2.311,1.76-.729,2.429.827,3.157.109.051.159.523.056.684-.5.784-.356,1.221.6,1.036a13.553,13.553,0,0,0,2.086-.737c1.051.674,1.908.635,2.2-.507.282-1.118.52-2.362-1.251-2.706-.556-.108-1.038-.681-1.514-1.089a51.38,51.38,0,0,1-6.711-6.909,5.318,5.318,0,0,0-1.312-.883C285.078,220.645,284.52,221.422,284.718,221.772Z" transform="translate(-156.711 -192.613)" fill="#29d98a"/>
            <path id="Trazado_141791" data-name="Trazado 141791" d="M282.329,229.526c1.378.864-.17,3.008,1.557,3.375a2.4,2.4,0,0,0,2.856-1.9c-.011-1.829-1.1-3.534-2.288-3.59C283.633,227.369,281.923,229.272,282.329,229.526Z" transform="translate(-155.956 -194.914)" fill="#29d98a"/>
            <path id="Trazado_141792" data-name="Trazado 141792" d="M282.15,220.8c-.006.088.114.185.179.277.08-.08.218-.154.225-.24s-.115-.184-.185-.284C282.289,220.635,282.156,220.714,282.15,220.8Z" transform="translate(-155.919 -192.767)" fill="#29d98a"/>
            <path id="Trazado_141793" data-name="Trazado 141793" d="M196.212,314.585a2.41,2.41,0,0,0-2.277-2.307c-.879-.09-2.309-.127-2.51-.6-.913-2.163-2.662-1.669-4.289-1.753-1.231-.065-2.6-.607-3.657-.227-2.354.85-.946-2.213-2.553-2.147a6.663,6.663,0,0,1-2.972-.813c-1.087-.523-1.548-.236-1.88.826-.084.267-.584.4-.893.6a5.764,5.764,0,0,1-.142-1.066c.025-.543.4-1.342.168-1.584a13.108,13.108,0,0,1-3.682-5.556,4.075,4.075,0,0,0-1.38-1.784c-2.049-1.372-4.061-2.768-6.824-2.415a4.728,4.728,0,0,1-3.222-1.034c-1.437-1.178-2.332-3.219-3.9-3.982-1.769-.861-3.642-3.982-6.111-.871-.077.1-.43.061-.6-.02-1.6-.744-3.19-1.5-4.769-2.277-1.788-.883-2.85-.549-3.765,1.323a9.978,9.978,0,0,0-.506,1.838l-.546-.091c.221-1.578.442-3.156.683-4.884-1.346.8-2.56,1.454-3.7,2.218a7.915,7.915,0,0,0-1.66,1.543c-.833,1.008-1.588,2.08-2.373,3.129-.033,0-.071,0-.106,0-.231-.523-.378-1.275-.75-1.409a8.172,8.172,0,0,0-2.347-.11c-3.083-.126-4.764-1.855-4.764-4.939,0-1.053.183-2.108.141-3.156-.1-2.369-.82-2.992-3.179-2.9-2.694.1-2.687.106-2.093-2.516.451-1.988.878-3.982,1.314-5.966-3.143-.3-3.149-.3-4.116,2.363-.133.365-.046.94-.283,1.112a10.366,10.366,0,0,1-2.9,1.734c-1.34.4-1.826-.925-2.179-1.82a11.236,11.236,0,0,1-.968-4.092c.026-2.328.812-4.686.605-6.97-.266-2.944,1.772-4.14,3.354-5.8a1.628,1.628,0,0,1,2.1-.272c1.428.625,2.991,1.714,3.466-1.027.038-.223.648-.536.949-.5,1.638.225,3.421.238,4.828.961.748.384,1.033,2.029,1.175,3.149a7.236,7.236,0,0,0,2.418,4.738c-.011-3.005.019-5.489-.04-7.972-.063-2.655.552-4.88,3.144-6.222.792-.41,1.282-1.437,2.083-1.786,2.321-1.011,3.016-2.7,2.724-5.086a2.794,2.794,0,0,1,.617-1.687c1.365.219,1.827-.906,2.233-1.654.891-1.642,1.783-2.949,3.9-3.137a2.1,2.1,0,0,0,2.009-2.009,3.714,3.714,0,0,1,1.766-2.334,52.367,52.367,0,0,1,5.651-2.6,2.717,2.717,0,0,1,1.044.01,3.8,3.8,0,0,1-.451.848c-.448.494-.954.937-1.437,1.4a10.409,10.409,0,0,0,2.174-.422c2.185-.922,4.656-1.449,6.124-4.024-.627.076-1.12-.014-1.308.185-.989,1.047-1.924,1.716-3.357.625-1.387-1.056-1.142-2.167-.392-3.4.645-1.058.054-1.549-.877-1.391a16.163,16.163,0,0,0-3.284,1.11c-.878.356-1.393,1.575-2.59,1.178.909-1.871,2.721-2.564,4.45-3.346,2.373-1.073,2.741-.959,4.765,1.1.2.205.617.2.932.295.089-.321.34-.854.24-.932-.9-.7-1.083-1.362.3-1.15a5.954,5.954,0,0,0,4.338-1.276c.63-.405,1.36-1.016,2-.968a2.22,2.22,0,0,0,2.492-1.963c.449-1.718-1.46-1.241-2.1-1.994h.014c-.1-.529-.117-1.49-.3-1.52-1.913-.327-3.111-.834-2.411-3.283.256-.9-.661-2.179-1.158-3.231-.443-.939-1.1-1.031-1.752-.13-.22.3-.367.8-.652.894a4.386,4.386,0,0,1-2.441.479c-1-.343-.825-1.2-.467-2.257.522-1.538-.877-2.815-1.941-3.362-.948-.488-2.455.114-3.715.235-.516,2.561-3.71,3.656-3.517,6.754a4.154,4.154,0,0,1-1.847,3.224,6.7,6.7,0,0,0-3.765,5.026,2.264,2.264,0,0,1-.793,1.325,3.381,3.381,0,0,1-1.755.545,1.844,1.844,0,0,1-.451-1.338c.354-1.483,1.479-3.087,1.152-4.341-.314-1.2-3.169-.076-3.659-2.2-.027-.117-.137-.213-.2-.326-.427-.81-2.527.17-1.9-1.714a27.754,27.754,0,0,1,1.4-3.141,1.739,1.739,0,0,1,.558-.554c2.405-1.783,4.795-3.59,7.242-5.313a3.227,3.227,0,0,1,1.753-.5c1.005,1.875,2.49.294,3.636.606,2.279.621,1.8-.3,1.2-1.676a1.644,1.644,0,0,1,.5-1.524,18.381,18.381,0,0,0,6.706-5.043c.562-.609,2.336-.466,3.384-.133.7.223.35,2.976-.483,3.45-1.75.994-3.043,3-5.513,2.545-.313-.058-.762.617-1.148.952.451.13,1.08.518,1.323.35,1.518-1.053,2.207-.486,3.005.981.508.933,1.688,1.5,2.566,2.233.218-.293.592-.573.617-.881a3.951,3.951,0,0,0-.323-1.275,7.339,7.339,0,0,1,1.037.259c.516.207,1.007.473,1.509.714.273-.582.784-1.174.759-1.743a13.984,13.984,0,0,0-.732-2.191,1.111,1.111,0,0,1,.442-.957,1.026,1.026,0,0,1,.97.238c.586,1.538,1.452,1.127,2.426.459.7-.479,1.428-.913,2.314-1.474-.728-.466-1.3-.775-1.812-1.17-.85-.661-1.748-1.34-.613-2.522a.8.8,0,0,0,.14-.722c-.669-1.214-2.544-1.731-2.062-3.61a23.284,23.284,0,0,0-3.138-.057,31.516,31.516,0,0,0-3.417.733c-.318-.2-.63-.42-.961-.6-.04-.022-.182.142-.277.22l1.222.4c-.025.244-.05.488-.074.731a3.037,3.037,0,0,0-2.89,2.173c-.845,2.207-2.747,2.86-4.629,3.737a50.419,50.419,0,0,1,3.768-5.6,7.081,7.081,0,0,1,.865-.83c-.514-.062-1.128-.329-1.518-.138a4.637,4.637,0,0,0-1.336,1.336,15.886,15.886,0,0,1-7.776,5.359,1.691,1.691,0,0,1-1.525-.408c-.468-.934.185-1.451,1.082-1.5,3.283-.183,5.1-2.361,6.741-4.795.063,0,.124-.008.187-.008l.137-.137a.432.432,0,0,0,.113-.024c.065-.029.091-.146.134-.224l-.247.248c-.079.012-.162.015-.242.024l-.082.121c-3.439.068-5.654,2.742-8.463,4.14-.613.3-.689,1.559-1.224,2.2-.334.4-1.066.463-1.619.677a4.934,4.934,0,0,0,.322-1.26c-.014-1.281-.716-.65-1.225-.374a89.858,89.858,0,0,0-20.993,15.757,58.389,58.389,0,0,0-8.915,11.008c-2.672,4.461-5.208,9.023-7.473,13.7-1.579,3.261-3.421,6.729-3.69,10.217a115.466,115.466,0,0,0-.076,19.05,14.994,14.994,0,0,0,1.174,3.649.707.707,0,0,0,.656.238.762.762,0,0,0,.35-.639c-.362-2.045-.9-4.068-1.131-6.127-.258-2.262-.254-4.553-.363-6.832,1.014,5.157,1.81,10.263,3.858,15.1.285.674-.008,1.571.142,2.329.216,1.094.283,2.448.965,3.172a44.491,44.491,0,0,0,5.107,4.3c.391.306,1.146.661,1.449.49,2.327-1.313,3.3.318,4.443,1.821.332.437,1.121.525,1.456.961,1.3,1.686,4.181,1.21,4.858,3.792.666,2.536,2.641,3.948,4.933,4.992,1.227.559,2.317,2.354,3.663-.013.234-.412,1.576-.2,2.479-.227.013.029.025.06.038.088l.084-.091c-.043.878-.442,1.974-.062,2.59a4.94,4.94,0,0,1,.217,4.875c-.494,1.2-.9,2.437-1.293,3.673-.616,1.917-2.8,3.826-.08,5.82.094.069-.09.64-.25.917a4.4,4.4,0,0,0,1.4,5.883c2.036,1.527,3,3.474,4.089,5.526a53.188,53.188,0,0,0,2.8,4.69c.421.63,1.177,1.545,1.716,1.5,2.9-.227,3.923,2.312,5.8,3.579a5.546,5.546,0,0,1,2.453,3.7c.84,3.65,1.876,7.26,2.947,10.852.882,2.956,2.1,5.822,2.85,8.808a18.2,18.2,0,0,0,3.474,7.284c2,2.414,3.51,5.193,5.742,7.415,2.365,2.354,5.338,3.73,8.31,5.079.5.228,1.231-.04,1.957-.084-.312-.333-.453-.587-.666-.694-2.487-1.252-5.063-2.392-4.879-5.9.018-.34-.608-.746-.983-1.066s-1.087-.5-1.145-.834c-.2-1.153.238-2.638-.337-3.458-1.04-1.487-.22-1.951.759-2.594-1.264-1.889.126-1.7,1.38-1.955,2.408-.484,2.9-2.169,1.36-4.146-.245-.314-.512-.61-1.031-1.225,1.851.257,3.656,1.666,4.236-.352a11.261,11.261,0,0,1,3.134-4.917,4.409,4.409,0,0,0,1.386-3.913c-.317-2.235,1.252-3.361,2.873-4.251a7.373,7.373,0,0,1,3.323-.94,3.715,3.715,0,0,0,3.165-2.039c1.73-2.652,2.982-5.641,2.678-8.792a4.335,4.335,0,0,1,1.258-3.842c.806-.842,1.642-1.657,2.472-2.476A7.42,7.42,0,0,0,196.212,314.585Z" transform="translate(-98.341 -183.094)" fill="#29d98a"/>
            <path id="Trazado_141794" data-name="Trazado 141794" d="M197.168,237.467c-1.773.682-2.86,2.071-4.015,3.682,2,.655,4.246-.319,5.679,1.571.059.078,1.255-.366,1.34-.71.286-1.161.277-2.345-1-3.1a22.107,22.107,0,0,1-2-1.457c0-.043,0-.089-.005-.135a2.945,2.945,0,0,0,.849-.528c.159-.177.1-.547.138-.832-.321.119-.8.152-.926.379a1.971,1.971,0,0,0-.061.981c-.034.018-.069.034-.1.054Z" transform="translate(-128.041 -197.593)" fill="#29d98a"/>
            <path id="Trazado_141795" data-name="Trazado 141795" d="M186.768,200.207a4.147,4.147,0,0,0,.931-.624c-.368-.269-.6-.53-.689-.488a4.555,4.555,0,0,0-.795.6C186.4,199.879,186.655,200.245,186.768,200.207Z" transform="translate(-125.868 -186.044)" fill="#29d98a"/>
            <path id="Trazado_141796" data-name="Trazado 141796" d="M173.639,210.821l-.8.8c.148.142.348.431.435.4a4.124,4.124,0,0,0,.815-.492Z" transform="translate(-121.676 -189.719)" fill="#29d98a"/>
            <path id="Trazado_141797" data-name="Trazado 141797" d="M170.446,210.677c-.091.082-.249.159-.254.246s.144.181.226.273l.273-.244Z" transform="translate(-120.848 -189.674)" fill="#29d98a"/>
            <path id="Trazado_141798" data-name="Trazado 141798" d="M166.355,313.158a12.43,12.43,0,0,1-7.576-1.06c-.492-.256-1.891.125-2.015.5a3.907,3.907,0,0,0,.2,2.59c.321.731,1.059.712,1.979.431a58.5,58.5,0,0,1,5.914-1.258,5.815,5.815,0,0,0,1.6.273,3.228,3.228,0,0,0,.964-.6C167.064,313.727,166.669,313.118,166.355,313.158Z" transform="translate(-116.599 -221.417)" fill="#29d98a"/>
            <path id="Trazado_141799" data-name="Trazado 141799" d="M145.246,308.767a3.076,3.076,0,0,0,.776-.054c.439-.143.855-.354,1.28-.538-.442-.4-.992-1.2-1.307-1.119-1.986.525-3.228-.762-4.324-1.865-1.811-1.82-3.8-1.217-5.805-.863-.293.052-.605.748-.65,1.173-.026.242.427.691.74.779.464.13,1.181.233,1.465-.019,1.28-1.139,2.016-.337,2.963.508C141.74,307.979,143.259,309,145.246,308.767Z" transform="translate(-109.892 -218.888)" fill="#29d98a"/>
            <path id="Trazado_141800" data-name="Trazado 141800" d="M148.269,315.492a6.316,6.316,0,0,0-1.361-.543c-.19.159-.457.275-.492.441a.7.7,0,0,0,.252.58,2.947,2.947,0,0,0,1.007.441,3.345,3.345,0,0,0,.9-.045C148.48,316.065,148.474,315.632,148.269,315.492Z" transform="translate(-113.399 -222.337)" fill="#29d98a"/>
            <path id="Trazado_141801" data-name="Trazado 141801" d="M233.26,190.418c.161-.467.464-.974.355-1.366-.185-.668-1.079-1.31-.992-1.854.339-2.108-1.116-2.932-2.384-4.029a11.537,11.537,0,0,0-9.15-3.009c-2.97.3-5.991.035-8.986.133a4.822,4.822,0,0,0-1.75.726l-.052-.038a25.722,25.722,0,0,0-5.051.487c-1.451.422-2.682,1.6-4.384.981-.145-.052-.417.247-.63.383a2.845,2.845,0,0,0,.568.713,2.162,2.162,0,0,0,2.508.133,22.693,22.693,0,0,1,4.359-1.7c.6-.185,1.023.2.461.823-1.059,1.167-.6,1.332.712,1.391,2.112.094,2.582.551,2.111,2.17-.413,1.42-1.291,2.55,1.2,2.858.853.106.523,2.24-.508,2.841a15.162,15.162,0,0,1-1.742.849,1.7,1.7,0,0,0-.909,2.595c.964,1.385,1.005,2.907,1.421,4.4.44,1.575,1.026,3.3,3.266,3.366a4.73,4.73,0,0,1,1.729.808c1.461.759,1.967.586,2.578-.955.4-1.02.516-2.707,1.188-2.963,1.876-.711.863-2.867,2.081-3.518a30.009,30.009,0,0,1,4.366-1.446,1.993,1.993,0,0,0,.9-.75c.819-1.2,2.027-1.3,3.307-1.675,1.209-.357,3.456.021,3.485-2.354Z" transform="translate(-130.26 -180.093)" fill="#29d98a"/>
            <path id="Trazado_141802" data-name="Trazado 141802" d="M214.568,195.692c.266.023.558-.281,1.834-1.021a5.838,5.838,0,0,0-1.577-.252c-.3.063-.547.38-.818.586C214.193,195.249,214.363,195.675,214.568,195.692Z" transform="translate(-134.574 -184.576)" fill="#29d98a"/>
            <path id="Trazado_141803" data-name="Trazado 141803" d="M261.044,204.5c-.915-.577-1.84-1.505-2.8-1.558-1.659-.091-3.377,1.007-4.956-.409l-.972.7a5.547,5.547,0,0,1,.628.643,13.934,13.934,0,0,0,.765,1.22c1.547,1.759,6.1,1.77,7.3.027C261.109,204.973,261.132,204.559,261.044,204.5Z" transform="translate(-146.572 -187.123)" fill="#29d98a"/>
            <path id="Trazado_141804" data-name="Trazado 141804" d="M350.815,392.477c-.632.043-.746.014-.8.059-4.818,4.274-7.385,10.315-11.711,14.981-.1.113.209.613.327.933.339-.126.814-.15,1-.394,2.661-3.522,5.309-7.055,7.9-10.625C348.639,395.913,349.612,394.3,350.815,392.477Z" transform="translate(-173.504 -246.622)" fill="#29d98a"/>
            <path id="Trazado_141805" data-name="Trazado 141805" d="M342.346,290.337a8.655,8.655,0,0,0,2.517-6.762c-.054-4.691.613-9.474-1.5-13.955a2.386,2.386,0,0,1-.1-1.174c.42-4.687-1.179-9.019-2.488-13.363a94.925,94.925,0,0,0-17.014-32.311,165.638,165.638,0,0,0-12.447-13.16c-6.808-6.8-15.314-10.274-23.949-13.7-.9-.358-1.455-.31-1.827.64-.433,1.1-.154,1.361.678,2.215,1.931,1.983,4.064,3.916,3.1,7.256a4.183,4.183,0,0,0,.373,2.989,14.667,14.667,0,0,0,3.092,3.515,2.969,2.969,0,0,0,2.415.551c1.86-.611,1.819-.74,2.685,1.162a1.813,1.813,0,0,0-.327,2.658c.559.867,1.259,1.644,1.8,2.522a1.433,1.433,0,0,1-.067,1.037c-1.568.232-1.7,1.514-2.373,2.6-.9,1.448-1.126,3.879-3.63,3.9,0-.032.005-.062.008-.1l-.39-.27.292.369c.032,0,.059,0,.091,0-.065,1.006-.26,1.744-1.58.939-.19-.115-.764.4-1.16.626.234.24.43.622.709.7,2.777.756,3.3,3.58,4.9,5.4.358.406.188,1.552-.124,2.16-.166.324-1.172.36-1.769.288a24.335,24.335,0,0,0-2.637-.611,29.025,29.025,0,0,0-3.807.462c.222,1,.511,1.989.646,3a22.11,22.11,0,0,0,.13,2.727c.5,1.844.372,3.816,3.2,4.539,2,.512,3.5,1.346,5.272-.236A5.491,5.491,0,0,1,299.2,246c1.2-.341,1.5-1.148.947-2.075-1.122-1.9-.4-2.921,1.4-3.624,1.139-.444,1.221-1.178.608-2.167-.058-.094.7-.913.81-.858,1.187.6,2.116.681,3.065-.541.682-.879,1.606-.556,2.405.162,2.044,1.836,4.158,3.6,6.173,5.466a6.57,6.57,0,0,1,1.566,2.187c.383.905.3,1.843-1.032,2.021-.955.128-1.109.437-.24,1.041,1.075.746,1.753.8,2.34-.653a5.05,5.05,0,0,0-1.162-6c-1.882-1.624-3.726-3.291-5.553-4.975-.229-.211-.254-.643-.374-.972.464-.016,1.088-.235,1.366-.015,1.652,1.3,3.123,2.855,4.857,4.026a6.5,6.5,0,0,1,2.38,2.906,57.884,57.884,0,0,0,3.919,6.488,1.072,1.072,0,0,0,.976.358,1.174,1.174,0,0,0,.486-.981,6.465,6.465,0,0,0-.644-2.025c-.293-.559-.852-.975-1.178-1.523a.958.958,0,0,1,.1-.92c.371-.277,1.036-.639,1.3-.486a3.789,3.789,0,0,1,1.224,1.439c.948,1.709,1.752,3.5,2.779,5.158.3.488,1.527,1.028,1.7.865.987-.909,2.261,1.211,3.042-.376.432,1.063.9,2.112,1.285,3.192a11.005,11.005,0,0,1,.716,2.625c.289,3.281-1.062,4.254-4.173,3.042-.722-.282-1.356-.782-2.056-1.129-1.481-.733-2.978-1.433-4.719-2.266,0,1.058,0,1.823.011,2.588,0,.415.025.83.039,1.245a5.205,5.205,0,0,1-1.442-.348c-2.356-1.366-4.619-2.906-7.04-4.14a3.062,3.062,0,0,1-2-2.6c-.11-1.018-.655-2.035-.576-3.018.134-1.664-.823-1.743-1.938-1.634-1.407.137-3.138,1.029-4.129.492-2.069-1.122-3.522.793-5.289.439-1.829,2.237-4.164,1.695-6.385.981-1.172-.377-1.3.026-1.482.944-.106.521-.578.955-.783,1.468-.742,1.865-2.516,3.253-2.415,5.523.057,1.268.087,2.424-1.482,3.276a11.656,11.656,0,0,0-3.476,3.581c-1.04,1.448-1.448,3.483-2.713,4.6-1.577,1.4-.236,3.962-2.406,4.844.236.524.444,1.482.713,1.5,1.506.1,1.749,1.006,1.556,2.155-.341,2.032.328,4.206-1.1,6.121-.419.561-.146,1.716-.037,2.579.521,4.13,4.7,6.164,5.778,9.986,2.511.292,2.849,2.711,4.144,4.2.917,1.056,2.082,1.871,3.334.54,1.223-1.3,2.592-1.155,3.99-.661,1.808.639,3.363.81,5.141-.428a6.5,6.5,0,0,1,4-.586c.554.049.935,1.31,1.528,1.88a3.824,3.824,0,0,0,1.82,1.108c3.081.493,3.134.457,2.332,3.288a21.776,21.776,0,0,1-1.617,4.377c-.532.99-.181,1.648.093,2.525,1.222,3.906,1.782,7.883.185,11.81a41.51,41.51,0,0,1-2.97,5.889c-1.5,2.472-3.072,4.81-2.722,7.959a7.482,7.482,0,0,1-.827,3.36c-1.47,3.607-3.028,7.179-4.565,10.759-.306.712-.656,1.406-1.008,2.1-.385.757-.795,1.5-1.194,2.253a8.923,8.923,0,0,0,2.655.342,7.764,7.764,0,0,0,2.77-1.212c.983-.632,1.8-1.516,2.75-2.2,5.71-4.136,11.392-8.213,15.752-13.972,3.484-4.6,7.327-8.944,8.972-14.576,1.33-4.552,3.618-8.549,5.861-12.661a98.08,98.08,0,0,0,5.674-13.233c.6-1.645,1.165-3.673-.977-5.243C341.293,293.043,340.888,291.621,342.346,290.337Z" transform="translate(-155.248 -184.986)" fill="#29d98a"/>
          </g>
        </g>
        <path id="Trazado_141806" data-name="Trazado 141806" d="M258.615,350.6a146.383,146.383,0,0,1-29.221-1.946c-16.29-2.743-60.021-10.106-84.913-47.995-19.241-29.286-21.379-67.915-7.788-104.14A99.354,99.354,0,1,0,258.615,350.6Z" transform="translate(-45.54 -142.266)" fill="#1b1464" opacity="0.3" style="mix-blend-mode: multiply;isolation: isolate"/>
        <path id="Trazado_141807" data-name="Trazado 141807" d="M208.27,177.44a98.875,98.875,0,0,0-50.611,13.848,99.365,99.365,0,0,1,85.1,178.694A99.363,99.363,0,0,0,208.27,177.44Z" transform="translate(-67.771 -136.288)" fill="#fff" style="mix-blend-mode: soft-light;isolation: isolate"/>
      </g>
      <g id="Grupo_91561" data-name="Grupo 91561" transform="translate(134.938 86.803)">
        <path id="Trazado_141808" data-name="Trazado 141808" d="M223.257,251.921l24.81-8.007s3.5,12.444-7.934,15.864S223.257,251.921,223.257,251.921Z" transform="translate(-223.257 -243.914)" fill="#1a1a1a"/>
        <path id="Trazado_141809" data-name="Trazado 141809" d="M243.325,259.865a13.412,13.412,0,0,0-10.6-1.669,12.856,12.856,0,0,0-4.712,2.449,13.079,13.079,0,0,0,13.609,3.464,12.846,12.846,0,0,0,4.258-2.125A16.569,16.569,0,0,0,243.325,259.865Z" transform="translate(-224.747 -248.244)" fill="#fa8585"/>
      </g>
      <path id="Trazado_141810" data-name="Trazado 141810" d="M196.634,234.32c2.153,4.631,2.376,9.092.5,9.965s-5.144-2.173-7.3-6.8-2.377-9.092-.5-9.965S194.481,229.689,196.634,234.32Z" transform="translate(-77.294 -151.928)" fill="#1a1a1a"/>
      <path id="Trazado_141811" data-name="Trazado 141811" d="M273.668,216.909c2.153,4.631,2.377,9.092.5,9.965s-5.144-2.173-7.3-6.8-2.377-9.092-.5-9.965S271.515,212.278,273.668,216.909Z" transform="translate(-101.425 -146.474)" fill="#1a1a1a"/>
    </g>
    <path id="Trazado_141812" data-name="Trazado 141812" d="M79.115,298.261c5.282-6.759,7.935-10.154,10.367-10.3,4.839-.282,7.167,12.4,12.585,12.212,3.353-.115,5.765-3.019,8.576-4.914,15.577-10.5,25.169,9.99,25.1,11.554-.223,5.368-38.746.954-74.686,3.816-2.684.214,5-9.695,7.894-9.33,2.19.276,2.95,3.454,5.269,3.463C75.886,304.773,78.058,299.613,79.115,298.261Z" transform="translate(-10.567 -53.391)" fill="#fff"/>
    <path id="Trazado_141813" data-name="Trazado 141813" d="M306.68,353.151c5.564-7.12,8.358-10.695,10.92-10.844,5.1-.3,7.548,13.059,13.255,12.863,3.532-.122,6.072-3.179,9.034-5.175,16.406-11.061,26.51,10.521,26.441,12.169-.236,5.654-40.81,1-78.663,4.019-2.827.225,5.266-10.211,8.315-9.827,2.306.29,3.106,3.638,5.549,3.647C303.28,360.008,305.568,354.575,306.68,353.151Z" transform="translate(-81.541 -70.413)" fill="#fff"/>
  </g>
</svg>
