<svg xmlns="http://www.w3.org/2000/svg" width="648.816" height="644.637" viewBox="0 0 648.816 644.637">
  <g id="Grupo_91570" data-name="Grupo 91570" transform="translate(-17.093 -17.532)">
    <path id="Trazado_141302" data-name="Trazado 141302" d="M6.612,0H281.388A6.612,6.612,0,0,1,288,6.612V288H6.612A6.612,6.612,0,0,1,0,281.388V6.612A6.612,6.612,0,0,1,6.612,0Z" transform="translate(17.093 17.532)" fill="#d5f3e3"/>
    <rect id="Rectángulo_35242" data-name="Rectángulo 35242" width="287.759" height="287.759" rx="35" transform="translate(378.15 17.533)" fill="#fcefe0"/>
    <rect id="Rectángulo_35243" data-name="Rectángulo 35243" width="287.759" height="287.759" rx="38" transform="translate(17.571 374.41)" fill="#fce2df"/>
    <g id="Grupo_91434" data-name="Grupo 91434" transform="translate(41.144 397.983)">
      <rect id="Rectángulo_35244" data-name="Rectángulo 35244" width="237.789" height="237.789" rx="29" transform="translate(1.412 1.412)" fill="#fff"/>
      <path id="Trazado_141285" data-name="Trazado 141285" d="M230.125,325.571H53.988a32.275,32.275,0,0,1-32.24-32.24V117.2a32.275,32.275,0,0,1,32.24-32.24H262.359V293.331A32.273,32.273,0,0,1,230.125,325.571ZM53.988,87.781A29.453,29.453,0,0,0,24.569,117.2V293.331A29.452,29.452,0,0,0,53.988,322.75H230.125a29.448,29.448,0,0,0,29.413-29.419V87.781Z" transform="translate(-21.748 -84.96)" fill="#ff615b"/>
    </g>
    <g id="Grupo_91435" data-name="Grupo 91435" transform="translate(41.144 41.105)">
      <rect id="Rectángulo_35245" data-name="Rectángulo 35245" width="237.789" height="237.789" rx="32" transform="translate(239.201 1.412) rotate(90)" fill="#fff"/>
      <path id="Trazado_141286" data-name="Trazado 141286" d="M262.359,262.321H53.988a32.273,32.273,0,0,1-32.24-32.235V53.95a32.275,32.275,0,0,1,32.24-32.24H230.125a32.273,32.273,0,0,1,32.235,32.24ZM53.988,24.531A29.452,29.452,0,0,0,24.569,53.95V230.087A29.448,29.448,0,0,0,53.988,259.5h205.55V53.95a29.448,29.448,0,0,0-29.413-29.419Z" transform="translate(-21.748 -21.71)" fill="#34bd74"/>
    </g>
    <rect id="Rectángulo_35246" data-name="Rectángulo 35246" width="287.759" height="287.759" rx="39" transform="translate(378.15 374.41)" fill="#f4f7dc"/>
    <g id="Grupo_91436" data-name="Grupo 91436" transform="translate(401.722 397.983)">
      <rect id="Rectángulo_35247" data-name="Rectángulo 35247" width="237.789" height="237.789" rx="30" transform="translate(1.413 239.201) rotate(-90)" fill="#fff"/>
      <path id="Trazado_141287" data-name="Trazado 141287" d="M294.031,325.571H117.894a32.278,32.278,0,0,1-32.24-32.24V84.96H294.031a32.274,32.274,0,0,1,32.235,32.24V293.331A32.273,32.273,0,0,1,294.031,325.571ZM88.475,87.781v205.55a29.452,29.452,0,0,0,29.419,29.419H294.031a29.451,29.451,0,0,0,29.413-29.419V117.2a29.451,29.451,0,0,0-29.413-29.419Z" transform="translate(-85.654 -84.96)" fill="#c7d851"/>
    </g>
    <g id="Grupo_91437" data-name="Grupo 91437" transform="translate(401.722 41.105)">
      <rect id="Rectángulo_35248" data-name="Rectángulo 35248" width="237.789" height="237.789" rx="28" transform="translate(239.202 239.201) rotate(180)" fill="#fff"/>
      <path id="Trazado_141288" data-name="Trazado 141288" d="M294.031,262.321H85.654V53.95a32.278,32.278,0,0,1,32.24-32.24H294.031a32.274,32.274,0,0,1,32.235,32.24V230.087A32.272,32.272,0,0,1,294.031,262.321ZM88.475,259.5H294.031a29.446,29.446,0,0,0,29.413-29.413V53.95a29.451,29.451,0,0,0-29.413-29.419H117.894A29.452,29.452,0,0,0,88.475,53.95Z" transform="translate(-85.654 -21.71)" fill="#f0ad65"/>
    </g>
    <text id="Procesos_y_procedimientos" data-name="Procesos y procedimientos" transform="translate(457.093 506.251)" fill="#12263f" font-size="18" font-family="Roboto-Black, Roboto" font-weight="800"><tspan x="0" y="17">Procesos y </tspan><tspan x="0" y="42">procedimientos</tspan></text>
    <path id="Trazado_141294" data-name="Trazado 141294" d="M206.717,218.988H53.68A12.138,12.138,0,0,1,41.555,206.05,177.769,177.769,0,0,1,205.887,41.718a12.138,12.138,0,0,1,12.938,12.125V206.88A12.11,12.11,0,0,1,206.717,218.988Z" transform="translate(116.569 112.133)" fill="#34bd74"/>
    <path id="Trazado_141295" data-name="Trazado 141295" d="M77.053,206.88V53.843A12.138,12.138,0,0,1,89.991,41.718,177.769,177.769,0,0,1,254.324,206.05,12.138,12.138,0,0,1,242.2,218.988H89.161A12.11,12.11,0,0,1,77.053,206.88Z" transform="translate(268.509 112.133)" fill="#f0ad65"/>
    <path id="Trazado_141296" data-name="Trazado 141296" d="M89.161,76.89H242.2a12.138,12.138,0,0,1,12.125,12.938A177.769,177.769,0,0,1,89.991,254.161a12.138,12.138,0,0,1-12.938-12.125V89A12.11,12.11,0,0,1,89.161,76.89Z" transform="translate(268.509 264.098)" fill="#c7d851"/>
    <path id="Trazado_141297" data-name="Trazado 141297" d="M54.877,17.532h45.675A82.981,82.981,0,0,1,17.57,100.514V54.839A37.3,37.3,0,0,1,54.877,17.532Z" fill="#34bd74"/>
    <path id="Trazado_141298" data-name="Trazado 141298" d="M200.746,54.839v45.675A82.98,82.98,0,0,1,117.77,17.532h45.669A37.3,37.3,0,0,1,200.746,54.839Z" transform="translate(465.161)" fill="#f0ad65"/>
    <path id="Trazado_141299" data-name="Trazado 141299" d="M163.439,200.057H117.77a82.98,82.98,0,0,1,82.976-82.982V162.75A37.3,37.3,0,0,1,163.439,200.057Z" transform="translate(465.161 462.111)" fill="#c7d851"/>
    <path id="Trazado_141300" data-name="Trazado 141300" d="M17.57,162.75V117.075a82.981,82.981,0,0,1,82.982,82.982H54.877A37.3,37.3,0,0,1,17.57,162.75Z" transform="translate(0 462.111)" fill="#ff615b"/>
    <path id="Trazado_141301" data-name="Trazado 141301" d="M218.825,89V242.035a12.138,12.138,0,0,1-12.938,12.125A177.769,177.769,0,0,1,41.555,89.828,12.138,12.138,0,0,1,53.68,76.89H206.717A12.11,12.11,0,0,1,218.825,89Z" transform="translate(116.569 264.098)" fill="#ff615b"/>
    <g id="Grupo_91569" data-name="Grupo 91569">
      <path id="Trazado_141822" data-name="Trazado 141822" d="M7.567,13.6a1.268,1.268,0,0,0-.479-1.055,5.954,5.954,0,0,0-1.683-.782,16.147,16.147,0,0,1-1.969-.782Q.949,9.758.949,7.622a3.011,3.011,0,0,1,.62-1.876A4.008,4.008,0,0,1,3.322,4.48a6.823,6.823,0,0,1,2.549-.453,5.969,5.969,0,0,1,2.474.492,3.917,3.917,0,0,1,1.7,1.4A3.661,3.661,0,0,1,10.652,8H7.576A1.547,1.547,0,0,0,7.1,6.787a1.867,1.867,0,0,0-1.3-.431A2.106,2.106,0,0,0,4.5,6.721a1.074,1.074,0,0,0,.048,1.819A6.65,6.65,0,0,0,6.4,9.367a11.36,11.36,0,0,1,2.18.918,3.663,3.663,0,0,1,2.074,3.3,3.125,3.125,0,0,1-1.266,2.637,5.629,5.629,0,0,1-3.472.958A6.888,6.888,0,0,1,3.1,16.618a4.247,4.247,0,0,1-1.9-1.529,3.985,3.985,0,0,1-.637-2.237H3.656a1.963,1.963,0,0,0,.532,1.516,2.513,2.513,0,0,0,1.727.488,1.985,1.985,0,0,0,1.208-.33A1.088,1.088,0,0,0,7.567,13.6ZM15.223,17H12.252V7.49h2.971ZM12.076,5.029a1.334,1.334,0,0,1,.457-1.043,1.718,1.718,0,0,1,1.187-.407,1.718,1.718,0,0,1,1.187.407,1.334,1.334,0,0,1,.457,1.043,1.334,1.334,0,0,1-.457,1.043,1.718,1.718,0,0,1-1.187.407,1.718,1.718,0,0,1-1.187-.407A1.334,1.334,0,0,1,12.076,5.029Zm9.949,9.3a.684.684,0,0,0-.4-.606,6.016,6.016,0,0,0-1.5-.475A6.853,6.853,0,0,1,18.3,12.6a3.062,3.062,0,0,1-1.1-.971,2.319,2.319,0,0,1-.378-1.31A2.628,2.628,0,0,1,17.9,8.163a4.453,4.453,0,0,1,2.83-.848,4.934,4.934,0,0,1,3.023.853A2.666,2.666,0,0,1,24.9,10.408H21.929q0-1.143-1.2-1.143a1.194,1.194,0,0,0-.782.259.8.8,0,0,0-.316.646.737.737,0,0,0,.387.642,3.654,3.654,0,0,0,1.235.4,10.671,10.671,0,0,1,1.49.378,2.706,2.706,0,0,1,2.145,2.646,2.491,2.491,0,0,1-1.156,2.118,5.068,5.068,0,0,1-2.993.817,5.172,5.172,0,0,1-2.18-.439,3.645,3.645,0,0,1-1.494-1.2,2.707,2.707,0,0,1-.536-1.591h2.769a1.145,1.145,0,0,0,.439.962,1.808,1.808,0,0,0,1.081.3,1.422,1.422,0,0,0,.91-.246A.787.787,0,0,0,22.025,14.328Zm7.69-9.2V7.49H31.28V9.547H29.716V13.9a1.111,1.111,0,0,0,.193.747,1.037,1.037,0,0,0,.765.211,4.345,4.345,0,0,0,.738-.053v2.118a5.466,5.466,0,0,1-1.67.255,3.1,3.1,0,0,1-2.259-.721,2.954,2.954,0,0,1-.729-2.188V9.547H25.541V7.49h1.213V5.126Zm7.33,12.05A4.889,4.889,0,0,1,33.5,15.871a4.507,4.507,0,0,1-1.354-3.4v-.246a5.84,5.84,0,0,1,.541-2.575,3.955,3.955,0,0,1,1.578-1.727,4.763,4.763,0,0,1,2.461-.611,4.117,4.117,0,0,1,3.164,1.244,4.887,4.887,0,0,1,1.16,3.467v1.151H35.165a2.135,2.135,0,0,0,.694,1.257,2.066,2.066,0,0,0,1.389.457,2.662,2.662,0,0,0,2.2-.984l1.354,1.6a3.784,3.784,0,0,1-1.569,1.217A5.3,5.3,0,0,1,37.046,17.176ZM36.712,9.6q-1.3,0-1.547,1.723h2.988v-.229a1.467,1.467,0,0,0-.36-1.1A1.434,1.434,0,0,0,36.712,9.6ZM45.044,7.49l.1,1.116a3.27,3.27,0,0,1,2.716-1.292,2.407,2.407,0,0,1,2.435,1.433,3.165,3.165,0,0,1,2.795-1.433q2.892,0,2.971,3.5V17H53.086V11a1.813,1.813,0,0,0-.246-1.063,1.048,1.048,0,0,0-.9-.334,1.4,1.4,0,0,0-1.31.782l.009.123V17H47.672V11.015a1.906,1.906,0,0,0-.237-1.081,1.045,1.045,0,0,0-.905-.334,1.42,1.42,0,0,0-1.3.782V17H42.267V7.49ZM63.105,17a3.344,3.344,0,0,1-.281-.853,2.754,2.754,0,0,1-2.285,1.028,3.374,3.374,0,0,1-2.285-.813,2.588,2.588,0,0,1-.94-2.043,2.66,2.66,0,0,1,1.143-2.338,5.821,5.821,0,0,1,3.322-.791h.914v-.5q0-1.316-1.134-1.316A.927.927,0,0,0,60.5,10.413H57.542a2.655,2.655,0,0,1,1.173-2.239,4.931,4.931,0,0,1,2.993-.86,4.323,4.323,0,0,1,2.874.888,3.086,3.086,0,0,1,1.081,2.435v4.21a4.311,4.311,0,0,0,.4,2V17Zm-1.854-1.934a1.652,1.652,0,0,0,.918-.237,1.487,1.487,0,0,0,.523-.536V12.772h-.861q-1.547,0-1.547,1.389a.848.848,0,0,0,.272.655A.986.986,0,0,0,61.251,15.066Zm11.03-.738a.684.684,0,0,0-.4-.606,6.016,6.016,0,0,0-1.5-.475,6.853,6.853,0,0,1-1.828-.646,3.062,3.062,0,0,1-1.1-.971,2.319,2.319,0,0,1-.378-1.31,2.628,2.628,0,0,1,1.081-2.158,4.453,4.453,0,0,1,2.83-.848,4.934,4.934,0,0,1,3.023.853,2.666,2.666,0,0,1,1.143,2.241H72.185q0-1.143-1.2-1.143a1.194,1.194,0,0,0-.782.259.8.8,0,0,0-.316.646.737.737,0,0,0,.387.642,3.654,3.654,0,0,0,1.235.4,10.671,10.671,0,0,1,1.49.378,2.706,2.706,0,0,1,2.145,2.646,2.491,2.491,0,0,1-1.156,2.118,5.068,5.068,0,0,1-2.993.817,5.172,5.172,0,0,1-2.18-.439,3.645,3.645,0,0,1-1.494-1.2,2.707,2.707,0,0,1-.536-1.591h2.769a1.145,1.145,0,0,0,.439.962,1.808,1.808,0,0,0,1.081.3,1.422,1.422,0,0,0,.91-.246A.787.787,0,0,0,72.281,14.328Zm8.35-2.171a5.613,5.613,0,0,1,.554-2.536,3.96,3.96,0,0,1,1.591-1.709,4.791,4.791,0,0,1,2.435-.6,4.373,4.373,0,0,1,3.366,1.323,5.076,5.076,0,0,1,1.23,3.6v.105a4.925,4.925,0,0,1-1.235,3.529,4.384,4.384,0,0,1-3.344,1.305,4.434,4.434,0,0,1-3.261-1.217,4.761,4.761,0,0,1-1.327-3.3Zm2.962.185a3.538,3.538,0,0,0,.413,1.934,1.376,1.376,0,0,0,1.222.615q1.582,0,1.617-2.435v-.3q0-2.558-1.635-2.558-1.485,0-1.608,2.206Zm16.348-.026a5.735,5.735,0,0,1-1,3.538,3.2,3.2,0,0,1-2.694,1.323,2.742,2.742,0,0,1-2.153-.958v4.438H91.134V7.49H93.9l.088.879a2.742,2.742,0,0,1,2.241-1.055,3.224,3.224,0,0,1,2.733,1.3,5.805,5.805,0,0,1,.976,3.564Zm-2.962-.185Q96.979,9.6,95.5,9.6a1.394,1.394,0,0,0-1.406.756V14.1a1.439,1.439,0,0,0,1.424.791q1.415,0,1.459-2.443Zm8.868,5.045a4.889,4.889,0,0,1-3.542-1.305,4.507,4.507,0,0,1-1.354-3.4v-.246a5.84,5.84,0,0,1,.541-2.575,3.955,3.955,0,0,1,1.578-1.727,4.763,4.763,0,0,1,2.461-.611,4.117,4.117,0,0,1,3.164,1.244,4.887,4.887,0,0,1,1.16,3.467v1.151h-5.889a2.135,2.135,0,0,0,.694,1.257,2.066,2.066,0,0,0,1.389.457,2.662,2.662,0,0,0,2.2-.984l1.354,1.6a3.784,3.784,0,0,1-1.569,1.217A5.3,5.3,0,0,1,105.847,17.176ZM105.513,9.6q-1.3,0-1.547,1.723h2.988v-.229a1.467,1.467,0,0,0-.36-1.1A1.434,1.434,0,0,0,105.513,9.6Zm11.285.571-.976-.07a1.752,1.752,0,0,0-1.793.879V17h-2.962V7.49h2.777l.1,1.222a2.294,2.294,0,0,1,2.083-1.4,2.888,2.888,0,0,1,.826.105ZM122.959,17a3.344,3.344,0,0,1-.281-.853,2.754,2.754,0,0,1-2.285,1.028,3.374,3.374,0,0,1-2.285-.813,2.588,2.588,0,0,1-.94-2.043,2.66,2.66,0,0,1,1.143-2.338,5.821,5.821,0,0,1,3.322-.791h.914v-.5q0-1.316-1.134-1.316a.927.927,0,0,0-1.055,1.042H117.4a2.655,2.655,0,0,1,1.173-2.239,4.931,4.931,0,0,1,2.993-.86,4.323,4.323,0,0,1,2.874.888,3.086,3.086,0,0,1,1.081,2.435v4.21a4.311,4.311,0,0,0,.4,2V17ZM121.1,15.066a1.652,1.652,0,0,0,.918-.237,1.487,1.487,0,0,0,.523-.536V12.772h-.861q-1.547,0-1.547,1.389a.848.848,0,0,0,.272.655A.986.986,0,0,0,121.1,15.066Zm9.5-9.94V7.49h1.564V9.547h-1.564V13.9a1.111,1.111,0,0,0,.193.747,1.037,1.037,0,0,0,.765.211,4.345,4.345,0,0,0,.738-.053v2.118a5.466,5.466,0,0,1-1.67.255,3.1,3.1,0,0,1-2.259-.721,2.954,2.954,0,0,1-.729-2.188V9.547h-1.213V7.49h1.213V5.126ZM136.459,17h-2.971V7.49h2.971ZM133.313,5.029a1.334,1.334,0,0,1,.457-1.043,1.934,1.934,0,0,1,2.373,0,1.334,1.334,0,0,1,.457,1.043,1.334,1.334,0,0,1-.457,1.043,1.934,1.934,0,0,1-2.373,0A1.334,1.334,0,0,1,133.313,5.029Zm8.763,8.446,1.5-5.985h3.12L143.6,17h-3.023l-3.1-9.51H140.6Zm5-1.318a5.613,5.613,0,0,1,.554-2.536,3.96,3.96,0,0,1,1.591-1.709,4.791,4.791,0,0,1,2.435-.6,4.373,4.373,0,0,1,3.366,1.323,5.076,5.076,0,0,1,1.23,3.6v.105a4.925,4.925,0,0,1-1.235,3.529,4.384,4.384,0,0,1-3.344,1.305,4.434,4.434,0,0,1-3.261-1.217,4.761,4.761,0,0,1-1.327-3.3Zm2.962.185a3.538,3.538,0,0,0,.413,1.934,1.376,1.376,0,0,0,1.222.615q1.582,0,1.617-2.435v-.3q0-2.558-1.635-2.558-1.485,0-1.608,2.206Zm12.5,1.986a.684.684,0,0,0-.4-.606,6.016,6.016,0,0,0-1.5-.475,6.853,6.853,0,0,1-1.828-.646,3.062,3.062,0,0,1-1.1-.971,2.319,2.319,0,0,1-.378-1.31,2.628,2.628,0,0,1,1.081-2.158,4.453,4.453,0,0,1,2.83-.848,4.934,4.934,0,0,1,3.023.853,2.666,2.666,0,0,1,1.143,2.241h-2.971q0-1.143-1.2-1.143a1.194,1.194,0,0,0-.782.259.8.8,0,0,0-.316.646.737.737,0,0,0,.387.642,3.654,3.654,0,0,0,1.235.4,10.671,10.671,0,0,1,1.49.378,2.706,2.706,0,0,1,2.145,2.646,2.491,2.491,0,0,1-1.156,2.118,5.068,5.068,0,0,1-2.993.817,5.172,5.172,0,0,1-2.18-.439,3.645,3.645,0,0,1-1.494-1.2,2.707,2.707,0,0,1-.536-1.591H159.8a1.145,1.145,0,0,0,.439.962,1.808,1.808,0,0,0,1.081.3,1.422,1.422,0,0,0,.91-.246A.787.787,0,0,0,162.536,14.328ZM7.567,38.6a1.268,1.268,0,0,0-.479-1.055,5.954,5.954,0,0,0-1.683-.782,16.147,16.147,0,0,1-1.969-.782Q.949,34.758.949,32.622a3.011,3.011,0,0,1,.62-1.876A4.008,4.008,0,0,1,3.322,29.48a6.823,6.823,0,0,1,2.549-.453,5.969,5.969,0,0,1,2.474.492,3.917,3.917,0,0,1,1.7,1.4A3.661,3.661,0,0,1,10.652,33H7.576A1.547,1.547,0,0,0,7.1,31.787a1.867,1.867,0,0,0-1.3-.431,2.106,2.106,0,0,0-1.305.365,1.074,1.074,0,0,0,.048,1.819,6.65,6.65,0,0,0,1.854.826,11.36,11.36,0,0,1,2.18.918,3.663,3.663,0,0,1,2.074,3.3,3.125,3.125,0,0,1-1.266,2.637,5.629,5.629,0,0,1-3.472.958A6.888,6.888,0,0,1,3.1,41.618a4.247,4.247,0,0,1-1.9-1.529,3.985,3.985,0,0,1-.637-2.237H3.656a1.963,1.963,0,0,0,.532,1.516,2.513,2.513,0,0,0,1.727.488,1.985,1.985,0,0,0,1.208-.33A1.088,1.088,0,0,0,7.567,38.6Zm4.157-1.441a5.613,5.613,0,0,1,.554-2.536,3.96,3.96,0,0,1,1.591-1.709,4.791,4.791,0,0,1,2.435-.6,4.373,4.373,0,0,1,3.366,1.323,5.076,5.076,0,0,1,1.23,3.6v.105a4.925,4.925,0,0,1-1.235,3.529,4.384,4.384,0,0,1-3.344,1.305,4.434,4.434,0,0,1-3.261-1.217,4.761,4.761,0,0,1-1.327-3.3Zm2.962.185a3.538,3.538,0,0,0,.413,1.934,1.376,1.376,0,0,0,1.222.615q1.582,0,1.617-2.435v-.3q0-2.558-1.635-2.558-1.485,0-1.608,2.206ZM22.86,42V34.547H21.48V32.49h1.38v-.756a3.286,3.286,0,0,1,.958-2.522,3.785,3.785,0,0,1,2.689-.9A5.89,5.89,0,0,1,27.9,28.5l.009,2.18a2.706,2.706,0,0,0-.729-.079q-1.345,0-1.345,1.16v.729h1.854v2.057H25.831V42Zm9.316-11.874V32.49h1.564v2.057H32.177V38.9a1.111,1.111,0,0,0,.193.747,1.037,1.037,0,0,0,.765.211,4.345,4.345,0,0,0,.738-.053v2.118a5.466,5.466,0,0,1-1.67.255,3.1,3.1,0,0,1-2.259-.721,2.954,2.954,0,0,1-.729-2.188v-4.72H28V32.49h1.213V30.126ZM43.119,38.1l.958-5.607h2.839L44.675,42h-2.5L40.6,36.357,39.015,42h-2.5l-2.241-9.51h2.839l.94,5.739L39.56,32.49h2.065ZM53.332,42a3.344,3.344,0,0,1-.281-.853,2.754,2.754,0,0,1-2.285,1.028,3.374,3.374,0,0,1-2.285-.813,2.588,2.588,0,0,1-.94-2.043,2.66,2.66,0,0,1,1.143-2.338A5.821,5.821,0,0,1,52,36.19h.914v-.5q0-1.316-1.134-1.316a.927.927,0,0,0-1.055,1.042H47.769a2.655,2.655,0,0,1,1.173-2.239,4.931,4.931,0,0,1,2.993-.86,4.323,4.323,0,0,1,2.874.888,3.086,3.086,0,0,1,1.081,2.435v4.21a4.311,4.311,0,0,0,.4,2V42Zm-1.854-1.934a1.652,1.652,0,0,0,.918-.237,1.487,1.487,0,0,0,.523-.536V37.772h-.861q-1.547,0-1.547,1.389a.848.848,0,0,0,.272.655A.986.986,0,0,0,51.478,40.066Zm11.8-4.9-.976-.07a1.752,1.752,0,0,0-1.793.879V42H57.551V32.49h2.777l.1,1.222a2.294,2.294,0,0,1,2.083-1.4,2.888,2.888,0,0,1,.826.105Zm5.5,7a4.889,4.889,0,0,1-3.542-1.305,4.507,4.507,0,0,1-1.354-3.4v-.246a5.84,5.84,0,0,1,.541-2.575,3.955,3.955,0,0,1,1.578-1.727,4.763,4.763,0,0,1,2.461-.611,4.117,4.117,0,0,1,3.164,1.244,4.887,4.887,0,0,1,1.16,3.467v1.151H66.9a2.135,2.135,0,0,0,.694,1.257,2.066,2.066,0,0,0,1.389.457,2.662,2.662,0,0,0,2.2-.984l1.354,1.6a3.784,3.784,0,0,1-1.569,1.217A5.3,5.3,0,0,1,68.783,42.176ZM68.449,34.6q-1.3,0-1.547,1.723h2.988v-.229a1.467,1.467,0,0,0-.36-1.1A1.434,1.434,0,0,0,68.449,34.6Zm16.752,4a1.268,1.268,0,0,0-.479-1.055,5.954,5.954,0,0,0-1.683-.782,16.147,16.147,0,0,1-1.969-.782q-2.487-1.222-2.487-3.357a3.011,3.011,0,0,1,.62-1.876,4.008,4.008,0,0,1,1.753-1.266,6.823,6.823,0,0,1,2.549-.453,5.969,5.969,0,0,1,2.474.492,3.917,3.917,0,0,1,1.7,1.4A3.661,3.661,0,0,1,88.286,33H85.21a1.547,1.547,0,0,0-.479-1.213,1.867,1.867,0,0,0-1.3-.431,2.106,2.106,0,0,0-1.305.365,1.074,1.074,0,0,0,.048,1.819,6.65,6.65,0,0,0,1.854.826,11.36,11.36,0,0,1,2.18.918,3.663,3.663,0,0,1,2.074,3.3,3.125,3.125,0,0,1-1.266,2.637,5.629,5.629,0,0,1-3.472.958,6.888,6.888,0,0,1-2.817-.558,4.247,4.247,0,0,1-1.9-1.529,3.985,3.985,0,0,1-.637-2.237H81.29a1.963,1.963,0,0,0,.532,1.516,2.513,2.513,0,0,0,1.727.488,1.985,1.985,0,0,0,1.208-.33A1.088,1.088,0,0,0,85.2,38.6ZM93.155,42H90.079V29.2h3.076Zm12.621-1.582a4.96,4.96,0,0,1-2.083,1.274,8.984,8.984,0,0,1-3.006.483,5.36,5.36,0,0,1-4.017-1.538,6.226,6.226,0,0,1-1.608-4.28l-.009-1.107a7.637,7.637,0,0,1,.668-3.3,4.96,4.96,0,0,1,1.912-2.171,5.407,5.407,0,0,1,2.878-.76,5.669,5.669,0,0,1,3.713,1.094,4.637,4.637,0,0,1,1.542,3.265H102.8a2.426,2.426,0,0,0-.686-1.529,2.212,2.212,0,0,0-1.494-.457,2.013,2.013,0,0,0-1.793.984,5.256,5.256,0,0,0-.642,2.813v.773a5.145,5.145,0,0,0,.655,2.878,2.316,2.316,0,0,0,2.061.962,2.592,2.592,0,0,0,1.793-.536V37.28h-2.145V35.162h5.229ZM8.235,64.609H4.008L3.27,67h-3.3L4.667,54.2h2.9L12.3,67H8.982ZM4.746,62.228H7.5l-1.38-4.438Zm16.752.088a5.735,5.735,0,0,1-1,3.538,3.2,3.2,0,0,1-2.694,1.323,2.742,2.742,0,0,1-2.153-.958v4.438H12.691V57.49H15.46l.088.879a2.742,2.742,0,0,1,2.241-1.055,3.224,3.224,0,0,1,2.733,1.3,5.805,5.805,0,0,1,.976,3.564Zm-2.962-.185q0-2.531-1.477-2.531a1.394,1.394,0,0,0-1.406.756V64.1a1.439,1.439,0,0,0,1.424.791q1.415,0,1.459-2.443ZM25.928,67H22.957V53.5h2.971Zm4.948,0H27.905V57.49h2.971ZM27.729,55.029a1.334,1.334,0,0,1,.457-1.043,1.934,1.934,0,0,1,2.373,0,1.42,1.42,0,0,1,0,2.087,1.934,1.934,0,0,1-2.373,0A1.334,1.334,0,0,1,27.729,55.029Zm8.991,9.861a1.317,1.317,0,0,0,.967-.338,1.241,1.241,0,0,0,.334-.945H40.8a3.288,3.288,0,0,1-1.121,2.566,4.168,4.168,0,0,1-2.887,1,4.22,4.22,0,0,1-3.27-1.3,5.125,5.125,0,0,1-1.2-3.6v-.123a5.792,5.792,0,0,1,.532-2.544,3.872,3.872,0,0,1,1.534-1.7,4.573,4.573,0,0,1,2.373-.593,4.116,4.116,0,0,1,2.944,1.028,3.647,3.647,0,0,1,1.09,2.786H38.021A1.626,1.626,0,0,0,37.661,60a1.244,1.244,0,0,0-.967-.4q-1.151,0-1.345,1.468a10.357,10.357,0,0,0-.062,1.283,4.068,4.068,0,0,0,.343,1.986A1.187,1.187,0,0,0,36.721,64.891ZM47.408,67a3.344,3.344,0,0,1-.281-.853,2.754,2.754,0,0,1-2.285,1.028,3.374,3.374,0,0,1-2.285-.813,2.588,2.588,0,0,1-.94-2.043,2.66,2.66,0,0,1,1.143-2.338,5.821,5.821,0,0,1,3.322-.791H47v-.5q0-1.316-1.134-1.316a.927.927,0,0,0-1.055,1.042H41.845a2.655,2.655,0,0,1,1.173-2.239,4.931,4.931,0,0,1,2.993-.86,4.323,4.323,0,0,1,2.874.888,3.086,3.086,0,0,1,1.081,2.435v4.21a4.311,4.311,0,0,0,.4,2V67Zm-1.854-1.934a1.652,1.652,0,0,0,.918-.237A1.487,1.487,0,0,0,47,64.293V62.772h-.861q-1.547,0-1.547,1.389a.848.848,0,0,0,.272.655A.986.986,0,0,0,45.554,65.066Zm10.072-.176a1.317,1.317,0,0,0,.967-.338,1.241,1.241,0,0,0,.334-.945H59.7a3.288,3.288,0,0,1-1.121,2.566,4.168,4.168,0,0,1-2.887,1,4.22,4.22,0,0,1-3.27-1.3,5.125,5.125,0,0,1-1.2-3.6v-.123a5.792,5.792,0,0,1,.532-2.544,3.872,3.872,0,0,1,1.534-1.7,4.573,4.573,0,0,1,2.373-.593,4.116,4.116,0,0,1,2.944,1.028,3.647,3.647,0,0,1,1.09,2.786H56.927A1.626,1.626,0,0,0,56.566,60a1.244,1.244,0,0,0-.967-.4q-1.151,0-1.345,1.468a10.357,10.357,0,0,0-.062,1.283,4.068,4.068,0,0,0,.343,1.986A1.187,1.187,0,0,0,55.626,64.891ZM64.081,67H61.11V57.49h2.971ZM60.935,55.029a1.334,1.334,0,0,1,.457-1.043,1.934,1.934,0,0,1,2.373,0,1.42,1.42,0,0,1,0,2.087,1.934,1.934,0,0,1-2.373,0A1.334,1.334,0,0,1,60.935,55.029Zm4.6,7.128a5.613,5.613,0,0,1,.554-2.536,3.96,3.96,0,0,1,1.591-1.709,4.791,4.791,0,0,1,2.435-.6,4.373,4.373,0,0,1,3.366,1.323,5.076,5.076,0,0,1,1.23,3.6v.105a4.925,4.925,0,0,1-1.235,3.529,4.384,4.384,0,0,1-3.344,1.305,4.434,4.434,0,0,1-3.261-1.217,4.761,4.761,0,0,1-1.327-3.3Zm2.962.185a3.538,3.538,0,0,0,.413,1.934,1.376,1.376,0,0,0,1.222.615q1.582,0,1.617-2.435v-.3q0-2.558-1.635-2.558-1.485,0-1.608,2.206ZM78.732,57.49l.1,1.116a3.225,3.225,0,0,1,2.716-1.292,2.713,2.713,0,0,1,2.219.888,4.226,4.226,0,0,1,.76,2.672V67H81.554V61a1.6,1.6,0,0,0-.29-1.059,1.342,1.342,0,0,0-1.055-.338,1.413,1.413,0,0,0-1.292.686V67H75.955V57.49Zm12.032,9.686a4.889,4.889,0,0,1-3.542-1.305,4.507,4.507,0,0,1-1.354-3.4v-.246a5.84,5.84,0,0,1,.541-2.575,3.955,3.955,0,0,1,1.578-1.727,4.763,4.763,0,0,1,2.461-.611,4.117,4.117,0,0,1,3.164,1.244,4.887,4.887,0,0,1,1.16,3.467v1.151H88.884a2.135,2.135,0,0,0,.694,1.257,2.066,2.066,0,0,0,1.389.457,2.662,2.662,0,0,0,2.2-.984l1.354,1.6a3.784,3.784,0,0,1-1.569,1.217A5.3,5.3,0,0,1,90.765,67.176ZM90.431,59.6q-1.3,0-1.547,1.723h2.988v-.229a1.467,1.467,0,0,0-.36-1.1A1.434,1.434,0,0,0,90.431,59.6Zm10.512,4.729a.684.684,0,0,0-.4-.606,6.016,6.016,0,0,0-1.5-.475,6.853,6.853,0,0,1-1.828-.646,3.062,3.062,0,0,1-1.1-.971,2.319,2.319,0,0,1-.378-1.31,2.628,2.628,0,0,1,1.081-2.158,4.453,4.453,0,0,1,2.83-.848,4.934,4.934,0,0,1,3.023.853,2.666,2.666,0,0,1,1.143,2.241h-2.971q0-1.143-1.2-1.143a1.194,1.194,0,0,0-.782.259.8.8,0,0,0-.316.646.737.737,0,0,0,.387.642,3.654,3.654,0,0,0,1.235.4,10.671,10.671,0,0,1,1.49.378A2.706,2.706,0,0,1,103.8,64.24a2.491,2.491,0,0,1-1.156,2.118,5.068,5.068,0,0,1-2.993.817,5.172,5.172,0,0,1-2.18-.439,3.645,3.645,0,0,1-1.494-1.2,2.707,2.707,0,0,1-.536-1.591h2.769a1.145,1.145,0,0,0,.439.962,1.808,1.808,0,0,0,1.081.3,1.422,1.422,0,0,0,.91-.246A.787.787,0,0,0,100.942,64.328Z" transform="translate(71.584 117.819)" fill="#12263f"/>
      <path id="Trazado_141814" data-name="Trazado 141814" d="M4.254,17H1.178V4.2H4.254ZM8.982,7.49l.1,1.116a3.225,3.225,0,0,1,2.716-1.292,2.713,2.713,0,0,1,2.219.888,4.226,4.226,0,0,1,.76,2.672V17H11.8V11a1.6,1.6,0,0,0-.29-1.059A1.342,1.342,0,0,0,10.459,9.6a1.413,1.413,0,0,0-1.292.686V17H6.205V7.49ZM17.068,17V9.547h-1.38V7.49h1.38V6.734a3.286,3.286,0,0,1,.958-2.522,3.785,3.785,0,0,1,2.689-.9A5.89,5.89,0,0,1,22.1,3.5l.009,2.18a2.706,2.706,0,0,0-.729-.079q-1.345,0-1.345,1.16V7.49h1.854V9.547H20.039V17Zm5.493-4.843a5.613,5.613,0,0,1,.554-2.536,3.96,3.96,0,0,1,1.591-1.709,4.791,4.791,0,0,1,2.435-.6,4.373,4.373,0,0,1,3.366,1.323,5.076,5.076,0,0,1,1.23,3.6v.105A4.925,4.925,0,0,1,30.5,15.871a4.384,4.384,0,0,1-3.344,1.305A4.434,4.434,0,0,1,23.9,15.958a4.761,4.761,0,0,1-1.327-3.3Zm2.962.185a3.538,3.538,0,0,0,.413,1.934,1.376,1.376,0,0,0,1.222.615q1.582,0,1.617-2.435v-.3q0-2.558-1.635-2.558-1.485,0-1.608,2.206Zm13.271-2.171-.976-.07a1.752,1.752,0,0,0-1.793.879V17H33.064V7.49h2.777l.1,1.222a2.294,2.294,0,0,1,2.083-1.4,2.888,2.888,0,0,1,.826.105ZM42.662,7.49l.1,1.116a3.27,3.27,0,0,1,2.716-1.292,2.407,2.407,0,0,1,2.435,1.433A3.165,3.165,0,0,1,50.7,7.314q2.892,0,2.971,3.5V17H50.7V11a1.813,1.813,0,0,0-.246-1.063,1.048,1.048,0,0,0-.9-.334,1.4,1.4,0,0,0-1.31.782l.009.123V17H45.29V11.015a1.906,1.906,0,0,0-.237-1.081,1.045,1.045,0,0,0-.905-.334,1.42,1.42,0,0,0-1.3.782V17H39.885V7.49ZM60.724,17a3.344,3.344,0,0,1-.281-.853,2.754,2.754,0,0,1-2.285,1.028,3.374,3.374,0,0,1-2.285-.813,2.588,2.588,0,0,1-.94-2.043,2.66,2.66,0,0,1,1.143-2.338A5.821,5.821,0,0,1,59.4,11.19h.914v-.5q0-1.316-1.134-1.316a.927.927,0,0,0-1.055,1.042H55.16a2.655,2.655,0,0,1,1.173-2.239,4.931,4.931,0,0,1,2.993-.86A4.323,4.323,0,0,1,62.2,8.2a3.086,3.086,0,0,1,1.081,2.435v4.21a4.311,4.311,0,0,0,.4,2V17Zm-1.854-1.934a1.652,1.652,0,0,0,.918-.237,1.487,1.487,0,0,0,.523-.536V12.772h-.861q-1.547,0-1.547,1.389a.848.848,0,0,0,.272.655A.986.986,0,0,0,58.869,15.066Zm10.072-.176a1.317,1.317,0,0,0,.967-.338,1.241,1.241,0,0,0,.334-.945H73.02A3.288,3.288,0,0,1,71.9,16.174a4.168,4.168,0,0,1-2.887,1,4.22,4.22,0,0,1-3.27-1.3,5.125,5.125,0,0,1-1.2-3.6v-.123A5.792,5.792,0,0,1,65.079,9.6a3.872,3.872,0,0,1,1.534-1.7,4.573,4.573,0,0,1,2.373-.593A4.116,4.116,0,0,1,71.93,8.343a3.647,3.647,0,0,1,1.09,2.786H70.242A1.626,1.626,0,0,0,69.882,10a1.244,1.244,0,0,0-.967-.4q-1.151,0-1.345,1.468a10.357,10.357,0,0,0-.062,1.283,4.068,4.068,0,0,0,.343,1.986A1.187,1.187,0,0,0,68.941,14.891ZM77.4,17H74.426V7.49H77.4ZM74.25,5.029a1.334,1.334,0,0,1,.457-1.043,1.934,1.934,0,0,1,2.373,0,1.334,1.334,0,0,1,.457,1.043,1.334,1.334,0,0,1-.457,1.043,1.934,1.934,0,0,1-2.373,0A1.334,1.334,0,0,1,74.25,5.029Zm4.6,7.128A5.613,5.613,0,0,1,79.4,9.622a3.96,3.96,0,0,1,1.591-1.709,4.791,4.791,0,0,1,2.435-.6,4.373,4.373,0,0,1,3.366,1.323,5.076,5.076,0,0,1,1.23,3.6v.105a4.925,4.925,0,0,1-1.235,3.529,4.384,4.384,0,0,1-3.344,1.305,4.434,4.434,0,0,1-3.261-1.217,4.761,4.761,0,0,1-1.327-3.3Zm2.962.185a3.538,3.538,0,0,0,.413,1.934,1.376,1.376,0,0,0,1.222.615q1.582,0,1.617-2.435v-.3q0-2.558-1.635-2.558-1.485,0-1.608,2.206ZM83.83,3.5h3.129L84.516,6.26l-2.417,0Zm8.218,3.99.1,1.116A3.225,3.225,0,0,1,94.86,7.314,2.713,2.713,0,0,1,97.08,8.2a4.226,4.226,0,0,1,.76,2.672V17H94.869V11a1.6,1.6,0,0,0-.29-1.059A1.342,1.342,0,0,0,93.524,9.6a1.413,1.413,0,0,0-1.292.686V17H89.271V7.49ZM5.432,42.176A4.889,4.889,0,0,1,1.89,40.871a4.507,4.507,0,0,1-1.354-3.4v-.246a5.84,5.84,0,0,1,.541-2.575,3.955,3.955,0,0,1,1.578-1.727,4.763,4.763,0,0,1,2.461-.611,4.117,4.117,0,0,1,3.164,1.244,4.887,4.887,0,0,1,1.16,3.467v1.151H3.551a2.135,2.135,0,0,0,.694,1.257,2.066,2.066,0,0,0,1.389.457,2.662,2.662,0,0,0,2.2-.984l1.354,1.6a3.784,3.784,0,0,1-1.569,1.217A5.3,5.3,0,0,1,5.432,42.176ZM5.1,34.6q-1.3,0-1.547,1.723H6.539v-.229a1.467,1.467,0,0,0-.36-1.1A1.434,1.434,0,0,0,5.1,34.6Zm10.512,4.729a.684.684,0,0,0-.4-.606,6.016,6.016,0,0,0-1.5-.475,6.853,6.853,0,0,1-1.828-.646,3.062,3.062,0,0,1-1.1-.971,2.319,2.319,0,0,1-.378-1.31,2.628,2.628,0,0,1,1.081-2.158,4.453,4.453,0,0,1,2.83-.848,4.934,4.934,0,0,1,3.023.853,2.666,2.666,0,0,1,1.143,2.241H15.513q0-1.143-1.2-1.143a1.194,1.194,0,0,0-.782.259.8.8,0,0,0-.316.646.737.737,0,0,0,.387.642,3.654,3.654,0,0,0,1.235.4,10.671,10.671,0,0,1,1.49.378,2.706,2.706,0,0,1,2.145,2.646,2.491,2.491,0,0,1-1.156,2.118,5.068,5.068,0,0,1-2.993.817,5.172,5.172,0,0,1-2.18-.439,3.645,3.645,0,0,1-1.494-1.2,2.707,2.707,0,0,1-.536-1.591h2.769a1.145,1.145,0,0,0,.439.962,1.808,1.808,0,0,0,1.081.3,1.422,1.422,0,0,0,.91-.246A.787.787,0,0,0,15.609,39.328Zm13.069-2.013a5.735,5.735,0,0,1-1,3.538,3.2,3.2,0,0,1-2.694,1.323,2.742,2.742,0,0,1-2.153-.958v4.438H19.872V32.49h2.769l.088.879a2.742,2.742,0,0,1,2.241-1.055,3.224,3.224,0,0,1,2.733,1.3,5.805,5.805,0,0,1,.976,3.564Zm-2.962-.185q0-2.531-1.477-2.531a1.394,1.394,0,0,0-1.406.756V39.1a1.439,1.439,0,0,0,1.424.791q1.415,0,1.459-2.443ZM35.341,42a3.344,3.344,0,0,1-.281-.853,2.754,2.754,0,0,1-2.285,1.028,3.374,3.374,0,0,1-2.285-.813,2.588,2.588,0,0,1-.94-2.043,2.66,2.66,0,0,1,1.143-2.338,5.821,5.821,0,0,1,3.322-.791h.914v-.5q0-1.316-1.134-1.316a.927.927,0,0,0-1.055,1.042H29.777a2.655,2.655,0,0,1,1.173-2.239,4.931,4.931,0,0,1,2.993-.86,4.323,4.323,0,0,1,2.874.888A3.086,3.086,0,0,1,37.9,35.637v4.21a4.311,4.311,0,0,0,.4,2V42Zm-1.854-1.934a1.652,1.652,0,0,0,.918-.237,1.487,1.487,0,0,0,.523-.536V37.772h-.861q-1.547,0-1.547,1.389a.848.848,0,0,0,.272.655A.986.986,0,0,0,33.486,40.066Zm10.072-.176a1.317,1.317,0,0,0,.967-.338,1.241,1.241,0,0,0,.334-.945h2.777a3.288,3.288,0,0,1-1.121,2.566,4.168,4.168,0,0,1-2.887,1,4.22,4.22,0,0,1-3.27-1.3,5.125,5.125,0,0,1-1.2-3.6v-.123A5.792,5.792,0,0,1,39.7,34.6a3.872,3.872,0,0,1,1.534-1.7,4.573,4.573,0,0,1,2.373-.593,4.116,4.116,0,0,1,2.944,1.028,3.647,3.647,0,0,1,1.09,2.786H44.859A1.626,1.626,0,0,0,44.5,35a1.244,1.244,0,0,0-.967-.4q-1.151,0-1.345,1.468a10.357,10.357,0,0,0-.062,1.283,4.068,4.068,0,0,0,.343,1.986A1.187,1.187,0,0,0,43.559,39.891ZM52.014,42H49.043V32.49h2.971ZM48.867,30.029a1.334,1.334,0,0,1,.457-1.043,1.934,1.934,0,0,1,2.373,0,1.42,1.42,0,0,1,0,2.087,1.934,1.934,0,0,1-2.373,0A1.334,1.334,0,0,1,48.867,30.029ZM59.194,42a3.344,3.344,0,0,1-.281-.853,2.754,2.754,0,0,1-2.285,1.028,3.374,3.374,0,0,1-2.285-.813,2.588,2.588,0,0,1-.94-2.043,2.66,2.66,0,0,1,1.143-2.338,5.821,5.821,0,0,1,3.322-.791h.914v-.5q0-1.316-1.134-1.316a.927.927,0,0,0-1.055,1.042H53.631A2.655,2.655,0,0,1,54.8,33.175a4.931,4.931,0,0,1,2.993-.86,4.323,4.323,0,0,1,2.874.888,3.086,3.086,0,0,1,1.081,2.435v4.21a4.311,4.311,0,0,0,.4,2V42ZM57.34,40.066a1.652,1.652,0,0,0,.918-.237,1.487,1.487,0,0,0,.523-.536V37.772H57.92q-1.547,0-1.547,1.389a.848.848,0,0,0,.272.655A.986.986,0,0,0,57.34,40.066ZM66.516,42H63.545V28.5h2.971Zm6.53-5.2a13.431,13.431,0,0,1,.571-3.99,9.629,9.629,0,0,1,1.578-3.129,5.6,5.6,0,0,1,2.237-1.793l.563,1.459a5.73,5.73,0,0,0-1.9,2.826,13.782,13.782,0,0,0-.681,4.5v.387a14.051,14.051,0,0,0,.672,4.588A5.706,5.706,0,0,0,77.994,44.5l-.562,1.459a5.547,5.547,0,0,1-2.237-1.8,9.484,9.484,0,0,1-1.578-3.116,13.5,13.5,0,0,1-.571-3.85Zm8.93-4.307.1,1.116a3.27,3.27,0,0,1,2.716-1.292,2.407,2.407,0,0,1,2.435,1.433,3.165,3.165,0,0,1,2.795-1.433q2.892,0,2.971,3.5V42H90.018V36a1.813,1.813,0,0,0-.246-1.063,1.048,1.048,0,0,0-.9-.334,1.4,1.4,0,0,0-1.31.782l.009.123V42H84.6V36.015a1.906,1.906,0,0,0-.237-1.081,1.045,1.045,0,0,0-.905-.334,1.42,1.42,0,0,0-1.3.782V42H79.2V32.49ZM100.037,42a3.344,3.344,0,0,1-.281-.853,2.754,2.754,0,0,1-2.285,1.028,3.374,3.374,0,0,1-2.285-.813,2.588,2.588,0,0,1-.94-2.043,2.66,2.66,0,0,1,1.143-2.338,5.821,5.821,0,0,1,3.322-.791h.914v-.5q0-1.316-1.134-1.316a.927.927,0,0,0-1.055,1.042H94.474a2.655,2.655,0,0,1,1.173-2.239,4.931,4.931,0,0,1,2.993-.86,4.323,4.323,0,0,1,2.874.888,3.086,3.086,0,0,1,1.081,2.435v4.21a4.311,4.311,0,0,0,.4,2V42Zm-1.854-1.934a1.652,1.652,0,0,0,.918-.237,1.487,1.487,0,0,0,.523-.536V37.772h-.861q-1.547,0-1.547,1.389a.848.848,0,0,0,.272.655A.986.986,0,0,0,98.183,40.066Zm14.88-2.751a5.735,5.735,0,0,1-1,3.538,3.2,3.2,0,0,1-2.694,1.323,2.742,2.742,0,0,1-2.153-.958v4.438h-2.962V32.49h2.769l.088.879a2.742,2.742,0,0,1,2.241-1.055,3.224,3.224,0,0,1,2.733,1.3,5.805,5.805,0,0,1,.976,3.564Zm-2.962-.185q0-2.531-1.477-2.531a1.394,1.394,0,0,0-1.406.756V39.1a1.439,1.439,0,0,0,1.424.791q1.415,0,1.459-2.443ZM119.725,42a3.344,3.344,0,0,1-.281-.853,2.754,2.754,0,0,1-2.285,1.028,3.374,3.374,0,0,1-2.285-.813,2.588,2.588,0,0,1-.94-2.043,2.66,2.66,0,0,1,1.143-2.338,5.821,5.821,0,0,1,3.322-.791h.914v-.5q0-1.316-1.134-1.316a.927.927,0,0,0-1.055,1.042h-2.962a2.655,2.655,0,0,1,1.173-2.239,4.931,4.931,0,0,1,2.993-.86,4.323,4.323,0,0,1,2.874.888,3.086,3.086,0,0,1,1.081,2.435v4.21a4.311,4.311,0,0,0,.4,2V42Zm-1.854-1.934a1.652,1.652,0,0,0,.918-.237,1.487,1.487,0,0,0,.523-.536V37.772h-.861q-1.547,0-1.547,1.389a.848.848,0,0,0,.272.655A.986.986,0,0,0,117.87,40.066Zm11.03-.738a.684.684,0,0,0-.4-.606,6.016,6.016,0,0,0-1.5-.475,6.853,6.853,0,0,1-1.828-.646,3.062,3.062,0,0,1-1.1-.971,2.319,2.319,0,0,1-.378-1.31,2.628,2.628,0,0,1,1.081-2.158,4.453,4.453,0,0,1,2.83-.848,4.934,4.934,0,0,1,3.023.853,2.666,2.666,0,0,1,1.143,2.241H128.8q0-1.143-1.2-1.143a1.194,1.194,0,0,0-.782.259.8.8,0,0,0-.316.646.737.737,0,0,0,.387.642,3.654,3.654,0,0,0,1.235.4,10.671,10.671,0,0,1,1.49.378,2.706,2.706,0,0,1,2.145,2.646,2.491,2.491,0,0,1-1.156,2.118,5.068,5.068,0,0,1-2.993.817,5.172,5.172,0,0,1-2.18-.439,3.645,3.645,0,0,1-1.494-1.2,2.707,2.707,0,0,1-.536-1.591h2.769a1.145,1.145,0,0,0,.439.962,1.808,1.808,0,0,0,1.081.3,1.422,1.422,0,0,0,.91-.246A.787.787,0,0,0,128.9,39.328Zm5.282,6.117-1.494-.7.3-.6a4.874,4.874,0,0,0,.642-2.18v-2.2H136l-.009,1.907a4.767,4.767,0,0,1-.519,2.057A5.226,5.226,0,0,1,134.183,45.445ZM1.485,67V59.547H.105V57.49h1.38v-.756a3.286,3.286,0,0,1,.958-2.522,3.785,3.785,0,0,1,2.689-.9,5.889,5.889,0,0,1,1.389.185l.009,2.18A2.706,2.706,0,0,0,5.8,55.6q-1.345,0-1.345,1.16v.729H6.311v2.057H4.456V67Zm5.493-4.843a5.613,5.613,0,0,1,.554-2.536,3.96,3.96,0,0,1,1.591-1.709,4.791,4.791,0,0,1,2.435-.6,4.373,4.373,0,0,1,3.366,1.323,5.076,5.076,0,0,1,1.23,3.6v.105a4.925,4.925,0,0,1-1.235,3.529,4.384,4.384,0,0,1-3.344,1.305,4.434,4.434,0,0,1-3.261-1.217,4.761,4.761,0,0,1-1.327-3.3Zm2.962.185a3.538,3.538,0,0,0,.413,1.934,1.376,1.376,0,0,0,1.222.615q1.582,0,1.617-2.435v-.3q0-2.558-1.635-2.558-1.485,0-1.608,2.206Zm10.969-7.216V57.49h1.564v2.057H20.909V63.9a1.111,1.111,0,0,0,.193.747,1.037,1.037,0,0,0,.765.211,4.345,4.345,0,0,0,.738-.053v2.118a5.466,5.466,0,0,1-1.67.255,3.1,3.1,0,0,1-2.259-.721,2.954,2.954,0,0,1-.729-2.188v-4.72H16.734V57.49h1.213V55.126ZM23,62.157a5.613,5.613,0,0,1,.554-2.536,3.96,3.96,0,0,1,1.591-1.709,4.791,4.791,0,0,1,2.435-.6,4.373,4.373,0,0,1,3.366,1.323,5.076,5.076,0,0,1,1.23,3.6v.105a4.925,4.925,0,0,1-1.235,3.529A4.384,4.384,0,0,1,27.6,67.176a4.434,4.434,0,0,1-3.261-1.217,4.761,4.761,0,0,1-1.327-3.3Zm2.962.185a3.538,3.538,0,0,0,.413,1.934,1.376,1.376,0,0,0,1.222.615q1.582,0,1.617-2.435v-.3q0-2.558-1.635-2.558-1.485,0-1.608,2.206Zm7.172-.167a6.421,6.421,0,0,1,.475-2.549,3.821,3.821,0,0,1,1.362-1.709,3.591,3.591,0,0,1,2.065-.6,2.855,2.855,0,0,1,2.32,1l.105-.826h2.689V66.64a4.009,4.009,0,0,1-.584,2.184,3.75,3.75,0,0,1-1.692,1.424,6.219,6.219,0,0,1-2.566.5,5.365,5.365,0,0,1-2.026-.4,3.657,3.657,0,0,1-1.5-1.028l1.239-1.74a2.716,2.716,0,0,0,2.18.976,1.764,1.764,0,0,0,1.969-2.021v-.3a2.781,2.781,0,0,1-2.153.94,3.437,3.437,0,0,1-2.812-1.332,5.517,5.517,0,0,1-1.072-3.564Zm2.971.185a3.383,3.383,0,0,0,.439,1.85,1.387,1.387,0,0,0,1.23.681,1.573,1.573,0,0,0,1.4-.642v-4a1.534,1.534,0,0,0-1.38-.65,1.4,1.4,0,0,0-1.239.708A3.858,3.858,0,0,0,36.105,62.359Zm13.482-2.188-.976-.07a1.752,1.752,0,0,0-1.793.879V67H43.857V57.49h2.777l.1,1.222a2.294,2.294,0,0,1,2.083-1.4,2.888,2.888,0,0,1,.826.105ZM55.749,67a3.344,3.344,0,0,1-.281-.853,2.754,2.754,0,0,1-2.285,1.028,3.374,3.374,0,0,1-2.285-.813,2.588,2.588,0,0,1-.94-2.043A2.66,2.66,0,0,1,51.1,61.981a5.821,5.821,0,0,1,3.322-.791h.914v-.5q0-1.316-1.134-1.316a.927.927,0,0,0-1.055,1.042H50.186a2.655,2.655,0,0,1,1.173-2.239,4.931,4.931,0,0,1,2.993-.86,4.323,4.323,0,0,1,2.874.888,3.086,3.086,0,0,1,1.081,2.435v4.21a4.311,4.311,0,0,0,.4,2V67Zm-1.854-1.934a1.652,1.652,0,0,0,.918-.237,1.487,1.487,0,0,0,.523-.536V62.772h-.861q-1.547,0-1.547,1.389a.848.848,0,0,0,.272.655A.986.986,0,0,0,53.895,65.066ZM60.6,67V59.547h-1.38V57.49H60.6v-.756a3.286,3.286,0,0,1,.958-2.522,3.785,3.785,0,0,1,2.689-.9,5.889,5.889,0,0,1,1.389.185l.009,2.18a2.706,2.706,0,0,0-.729-.079q-1.345,0-1.345,1.16v.729h1.854v2.057H63.571V67Zm9.1,0H66.718V57.49H69.7ZM68.59,53.676h3.129l-2.443,2.76-2.417,0ZM76.957,67a3.344,3.344,0,0,1-.281-.853,2.754,2.754,0,0,1-2.285,1.028,3.374,3.374,0,0,1-2.285-.813,2.588,2.588,0,0,1-.94-2.043,2.66,2.66,0,0,1,1.143-2.338,5.821,5.821,0,0,1,3.322-.791h.914v-.5q0-1.316-1.134-1.316a.927.927,0,0,0-1.055,1.042H71.394a2.655,2.655,0,0,1,1.173-2.239,4.931,4.931,0,0,1,2.993-.86,4.323,4.323,0,0,1,2.874.888,3.086,3.086,0,0,1,1.081,2.435v4.21a4.311,4.311,0,0,0,.4,2V67ZM75.1,65.066a1.652,1.652,0,0,0,.918-.237,1.487,1.487,0,0,0,.523-.536V62.772h-.861q-1.547,0-1.547,1.389a.848.848,0,0,0,.272.655A.986.986,0,0,0,75.1,65.066Zm11.03-.738a.684.684,0,0,0-.4-.606,6.016,6.016,0,0,0-1.5-.475,6.853,6.853,0,0,1-1.828-.646,3.062,3.062,0,0,1-1.1-.971,2.319,2.319,0,0,1-.378-1.31,2.628,2.628,0,0,1,1.081-2.158,4.453,4.453,0,0,1,2.83-.848,4.934,4.934,0,0,1,3.023.853,2.666,2.666,0,0,1,1.143,2.241H86.036q0-1.143-1.2-1.143a1.194,1.194,0,0,0-.782.259.8.8,0,0,0-.316.646.737.737,0,0,0,.387.642,3.654,3.654,0,0,0,1.235.4,10.671,10.671,0,0,1,1.49.378,2.706,2.706,0,0,1,2.145,2.646,2.491,2.491,0,0,1-1.156,2.118,5.068,5.068,0,0,1-2.993.817,5.172,5.172,0,0,1-2.18-.439,3.645,3.645,0,0,1-1.494-1.2,2.707,2.707,0,0,1-.536-1.591H83.4a1.145,1.145,0,0,0,.439.962,1.808,1.808,0,0,0,1.081.3,1.422,1.422,0,0,0,.91-.246A.787.787,0,0,0,86.133,64.328ZM100.213,67a3.344,3.344,0,0,1-.281-.853,2.754,2.754,0,0,1-2.285,1.028,3.374,3.374,0,0,1-2.285-.813,2.588,2.588,0,0,1-.94-2.043,2.66,2.66,0,0,1,1.143-2.338,5.821,5.821,0,0,1,3.322-.791H99.8v-.5q0-1.316-1.134-1.316a.927.927,0,0,0-1.055,1.042H94.649a2.655,2.655,0,0,1,1.173-2.239,4.931,4.931,0,0,1,2.993-.86,4.323,4.323,0,0,1,2.874.888,3.086,3.086,0,0,1,1.081,2.435v4.21a4.311,4.311,0,0,0,.4,2V67Zm-1.854-1.934a1.652,1.652,0,0,0,.918-.237,1.487,1.487,0,0,0,.523-.536V62.772h-.861q-1.547,0-1.547,1.389a.848.848,0,0,0,.272.655A.986.986,0,0,0,98.358,65.066Zm10.652,2.109a4.889,4.889,0,0,1-3.542-1.305,4.507,4.507,0,0,1-1.354-3.4v-.246a5.84,5.84,0,0,1,.541-2.575,3.955,3.955,0,0,1,1.578-1.727,4.763,4.763,0,0,1,2.461-.611,4.117,4.117,0,0,1,3.164,1.244,4.887,4.887,0,0,1,1.16,3.467v1.151H107.13a2.135,2.135,0,0,0,.694,1.257,2.066,2.066,0,0,0,1.389.457,2.662,2.662,0,0,0,2.2-.984l1.354,1.6a3.784,3.784,0,0,1-1.569,1.217A5.3,5.3,0,0,1,109.011,67.176Zm-.334-7.576q-1.3,0-1.547,1.723h2.988v-.229a1.467,1.467,0,0,0-.36-1.1A1.434,1.434,0,0,0,108.677,59.6Zm-.035-6.108h3.129l-2.443,2.76-2.417,0Zm11.32,6.68-.976-.07a1.752,1.752,0,0,0-1.793.879V67h-2.962V57.49h2.777l.1,1.222a2.294,2.294,0,0,1,2.083-1.4,2.888,2.888,0,0,1,.826.105Zm5.5,7a4.889,4.889,0,0,1-3.542-1.305,4.507,4.507,0,0,1-1.354-3.4v-.246a5.84,5.84,0,0,1,.541-2.575,3.955,3.955,0,0,1,1.578-1.727,4.763,4.763,0,0,1,2.461-.611,4.117,4.117,0,0,1,3.164,1.244,4.887,4.887,0,0,1,1.16,3.467v1.151h-5.889a2.135,2.135,0,0,0,.694,1.257,2.066,2.066,0,0,0,1.389.457,2.662,2.662,0,0,0,2.2-.984l1.354,1.6a3.784,3.784,0,0,1-1.569,1.217A5.3,5.3,0,0,1,125.464,67.176ZM125.13,59.6q-1.3,0-1.547,1.723h2.988v-.229a1.467,1.467,0,0,0-.36-1.1A1.434,1.434,0,0,0,125.13,59.6ZM136.02,67a3.344,3.344,0,0,1-.281-.853,2.754,2.754,0,0,1-2.285,1.028,3.374,3.374,0,0,1-2.285-.813,2.588,2.588,0,0,1-.94-2.043,2.66,2.66,0,0,1,1.143-2.338,5.821,5.821,0,0,1,3.322-.791h.914v-.5q0-1.316-1.134-1.316a.927.927,0,0,0-1.055,1.042h-2.962a2.655,2.655,0,0,1,1.173-2.239,4.931,4.931,0,0,1,2.993-.86,4.323,4.323,0,0,1,2.874.888,3.086,3.086,0,0,1,1.081,2.435v4.21a4.311,4.311,0,0,0,.4,2V67Zm-1.854-1.934a1.652,1.652,0,0,0,.918-.237,1.487,1.487,0,0,0,.523-.536V62.772h-.861q-1.547,0-1.547,1.389a.848.848,0,0,0,.272.655A.986.986,0,0,0,134.165,65.066Zm11.03-.738a.684.684,0,0,0-.4-.606,6.016,6.016,0,0,0-1.5-.475,6.853,6.853,0,0,1-1.828-.646,3.062,3.062,0,0,1-1.1-.971,2.319,2.319,0,0,1-.378-1.31,2.628,2.628,0,0,1,1.081-2.158,4.453,4.453,0,0,1,2.83-.848,4.934,4.934,0,0,1,3.023.853,2.666,2.666,0,0,1,1.143,2.241H145.1q0-1.143-1.2-1.143a1.194,1.194,0,0,0-.782.259.8.8,0,0,0-.316.646.737.737,0,0,0,.387.642,3.654,3.654,0,0,0,1.235.4,10.671,10.671,0,0,1,1.49.378,2.706,2.706,0,0,1,2.145,2.646,2.491,2.491,0,0,1-1.156,2.118,5.068,5.068,0,0,1-2.993.817,5.172,5.172,0,0,1-2.18-.439,3.645,3.645,0,0,1-1.494-1.2,2.707,2.707,0,0,1-.536-1.591h2.769a1.145,1.145,0,0,0,.439.962,1.808,1.808,0,0,0,1.081.3,1.422,1.422,0,0,0,.91-.246A.787.787,0,0,0,145.2,64.328Zm5.282,6.117-1.494-.7.3-.6a4.874,4.874,0,0,0,.642-2.18v-2.2H152.3l-.009,1.907a4.767,4.767,0,0,1-.519,2.057A5.226,5.226,0,0,1,150.478,70.445ZM3.955,92H.984V82.49H3.955ZM.809,80.029a1.334,1.334,0,0,1,.457-1.043,1.718,1.718,0,0,1,1.187-.407,1.718,1.718,0,0,1,1.187.407,1.42,1.42,0,0,1,0,2.087,1.718,1.718,0,0,1-1.187.407,1.718,1.718,0,0,1-1.187-.407A1.334,1.334,0,0,1,.809,80.029Zm7.77,2.461.1,1.116a3.27,3.27,0,0,1,2.716-1.292,2.407,2.407,0,0,1,2.435,1.433,3.165,3.165,0,0,1,2.795-1.433q2.892,0,2.971,3.5V92H16.62V86a1.813,1.813,0,0,0-.246-1.063,1.048,1.048,0,0,0-.9-.334,1.4,1.4,0,0,0-1.31.782l.009.123V92H11.206V86.015a1.906,1.906,0,0,0-.237-1.081,1.045,1.045,0,0,0-.905-.334,1.42,1.42,0,0,0-1.3.782V92H5.8V82.49ZM26.64,92a3.344,3.344,0,0,1-.281-.853,2.754,2.754,0,0,1-2.285,1.028,3.374,3.374,0,0,1-2.285-.813,2.588,2.588,0,0,1-.94-2.043,2.66,2.66,0,0,1,1.143-2.338,5.821,5.821,0,0,1,3.322-.791h.914v-.5q0-1.316-1.134-1.316a.927.927,0,0,0-1.055,1.042H21.076a2.655,2.655,0,0,1,1.173-2.239,4.931,4.931,0,0,1,2.993-.86,4.323,4.323,0,0,1,2.874.888A3.086,3.086,0,0,1,29.2,85.637v4.21a4.311,4.311,0,0,0,.4,2V92Zm-1.854-1.934a1.652,1.652,0,0,0,.918-.237,1.487,1.487,0,0,0,.523-.536V87.772h-.861q-1.547,0-1.547,1.389a.848.848,0,0,0,.272.655A.986.986,0,0,0,24.785,90.066ZM25.523,78.5h3.129l-2.443,2.76-2.417,0Zm4.966,8.675a6.421,6.421,0,0,1,.475-2.549,3.821,3.821,0,0,1,1.362-1.709,3.591,3.591,0,0,1,2.065-.6,2.855,2.855,0,0,1,2.32,1l.105-.826h2.689V91.64a4.009,4.009,0,0,1-.584,2.184,3.75,3.75,0,0,1-1.692,1.424,6.219,6.219,0,0,1-2.566.5,5.365,5.365,0,0,1-2.026-.4,3.657,3.657,0,0,1-1.5-1.028l1.239-1.74a2.716,2.716,0,0,0,2.18.976,1.764,1.764,0,0,0,1.969-2.021v-.3a2.781,2.781,0,0,1-2.153.94,3.437,3.437,0,0,1-2.812-1.332,5.517,5.517,0,0,1-1.072-3.564Zm2.971.185a3.383,3.383,0,0,0,.439,1.85,1.387,1.387,0,0,0,1.23.681,1.573,1.573,0,0,0,1.4-.642v-4a1.534,1.534,0,0,0-1.38-.65,1.4,1.4,0,0,0-1.239.708A3.858,3.858,0,0,0,33.46,87.359Zm12.331,4.816a4.889,4.889,0,0,1-3.542-1.305,4.507,4.507,0,0,1-1.354-3.4v-.246a5.84,5.84,0,0,1,.541-2.575,3.955,3.955,0,0,1,1.578-1.727,4.763,4.763,0,0,1,2.461-.611,4.117,4.117,0,0,1,3.164,1.244,4.887,4.887,0,0,1,1.16,3.467v1.151H43.91a2.135,2.135,0,0,0,.694,1.257,2.066,2.066,0,0,0,1.389.457,2.662,2.662,0,0,0,2.2-.984l1.354,1.6a3.784,3.784,0,0,1-1.569,1.217A5.3,5.3,0,0,1,45.791,92.176ZM45.457,84.6q-1.3,0-1.547,1.723H46.9v-.229a1.467,1.467,0,0,0-.36-1.1A1.434,1.434,0,0,0,45.457,84.6ZM53.71,82.49l.1,1.116a3.225,3.225,0,0,1,2.716-1.292,2.713,2.713,0,0,1,2.219.888,4.226,4.226,0,0,1,.76,2.672V92H56.531V86a1.6,1.6,0,0,0-.29-1.059,1.342,1.342,0,0,0-1.055-.338,1.413,1.413,0,0,0-1.292.686V92H50.933V82.49Zm12.032,9.686A4.889,4.889,0,0,1,62.2,90.871a4.507,4.507,0,0,1-1.354-3.4v-.246a5.84,5.84,0,0,1,.541-2.575,3.955,3.955,0,0,1,1.578-1.727,4.763,4.763,0,0,1,2.461-.611,4.117,4.117,0,0,1,3.164,1.244,4.887,4.887,0,0,1,1.16,3.467v1.151H63.861a2.135,2.135,0,0,0,.694,1.257,2.066,2.066,0,0,0,1.389.457,2.662,2.662,0,0,0,2.2-.984l1.354,1.6a3.784,3.784,0,0,1-1.569,1.217A5.3,5.3,0,0,1,65.742,92.176ZM65.408,84.6q-1.3,0-1.547,1.723H66.85v-.229a1.467,1.467,0,0,0-.36-1.1A1.434,1.434,0,0,0,65.408,84.6ZM75.92,89.328a.684.684,0,0,0-.4-.606,6.016,6.016,0,0,0-1.5-.475,6.853,6.853,0,0,1-1.828-.646,3.062,3.062,0,0,1-1.1-.971,2.319,2.319,0,0,1-.378-1.31A2.628,2.628,0,0,1,71.8,83.163a4.453,4.453,0,0,1,2.83-.848,4.934,4.934,0,0,1,3.023.853,2.666,2.666,0,0,1,1.143,2.241H75.823q0-1.143-1.2-1.143a1.194,1.194,0,0,0-.782.259.8.8,0,0,0-.316.646.737.737,0,0,0,.387.642,3.654,3.654,0,0,0,1.235.4,10.671,10.671,0,0,1,1.49.378,2.706,2.706,0,0,1,2.145,2.646,2.491,2.491,0,0,1-1.156,2.118,5.068,5.068,0,0,1-2.993.817,5.172,5.172,0,0,1-2.18-.439,3.645,3.645,0,0,1-1.494-1.2,2.707,2.707,0,0,1-.536-1.591h2.769a1.145,1.145,0,0,0,.439.962,1.808,1.808,0,0,0,1.081.3,1.422,1.422,0,0,0,.91-.246A.787.787,0,0,0,75.92,89.328Zm-70.11,25a.684.684,0,0,0-.4-.606,6.016,6.016,0,0,0-1.5-.475,6.853,6.853,0,0,1-1.828-.646,3.062,3.062,0,0,1-1.1-.971,2.319,2.319,0,0,1-.378-1.31,2.628,2.628,0,0,1,1.081-2.158,4.453,4.453,0,0,1,2.83-.848,4.934,4.934,0,0,1,3.023.853,2.666,2.666,0,0,1,1.143,2.241H5.713q0-1.143-1.2-1.143a1.194,1.194,0,0,0-.782.259.8.8,0,0,0-.316.646.737.737,0,0,0,.387.642,3.654,3.654,0,0,0,1.235.4,10.671,10.671,0,0,1,1.49.378,2.706,2.706,0,0,1,2.145,2.646,2.491,2.491,0,0,1-1.156,2.118,5.068,5.068,0,0,1-2.993.817,5.172,5.172,0,0,1-2.18-.439,3.645,3.645,0,0,1-1.494-1.2,2.707,2.707,0,0,1-.536-1.591H3.076a1.145,1.145,0,0,0,.439.962,1.808,1.808,0,0,0,1.081.3,1.422,1.422,0,0,0,.91-.246A.787.787,0,0,0,5.81,114.328Zm9.6,2.672a3.344,3.344,0,0,1-.281-.853,2.754,2.754,0,0,1-2.285,1.028,3.374,3.374,0,0,1-2.285-.813,2.588,2.588,0,0,1-.94-2.043,2.66,2.66,0,0,1,1.143-2.338,5.821,5.821,0,0,1,3.322-.791h.914v-.5q0-1.316-1.134-1.316a.927.927,0,0,0-1.055,1.042H9.844a2.655,2.655,0,0,1,1.173-2.239,4.931,4.931,0,0,1,2.993-.86,4.323,4.323,0,0,1,2.874.888,3.086,3.086,0,0,1,1.081,2.435v4.21a4.311,4.311,0,0,0,.4,2V117Zm-1.854-1.934a1.652,1.652,0,0,0,.918-.237,1.487,1.487,0,0,0,.523-.536v-1.521h-.861q-1.547,0-1.547,1.389a.848.848,0,0,0,.272.655A.986.986,0,0,0,13.553,115.066Zm9.5-9.94v2.364h1.564v2.057H23.054V113.9a1.111,1.111,0,0,0,.193.747,1.037,1.037,0,0,0,.765.211,4.345,4.345,0,0,0,.738-.053v2.118a5.466,5.466,0,0,1-1.67.255,3.1,3.1,0,0,1-2.259-.721,2.954,2.954,0,0,1-.729-2.188v-4.72H18.879V107.49h1.213v-2.364Zm7.33,12.05a4.889,4.889,0,0,1-3.542-1.305,4.507,4.507,0,0,1-1.354-3.4v-.246a5.84,5.84,0,0,1,.541-2.575,3.955,3.955,0,0,1,1.578-1.727,4.763,4.763,0,0,1,2.461-.611,4.117,4.117,0,0,1,3.164,1.244,4.887,4.887,0,0,1,1.16,3.467v1.151H28.5a2.135,2.135,0,0,0,.694,1.257,2.066,2.066,0,0,0,1.389.457,2.662,2.662,0,0,0,2.2-.984l1.354,1.6a3.784,3.784,0,0,1-1.569,1.217A5.3,5.3,0,0,1,30.384,117.176ZM30.05,109.6q-1.3,0-1.547,1.723h2.988v-.229a1.467,1.467,0,0,0-.36-1.1A1.434,1.434,0,0,0,30.05,109.6Zm8.657,7.4H35.736V103.5h2.971Zm4.948,0H40.685v-9.51h2.971Zm-3.146-11.971a1.334,1.334,0,0,1,.457-1.043,1.934,1.934,0,0,1,2.373,0,1.42,1.42,0,0,1,0,2.087,1.934,1.934,0,0,1-2.373,0A1.334,1.334,0,0,1,40.509,105.029Zm8.42.1v2.364h1.564v2.057H48.929V113.9a1.111,1.111,0,0,0,.193.747,1.037,1.037,0,0,0,.765.211,4.345,4.345,0,0,0,.738-.053v2.118a5.466,5.466,0,0,1-1.67.255,3.1,3.1,0,0,1-2.259-.721,2.954,2.954,0,0,1-.729-2.188v-4.72H44.754V107.49h1.213v-2.364ZM57.015,117a3.344,3.344,0,0,1-.281-.853,2.754,2.754,0,0,1-2.285,1.028,3.374,3.374,0,0,1-2.285-.813,2.588,2.588,0,0,1-.94-2.043,2.66,2.66,0,0,1,1.143-2.338,5.821,5.821,0,0,1,3.322-.791H56.6v-.5q0-1.316-1.134-1.316a.927.927,0,0,0-1.055,1.042H51.451a2.655,2.655,0,0,1,1.173-2.239,4.931,4.931,0,0,1,2.993-.86,4.323,4.323,0,0,1,2.874.888,3.086,3.086,0,0,1,1.081,2.435v4.21a4.311,4.311,0,0,0,.4,2V117Zm-1.854-1.934a1.652,1.652,0,0,0,.918-.237,1.487,1.487,0,0,0,.523-.536v-1.521H55.74q-1.547,0-1.547,1.389a.848.848,0,0,0,.272.655A.986.986,0,0,0,55.16,115.066ZM64.336,117H61.365V103.5h2.971Zm6.425.176a4.889,4.889,0,0,1-3.542-1.305,4.507,4.507,0,0,1-1.354-3.4v-.246a5.84,5.84,0,0,1,.541-2.575,3.955,3.955,0,0,1,1.578-1.727,4.763,4.763,0,0,1,2.461-.611,4.117,4.117,0,0,1,3.164,1.244,4.887,4.887,0,0,1,1.16,3.467v1.151H68.88a2.135,2.135,0,0,0,.694,1.257,2.066,2.066,0,0,0,1.389.457,2.662,2.662,0,0,0,2.2-.984l1.354,1.6a3.784,3.784,0,0,1-1.569,1.217A5.3,5.3,0,0,1,70.761,117.176Zm-.334-7.576q-1.3,0-1.547,1.723h2.988v-.229a1.467,1.467,0,0,0-.36-1.1A1.434,1.434,0,0,0,70.427,109.6Zm10.512,4.729a.684.684,0,0,0-.4-.606,6.016,6.016,0,0,0-1.5-.475,6.853,6.853,0,0,1-1.828-.646,3.062,3.062,0,0,1-1.1-.971,2.319,2.319,0,0,1-.378-1.31,2.628,2.628,0,0,1,1.081-2.158,4.453,4.453,0,0,1,2.83-.848,4.934,4.934,0,0,1,3.023.853,2.666,2.666,0,0,1,1.143,2.241H80.842q0-1.143-1.2-1.143a1.194,1.194,0,0,0-.782.259.8.8,0,0,0-.316.646.737.737,0,0,0,.387.642,3.654,3.654,0,0,0,1.235.4,10.671,10.671,0,0,1,1.49.378,2.706,2.706,0,0,1,2.145,2.646,2.491,2.491,0,0,1-1.156,2.118,5.068,5.068,0,0,1-2.993.817,5.172,5.172,0,0,1-2.18-.439,3.645,3.645,0,0,1-1.494-1.2,2.707,2.707,0,0,1-.536-1.591h2.769a1.145,1.145,0,0,0,.439.962,1.808,1.808,0,0,0,1.081.3,1.422,1.422,0,0,0,.91-.246A.787.787,0,0,0,80.938,114.328Zm8.912-2.285a12.532,12.532,0,0,1-.606,3.92,10.008,10.008,0,0,1-1.674,3.186,5.574,5.574,0,0,1-2.307,1.806L84.7,119.5a5.787,5.787,0,0,0,1.89-2.812,13.577,13.577,0,0,0,.694-4.368v-.536a14.051,14.051,0,0,0-.672-4.588,5.706,5.706,0,0,0-1.912-2.848l.563-1.459a5.676,5.676,0,0,1,2.29,1.789,9.885,9.885,0,0,1,1.67,3.138,12.426,12.426,0,0,1,.628,3.845ZM.967,142V129.2h4.6a6.509,6.509,0,0,1,3.757.905,3.012,3.012,0,0,1,1.288,2.628,3.045,3.045,0,0,1-.457,1.7,2.663,2.663,0,0,1-1.345,1.037,2.7,2.7,0,0,1,1.538.984,2.862,2.862,0,0,1,.536,1.758,3.388,3.388,0,0,1-1.191,2.826A5.667,5.667,0,0,1,6.161,142Zm3.085-5.44v3.067H6.073a1.923,1.923,0,0,0,1.283-.382,1.338,1.338,0,0,0,.448-1.077,1.419,1.419,0,0,0-1.591-1.608Zm0-2.021H5.66a2.285,2.285,0,0,0,1.441-.37,1.314,1.314,0,0,0,.431-1.067,1.379,1.379,0,0,0-.466-1.168,2.493,2.493,0,0,0-1.5-.357H4.052ZM17.8,142a3.344,3.344,0,0,1-.281-.853,2.754,2.754,0,0,1-2.285,1.028,3.374,3.374,0,0,1-2.285-.813,2.588,2.588,0,0,1-.94-2.043,2.66,2.66,0,0,1,1.143-2.338,5.821,5.821,0,0,1,3.322-.791h.914v-.5q0-1.316-1.134-1.316a.927.927,0,0,0-1.055,1.042H12.234a2.655,2.655,0,0,1,1.173-2.239,4.931,4.931,0,0,1,2.993-.86,4.323,4.323,0,0,1,2.874.888,3.086,3.086,0,0,1,1.081,2.435v4.21a4.311,4.311,0,0,0,.4,2V142Zm-1.854-1.934a1.652,1.652,0,0,0,.918-.237,1.487,1.487,0,0,0,.523-.536v-1.521h-.861q-1.547,0-1.547,1.389a.848.848,0,0,0,.272.655A.986.986,0,0,0,15.943,140.066Zm11.03-.738a.684.684,0,0,0-.4-.606,6.016,6.016,0,0,0-1.5-.475,6.853,6.853,0,0,1-1.828-.646,3.062,3.062,0,0,1-1.1-.971,2.319,2.319,0,0,1-.378-1.31,2.628,2.628,0,0,1,1.081-2.158,4.453,4.453,0,0,1,2.83-.848,4.934,4.934,0,0,1,3.023.853,2.666,2.666,0,0,1,1.143,2.241H26.877q0-1.143-1.2-1.143a1.194,1.194,0,0,0-.782.259.8.8,0,0,0-.316.646.737.737,0,0,0,.387.642,3.654,3.654,0,0,0,1.235.4,10.671,10.671,0,0,1,1.49.378,2.706,2.706,0,0,1,2.145,2.646,2.491,2.491,0,0,1-1.156,2.118,5.068,5.068,0,0,1-2.993.817,5.172,5.172,0,0,1-2.18-.439,3.645,3.645,0,0,1-1.494-1.2,2.707,2.707,0,0,1-.536-1.591H24.24a1.145,1.145,0,0,0,.439.962,1.808,1.808,0,0,0,1.081.3,1.422,1.422,0,0,0,.91-.246A.787.787,0,0,0,26.974,139.328Zm8.842,2.848a4.889,4.889,0,0,1-3.542-1.305,4.507,4.507,0,0,1-1.354-3.4v-.246a5.84,5.84,0,0,1,.541-2.575,3.955,3.955,0,0,1,1.578-1.727,4.763,4.763,0,0,1,2.461-.611,4.117,4.117,0,0,1,3.164,1.244,4.887,4.887,0,0,1,1.16,3.467v1.151H33.935a2.135,2.135,0,0,0,.694,1.257,2.066,2.066,0,0,0,1.389.457,2.662,2.662,0,0,0,2.2-.984l1.354,1.6A3.784,3.784,0,0,1,38,141.723,5.3,5.3,0,0,1,35.815,142.176Zm-.334-7.576q-1.3,0-1.547,1.723h2.988v-.229a1.467,1.467,0,0,0-.36-1.1A1.434,1.434,0,0,0,35.481,134.6Zm10.512,4.729a.684.684,0,0,0-.4-.606,6.016,6.016,0,0,0-1.5-.475,6.853,6.853,0,0,1-1.828-.646,3.062,3.062,0,0,1-1.1-.971,2.319,2.319,0,0,1-.378-1.31,2.628,2.628,0,0,1,1.081-2.158,4.453,4.453,0,0,1,2.83-.848,4.934,4.934,0,0,1,3.023.853,2.666,2.666,0,0,1,1.143,2.241H45.9q0-1.143-1.2-1.143a1.194,1.194,0,0,0-.782.259.8.8,0,0,0-.316.646.737.737,0,0,0,.387.642,3.654,3.654,0,0,0,1.235.4,10.671,10.671,0,0,1,1.49.378,2.706,2.706,0,0,1,2.145,2.646,2.491,2.491,0,0,1-1.156,2.118,5.068,5.068,0,0,1-2.993.817,5.172,5.172,0,0,1-2.18-.439,3.645,3.645,0,0,1-1.494-1.2,2.707,2.707,0,0,1-.536-1.591H43.26a1.145,1.145,0,0,0,.439.962,1.808,1.808,0,0,0,1.081.3,1.422,1.422,0,0,0,.91-.246A.787.787,0,0,0,45.993,139.328Zm8.35-2.153a5.809,5.809,0,0,1,.976-3.56,3.211,3.211,0,0,1,2.725-1.3,2.731,2.731,0,0,1,2.145,1V128.5h2.971V142H60.5l-.149-1.02a2.8,2.8,0,0,1-2.32,1.2,3.205,3.205,0,0,1-2.689-1.3A5.993,5.993,0,0,1,54.343,137.175Zm2.962.185q0,2.531,1.477,2.531a1.458,1.458,0,0,0,1.406-.826v-3.621A1.419,1.419,0,0,0,58.8,134.6q-1.371,0-1.485,2.215Zm12.138,4.816a4.889,4.889,0,0,1-3.542-1.305,4.507,4.507,0,0,1-1.354-3.4v-.246a5.84,5.84,0,0,1,.541-2.575,3.955,3.955,0,0,1,1.578-1.727,4.763,4.763,0,0,1,2.461-.611,4.117,4.117,0,0,1,3.164,1.244,4.887,4.887,0,0,1,1.16,3.467v1.151H67.562a2.135,2.135,0,0,0,.694,1.257,2.066,2.066,0,0,0,1.389.457,2.662,2.662,0,0,0,2.2-.984l1.354,1.6a3.784,3.784,0,0,1-1.569,1.217A5.3,5.3,0,0,1,69.442,142.176Zm-.334-7.576q-1.3,0-1.547,1.723H70.55v-.229a1.467,1.467,0,0,0-.36-1.1A1.434,1.434,0,0,0,69.108,134.6Zm9.642,2.575a5.809,5.809,0,0,1,.976-3.56,3.211,3.211,0,0,1,2.725-1.3,2.731,2.731,0,0,1,2.145,1V128.5h2.971V142H84.9l-.149-1.02a2.8,2.8,0,0,1-2.32,1.2,3.205,3.205,0,0,1-2.689-1.3A5.993,5.993,0,0,1,78.75,137.175Zm2.962.185q0,2.531,1.477,2.531a1.458,1.458,0,0,0,1.406-.826v-3.621a1.419,1.419,0,0,0-1.389-.844q-1.371,0-1.485,2.215ZM94.605,142a3.344,3.344,0,0,1-.281-.853,2.754,2.754,0,0,1-2.285,1.028,3.374,3.374,0,0,1-2.285-.813,2.588,2.588,0,0,1-.94-2.043,2.66,2.66,0,0,1,1.143-2.338,5.821,5.821,0,0,1,3.322-.791h.914v-.5q0-1.316-1.134-1.316A.927.927,0,0,0,92,135.413H89.042a2.655,2.655,0,0,1,1.173-2.239,4.931,4.931,0,0,1,2.993-.86,4.323,4.323,0,0,1,2.874.888,3.086,3.086,0,0,1,1.081,2.435v4.21a4.311,4.311,0,0,0,.4,2V142Zm-1.854-1.934a1.652,1.652,0,0,0,.918-.237,1.487,1.487,0,0,0,.523-.536v-1.521h-.861q-1.547,0-1.547,1.389a.848.848,0,0,0,.272.655A.986.986,0,0,0,92.751,140.066Zm9.5-9.94v2.364h1.564v2.057h-1.564V138.9a1.111,1.111,0,0,0,.193.747,1.037,1.037,0,0,0,.765.211,4.345,4.345,0,0,0,.738-.053v2.118a5.466,5.466,0,0,1-1.67.255,3.1,3.1,0,0,1-2.259-.721,2.954,2.954,0,0,1-.729-2.188v-4.72H98.077V132.49H99.29v-2.364Zm2.092,7.031a5.613,5.613,0,0,1,.554-2.536,3.96,3.96,0,0,1,1.591-1.709,4.791,4.791,0,0,1,2.435-.6,4.373,4.373,0,0,1,3.366,1.323,5.076,5.076,0,0,1,1.23,3.6v.105a4.925,4.925,0,0,1-1.235,3.529,4.384,4.384,0,0,1-3.344,1.305,4.434,4.434,0,0,1-3.261-1.217,4.761,4.761,0,0,1-1.327-3.3Zm2.962.185a3.538,3.538,0,0,0,.413,1.934,1.376,1.376,0,0,0,1.222.615q1.582,0,1.617-2.435v-.3q0-2.558-1.635-2.558-1.485,0-1.608,2.206Zm12.5,1.986a.684.684,0,0,0-.4-.606,6.016,6.016,0,0,0-1.5-.475,6.853,6.853,0,0,1-1.828-.646,3.062,3.062,0,0,1-1.1-.971,2.319,2.319,0,0,1-.378-1.31,2.628,2.628,0,0,1,1.081-2.158,4.453,4.453,0,0,1,2.83-.848,4.934,4.934,0,0,1,3.023.853,2.666,2.666,0,0,1,1.143,2.241h-2.971q0-1.143-1.2-1.143a1.194,1.194,0,0,0-.782.259.8.8,0,0,0-.316.646.737.737,0,0,0,.387.642,3.654,3.654,0,0,0,1.235.4,10.671,10.671,0,0,1,1.49.378,2.706,2.706,0,0,1,2.145,2.646,2.491,2.491,0,0,1-1.156,2.118,5.068,5.068,0,0,1-2.993.817,5.172,5.172,0,0,1-2.18-.439,3.645,3.645,0,0,1-1.494-1.2,2.707,2.707,0,0,1-.536-1.591h2.769a1.145,1.145,0,0,0,.439.962,1.808,1.808,0,0,0,1.081.3,1.422,1.422,0,0,0,.91-.246A.787.787,0,0,0,119.8,139.328Z" transform="translate(62.008 444.79)" fill="#12263f"/>
      <path id="Trazado_141821" data-name="Trazado 141821" d="M8.9,11.568H4.052v3.059h5.73V17H.967V4.2H9.8V6.585H4.052v2.7H8.9Zm1.459.58A5.709,5.709,0,0,1,11.347,8.6a3.233,3.233,0,0,1,2.716-1.283A2.761,2.761,0,0,1,16.4,8.51l.211-1.02h2.566V20.656H16.207V16.209a2.757,2.757,0,0,1-2.162.967,3.2,3.2,0,0,1-2.685-1.305A6.027,6.027,0,0,1,10.362,12.148Zm2.962.185q0,2.558,1.477,2.558a1.43,1.43,0,0,0,1.406-.773V10.355A1.4,1.4,0,0,0,14.818,9.6q-1.38,0-1.485,2.206Zm13.192,3.639a3.054,3.054,0,0,1-2.54,1.2,3,3,0,0,1-2.369-.91,3.826,3.826,0,0,1-.8-2.615V7.49h2.962v6.179a1.065,1.065,0,0,0,1.187,1.222,1.548,1.548,0,0,0,1.45-.729V7.49h2.979V17H26.6ZM34.128,17H31.157V7.49h2.971ZM30.981,5.029a1.334,1.334,0,0,1,.457-1.043,1.934,1.934,0,0,1,2.373,0,1.334,1.334,0,0,1,.457,1.043,1.334,1.334,0,0,1-.457,1.043,1.934,1.934,0,0,1-2.373,0A1.334,1.334,0,0,1,30.981,5.029Zm13.8,7.286a5.735,5.735,0,0,1-1,3.538,3.2,3.2,0,0,1-2.694,1.323,2.742,2.742,0,0,1-2.153-.958v4.438H35.974V7.49h2.769l.088.879a2.742,2.742,0,0,1,2.241-1.055,3.224,3.224,0,0,1,2.733,1.3,5.805,5.805,0,0,1,.976,3.564Zm-2.962-.185q0-2.531-1.477-2.531a1.394,1.394,0,0,0-1.406.756V14.1a1.439,1.439,0,0,0,1.424.791q1.415,0,1.459-2.443Zm3.894.026a5.613,5.613,0,0,1,.554-2.536,3.96,3.96,0,0,1,1.591-1.709,4.791,4.791,0,0,1,2.435-.6,4.373,4.373,0,0,1,3.366,1.323,5.076,5.076,0,0,1,1.23,3.6v.105a4.925,4.925,0,0,1-1.235,3.529,4.384,4.384,0,0,1-3.344,1.305,4.434,4.434,0,0,1-3.261-1.217,4.761,4.761,0,0,1-1.327-3.3Zm2.962.185a3.538,3.538,0,0,0,.413,1.934,1.376,1.376,0,0,0,1.222.615q1.582,0,1.617-2.435v-.3q0-2.558-1.635-2.558-1.485,0-1.608,2.206Zm12.5,1.986a.684.684,0,0,0-.4-.606,6.016,6.016,0,0,0-1.5-.475,6.853,6.853,0,0,1-1.828-.646,3.062,3.062,0,0,1-1.1-.971,2.319,2.319,0,0,1-.378-1.31A2.628,2.628,0,0,1,57.05,8.163a4.453,4.453,0,0,1,2.83-.848,4.934,4.934,0,0,1,3.023.853,2.666,2.666,0,0,1,1.143,2.241H61.075q0-1.143-1.2-1.143a1.194,1.194,0,0,0-.782.259.8.8,0,0,0-.316.646.737.737,0,0,0,.387.642,3.654,3.654,0,0,0,1.235.4,10.671,10.671,0,0,1,1.49.378,2.706,2.706,0,0,1,2.145,2.646,2.491,2.491,0,0,1-1.156,2.118,5.068,5.068,0,0,1-2.993.817,5.172,5.172,0,0,1-2.18-.439,3.645,3.645,0,0,1-1.494-1.2,2.707,2.707,0,0,1-.536-1.591h2.769a1.145,1.145,0,0,0,.439.962,1.808,1.808,0,0,0,1.081.3,1.422,1.422,0,0,0,.91-.246A.787.787,0,0,0,61.172,14.328Zm8.35-2.153a5.809,5.809,0,0,1,.976-3.56,3.211,3.211,0,0,1,2.725-1.3,2.731,2.731,0,0,1,2.145,1V3.5h2.971V17H75.674l-.149-1.02a2.8,2.8,0,0,1-2.32,1.2,3.205,3.205,0,0,1-2.689-1.3A5.993,5.993,0,0,1,69.521,12.175Zm2.962.185q0,2.531,1.477,2.531a1.458,1.458,0,0,0,1.406-.826V10.443A1.419,1.419,0,0,0,73.978,9.6q-1.371,0-1.485,2.215Zm12.138,4.816a4.889,4.889,0,0,1-3.542-1.305,4.507,4.507,0,0,1-1.354-3.4v-.246a5.84,5.84,0,0,1,.541-2.575,3.955,3.955,0,0,1,1.578-1.727A4.763,4.763,0,0,1,84.3,7.314a4.117,4.117,0,0,1,3.164,1.244,4.887,4.887,0,0,1,1.16,3.467v1.151H82.74a2.135,2.135,0,0,0,.694,1.257,2.066,2.066,0,0,0,1.389.457,2.662,2.662,0,0,0,2.2-.984l1.354,1.6a3.784,3.784,0,0,1-1.569,1.217A5.3,5.3,0,0,1,84.621,17.176ZM84.287,9.6q-1.3,0-1.547,1.723h2.988v-.229a1.467,1.467,0,0,0-.36-1.1A1.434,1.434,0,0,0,84.287,9.6Zm14.036,5.291a1.317,1.317,0,0,0,.967-.338,1.241,1.241,0,0,0,.334-.945H102.4a3.288,3.288,0,0,1-1.121,2.566,4.168,4.168,0,0,1-2.887,1,4.22,4.22,0,0,1-3.27-1.3,5.125,5.125,0,0,1-1.2-3.6v-.123A5.792,5.792,0,0,1,94.46,9.6a3.872,3.872,0,0,1,1.534-1.7,4.573,4.573,0,0,1,2.373-.593,4.116,4.116,0,0,1,2.944,1.028,3.647,3.647,0,0,1,1.09,2.786H99.624A1.626,1.626,0,0,0,99.264,10a1.244,1.244,0,0,0-.967-.4q-1.151,0-1.345,1.468a10.357,10.357,0,0,0-.062,1.283,4.068,4.068,0,0,0,.343,1.986A1.187,1.187,0,0,0,98.323,14.891Zm4.957-2.733a5.613,5.613,0,0,1,.554-2.536,3.96,3.96,0,0,1,1.591-1.709,4.791,4.791,0,0,1,2.435-.6,4.373,4.373,0,0,1,3.366,1.323,5.076,5.076,0,0,1,1.23,3.6v.105a4.925,4.925,0,0,1-1.235,3.529,4.384,4.384,0,0,1-3.344,1.305,4.434,4.434,0,0,1-3.261-1.217,4.761,4.761,0,0,1-1.327-3.3Zm2.962.185a3.538,3.538,0,0,0,.413,1.934,1.376,1.376,0,0,0,1.222.615q1.582,0,1.617-2.435v-.3q0-2.558-1.635-2.558-1.485,0-1.608,2.206ZM108.264,3.5h3.129l-2.443,2.76-2.417,0Zm8.3,3.99.1,1.116a3.27,3.27,0,0,1,2.716-1.292,2.407,2.407,0,0,1,2.435,1.433A3.165,3.165,0,0,1,124.6,7.314q2.892,0,2.971,3.5V17H124.6V11a1.813,1.813,0,0,0-.246-1.063,1.048,1.048,0,0,0-.9-.334,1.4,1.4,0,0,0-1.31.782l.009.123V17h-2.971V11.015a1.906,1.906,0,0,0-.237-1.081,1.045,1.045,0,0,0-.905-.334,1.42,1.42,0,0,0-1.3.782V17h-2.962V7.49Zm21.533,4.825a5.735,5.735,0,0,1-1,3.538,3.2,3.2,0,0,1-2.694,1.323,2.742,2.742,0,0,1-2.153-.958v4.438h-2.962V7.49h2.769l.088.879a2.742,2.742,0,0,1,2.241-1.055,3.224,3.224,0,0,1,2.733,1.3,5.805,5.805,0,0,1,.976,3.564Zm-2.962-.185q0-2.531-1.477-2.531a1.394,1.394,0,0,0-1.406.756V14.1a1.439,1.439,0,0,0,1.424.791q1.415,0,1.459-2.443Zm9.932,3.841a3.054,3.054,0,0,1-2.54,1.2,3,3,0,0,1-2.369-.91,3.826,3.826,0,0,1-.8-2.615V7.49h2.962v6.179a1.065,1.065,0,0,0,1.187,1.222,1.548,1.548,0,0,0,1.45-.729V7.49h2.979V17h-2.777ZM153,5.126V7.49h1.564V9.547H153V13.9a1.111,1.111,0,0,0,.193.747,1.037,1.037,0,0,0,.765.211,4.345,4.345,0,0,0,.738-.053v2.118a5.466,5.466,0,0,1-1.67.255,3.1,3.1,0,0,1-2.259-.721,2.954,2.954,0,0,1-.729-2.188V9.547h-1.213V7.49h1.213V5.126Zm2.092,7.031a5.613,5.613,0,0,1,.554-2.536,3.96,3.96,0,0,1,1.591-1.709,4.791,4.791,0,0,1,2.435-.6,4.373,4.373,0,0,1,3.366,1.323,5.076,5.076,0,0,1,1.23,3.6v.105a4.925,4.925,0,0,1-1.235,3.529,4.384,4.384,0,0,1-3.344,1.305,4.434,4.434,0,0,1-3.261-1.217,4.761,4.761,0,0,1-1.327-3.3Zm2.962.185a3.538,3.538,0,0,0,.413,1.934,1.376,1.376,0,0,0,1.222.615q1.582,0,1.617-2.435v-.3q0-2.558-1.635-2.558-1.485,0-1.608,2.206ZM11.443,40.418A4.96,4.96,0,0,1,9.36,41.692a8.984,8.984,0,0,1-3.006.483,5.36,5.36,0,0,1-4.017-1.538,6.226,6.226,0,0,1-1.608-4.28L.721,35.25a7.637,7.637,0,0,1,.668-3.3A4.96,4.96,0,0,1,3.3,29.779a5.407,5.407,0,0,1,2.878-.76,5.669,5.669,0,0,1,3.713,1.094,4.637,4.637,0,0,1,1.542,3.265H8.464a2.426,2.426,0,0,0-.686-1.529,2.212,2.212,0,0,0-1.494-.457,2.013,2.013,0,0,0-1.793.984,5.256,5.256,0,0,0-.642,2.813v.773A5.145,5.145,0,0,0,4.5,38.84a2.316,2.316,0,0,0,2.061.962,2.592,2.592,0,0,0,1.793-.536V37.28H6.214V35.162h5.229Zm4.878-2.76V42H13.236V29.2h5.106a5.948,5.948,0,0,1,2.6.541,4.074,4.074,0,0,1,1.749,1.538,4.2,4.2,0,0,1,.62,2.263,3.7,3.7,0,0,1-1.34,2.993,5.561,5.561,0,0,1-3.678,1.121Zm0-2.382h2.021a1.906,1.906,0,0,0,1.367-.448,1.665,1.665,0,0,0,.47-1.266A2.059,2.059,0,0,0,19.7,32.13a1.712,1.712,0,0,0-1.318-.545H16.321ZM31.553,38.6a1.268,1.268,0,0,0-.479-1.055,5.954,5.954,0,0,0-1.683-.782,16.147,16.147,0,0,1-1.969-.782q-2.487-1.222-2.487-3.357a3.011,3.011,0,0,1,.62-1.876,4.008,4.008,0,0,1,1.753-1.266,6.823,6.823,0,0,1,2.549-.453,5.969,5.969,0,0,1,2.474.492,3.917,3.917,0,0,1,1.7,1.4A3.661,3.661,0,0,1,34.638,33H31.562a1.547,1.547,0,0,0-.479-1.213,1.867,1.867,0,0,0-1.3-.431,2.106,2.106,0,0,0-1.305.365,1.074,1.074,0,0,0,.048,1.819,6.65,6.65,0,0,0,1.854.826,11.36,11.36,0,0,1,2.18.918,3.663,3.663,0,0,1,2.074,3.3,3.125,3.125,0,0,1-1.266,2.637,5.629,5.629,0,0,1-3.472.958,6.888,6.888,0,0,1-2.817-.558,4.247,4.247,0,0,1-1.9-1.529,3.985,3.985,0,0,1-.637-2.237h3.094a1.963,1.963,0,0,0,.532,1.516,2.513,2.513,0,0,0,1.727.488,1.985,1.985,0,0,0,1.208-.33A1.088,1.088,0,0,0,31.553,38.6ZM7.567,63.6a1.268,1.268,0,0,0-.479-1.055,5.954,5.954,0,0,0-1.683-.782,16.147,16.147,0,0,1-1.969-.782Q.949,59.758.949,57.622a3.011,3.011,0,0,1,.62-1.876A4.008,4.008,0,0,1,3.322,54.48a6.823,6.823,0,0,1,2.549-.453,5.969,5.969,0,0,1,2.474.492,3.917,3.917,0,0,1,1.7,1.4A3.661,3.661,0,0,1,10.652,58H7.576A1.547,1.547,0,0,0,7.1,56.787a1.867,1.867,0,0,0-1.3-.431,2.106,2.106,0,0,0-1.305.365,1.074,1.074,0,0,0,.048,1.819,6.65,6.65,0,0,0,1.854.826,11.36,11.36,0,0,1,2.18.918,3.663,3.663,0,0,1,2.074,3.3,3.125,3.125,0,0,1-1.266,2.637,5.629,5.629,0,0,1-3.472.958A6.888,6.888,0,0,1,3.1,66.618a4.247,4.247,0,0,1-1.9-1.529,3.985,3.985,0,0,1-.637-2.237H3.656a1.963,1.963,0,0,0,.532,1.516,2.513,2.513,0,0,0,1.727.488,1.985,1.985,0,0,0,1.208-.33A1.088,1.088,0,0,0,7.567,63.6ZM16.7,67.176a4.889,4.889,0,0,1-3.542-1.305,4.507,4.507,0,0,1-1.354-3.4v-.246a5.84,5.84,0,0,1,.541-2.575,3.955,3.955,0,0,1,1.578-1.727,4.763,4.763,0,0,1,2.461-.611,4.117,4.117,0,0,1,3.164,1.244,4.887,4.887,0,0,1,1.16,3.467v1.151H14.818a2.135,2.135,0,0,0,.694,1.257,2.066,2.066,0,0,0,1.389.457,2.662,2.662,0,0,0,2.2-.984l1.354,1.6a3.784,3.784,0,0,1-1.569,1.217A5.3,5.3,0,0,1,16.7,67.176ZM16.365,59.6q-1.3,0-1.547,1.723h2.988v-.229a1.467,1.467,0,0,0-.36-1.1A1.434,1.434,0,0,0,16.365,59.6Zm11.285.571-.976-.07a1.752,1.752,0,0,0-1.793.879V67H21.92V57.49H24.7l.1,1.222a2.294,2.294,0,0,1,2.083-1.4,2.888,2.888,0,0,1,.826.105Zm5.019,3.3,1.5-5.985h3.12L34.189,67H31.166l-3.1-9.51h3.129ZM41.3,67H38.329V57.49H41.3ZM38.153,55.029a1.334,1.334,0,0,1,.457-1.043,1.934,1.934,0,0,1,2.373,0,1.42,1.42,0,0,1,0,2.087,1.934,1.934,0,0,1-2.373,0A1.334,1.334,0,0,1,38.153,55.029Zm4.6,7.146a5.809,5.809,0,0,1,.976-3.56,3.211,3.211,0,0,1,2.725-1.3,2.731,2.731,0,0,1,2.145,1V53.5h2.971V67H48.9l-.149-1.02a2.8,2.8,0,0,1-2.32,1.2,3.205,3.205,0,0,1-2.689-1.3A5.993,5.993,0,0,1,42.75,62.175Zm2.962.185q0,2.531,1.477,2.531a1.458,1.458,0,0,0,1.406-.826V60.443a1.419,1.419,0,0,0-1.389-.844q-1.371,0-1.485,2.215Zm7.163-.2a5.613,5.613,0,0,1,.554-2.536,3.96,3.96,0,0,1,1.591-1.709,4.791,4.791,0,0,1,2.435-.6,4.373,4.373,0,0,1,3.366,1.323,5.076,5.076,0,0,1,1.23,3.6v.105a4.925,4.925,0,0,1-1.235,3.529,4.384,4.384,0,0,1-3.344,1.305,4.434,4.434,0,0,1-3.261-1.217,4.761,4.761,0,0,1-1.327-3.3Zm2.962.185a3.538,3.538,0,0,0,.413,1.934,1.376,1.376,0,0,0,1.222.615q1.582,0,1.617-2.435v-.3q0-2.558-1.635-2.558-1.485,0-1.608,2.206Zm13.271-2.171-.976-.07a1.752,1.752,0,0,0-1.793.879V67H63.378V57.49h2.777l.1,1.222a2.294,2.294,0,0,1,2.083-1.4,2.888,2.888,0,0,1,.826.105Zm5.5,7a4.889,4.889,0,0,1-3.542-1.305,4.507,4.507,0,0,1-1.354-3.4v-.246a5.84,5.84,0,0,1,.541-2.575,3.955,3.955,0,0,1,1.578-1.727,4.763,4.763,0,0,1,2.461-.611,4.117,4.117,0,0,1,3.164,1.244,4.887,4.887,0,0,1,1.16,3.467v1.151H72.729a2.135,2.135,0,0,0,.694,1.257,2.066,2.066,0,0,0,1.389.457,2.662,2.662,0,0,0,2.2-.984l1.354,1.6a3.784,3.784,0,0,1-1.569,1.217A5.3,5.3,0,0,1,74.61,67.176ZM74.276,59.6q-1.3,0-1.547,1.723h2.988v-.229a1.467,1.467,0,0,0-.36-1.1A1.434,1.434,0,0,0,74.276,59.6Zm10.512,4.729a.684.684,0,0,0-.4-.606,6.016,6.016,0,0,0-1.5-.475,6.853,6.853,0,0,1-1.828-.646,3.062,3.062,0,0,1-1.1-.971,2.319,2.319,0,0,1-.378-1.31,2.628,2.628,0,0,1,1.081-2.158,4.453,4.453,0,0,1,2.83-.848,4.934,4.934,0,0,1,3.023.853,2.666,2.666,0,0,1,1.143,2.241H84.691q0-1.143-1.2-1.143a1.194,1.194,0,0,0-.782.259.8.8,0,0,0-.316.646.737.737,0,0,0,.387.642,3.654,3.654,0,0,0,1.235.4,10.671,10.671,0,0,1,1.49.378,2.706,2.706,0,0,1,2.145,2.646,2.491,2.491,0,0,1-1.156,2.118,5.068,5.068,0,0,1-2.993.817,5.172,5.172,0,0,1-2.18-.439,3.645,3.645,0,0,1-1.494-1.2,2.707,2.707,0,0,1-.536-1.591h2.769a1.145,1.145,0,0,0,.439.962,1.808,1.808,0,0,0,1.081.3,1.422,1.422,0,0,0,.91-.246A.787.787,0,0,0,84.788,64.328ZM5.722,87.474H4.052V92H.967V79.2H6a5.621,5.621,0,0,1,3.56,1.01,3.421,3.421,0,0,1,1.283,2.853,4.155,4.155,0,0,1-.541,2.213A3.837,3.837,0,0,1,8.613,86.7l2.672,5.167V92H7.98ZM4.052,85.1H6a1.751,1.751,0,0,0,1.323-.463,1.788,1.788,0,0,0,.444-1.291,1.809,1.809,0,0,0-.448-1.3A1.735,1.735,0,0,0,6,81.576H4.052Zm13.122,7.075a4.889,4.889,0,0,1-3.542-1.305,4.507,4.507,0,0,1-1.354-3.4v-.246a5.84,5.84,0,0,1,.541-2.575A3.955,3.955,0,0,1,14.4,82.925a4.763,4.763,0,0,1,2.461-.611,4.117,4.117,0,0,1,3.164,1.244,4.887,4.887,0,0,1,1.16,3.467v1.151H15.293a2.135,2.135,0,0,0,.694,1.257,2.066,2.066,0,0,0,1.389.457,2.662,2.662,0,0,0,2.2-.984l1.354,1.6a3.784,3.784,0,0,1-1.569,1.217A5.3,5.3,0,0,1,17.174,92.176ZM16.84,84.6q-1.3,0-1.547,1.723h2.988v-.229a1.467,1.467,0,0,0-.36-1.1A1.434,1.434,0,0,0,16.84,84.6ZM22,87.175a5.809,5.809,0,0,1,.976-3.56,3.211,3.211,0,0,1,2.725-1.3,2.731,2.731,0,0,1,2.145,1V78.5h2.971V92H28.151L28,90.98a2.8,2.8,0,0,1-2.32,1.2,3.205,3.205,0,0,1-2.689-1.3A5.993,5.993,0,0,1,22,87.175Zm2.962.185q0,2.531,1.477,2.531a1.458,1.458,0,0,0,1.406-.826V85.443a1.419,1.419,0,0,0-1.389-.844q-1.371,0-1.485,2.215ZM37.1,92.176a4.889,4.889,0,0,1-3.542-1.305,4.507,4.507,0,0,1-1.354-3.4v-.246a5.84,5.84,0,0,1,.541-2.575,3.955,3.955,0,0,1,1.578-1.727,4.763,4.763,0,0,1,2.461-.611,4.117,4.117,0,0,1,3.164,1.244,4.887,4.887,0,0,1,1.16,3.467v1.151H35.218a2.135,2.135,0,0,0,.694,1.257,2.066,2.066,0,0,0,1.389.457,2.662,2.662,0,0,0,2.2-.984l1.354,1.6a3.784,3.784,0,0,1-1.569,1.217A5.3,5.3,0,0,1,37.1,92.176ZM36.765,84.6q-1.3,0-1.547,1.723h2.988v-.229a1.467,1.467,0,0,0-.36-1.1A1.434,1.434,0,0,0,36.765,84.6Zm10.512,4.729a.684.684,0,0,0-.4-.606,6.016,6.016,0,0,0-1.5-.475A6.853,6.853,0,0,1,43.55,87.6a3.062,3.062,0,0,1-1.1-.971,2.319,2.319,0,0,1-.378-1.31,2.628,2.628,0,0,1,1.081-2.158,4.453,4.453,0,0,1,2.83-.848,4.934,4.934,0,0,1,3.023.853,2.666,2.666,0,0,1,1.143,2.241H47.18q0-1.143-1.2-1.143a1.194,1.194,0,0,0-.782.259.8.8,0,0,0-.316.646.737.737,0,0,0,.387.642,3.654,3.654,0,0,0,1.235.4,10.671,10.671,0,0,1,1.49.378,2.706,2.706,0,0,1,2.145,2.646,2.491,2.491,0,0,1-1.156,2.118,5.068,5.068,0,0,1-2.993.817,5.172,5.172,0,0,1-2.18-.439,3.645,3.645,0,0,1-1.494-1.2,2.707,2.707,0,0,1-.536-1.591h2.769a1.145,1.145,0,0,0,.439.962,1.808,1.808,0,0,0,1.081.3,1.422,1.422,0,0,0,.91-.246A.787.787,0,0,0,47.276,89.328Z" transform="translate(441.843 86.582)" fill="#12263f"/>
      <path id="Trazado_141824" data-name="Trazado 141824" d="M-1.465-7.41A9.837,9.837,0,0,1-2.844-1.7,4.662,4.662,0,0,1-6.909.244a4.708,4.708,0,0,1-4.041-1.91,9.472,9.472,0,0,1-1.44-5.56v-3.186A9.655,9.655,0,0,1-11-16.089a4.7,4.7,0,0,1,4.065-1.929,4.721,4.721,0,0,1,4.028,1.862,9.3,9.3,0,0,1,1.44,5.487ZM-2.93-10.6a8.676,8.676,0,0,0-.995-4.614,3.326,3.326,0,0,0-3.009-1.562,3.329,3.329,0,0,0-2.979,1.526,8.4,8.4,0,0,0-1.025,4.5v3.491A8.66,8.66,0,0,0-9.906-2.6a3.342,3.342,0,0,0,3,1.611,3.293,3.293,0,0,0,2.96-1.575A8.7,8.7,0,0,0-2.93-7.178ZM8.472,0H7.007V-16.016L2.173-14.221v-1.367l6.055-2.246h.244Z" transform="translate(45.331 58.815)" fill="#fff"/>
      <path id="Trazado_141823" data-name="Trazado 141823" d="M-1.465-7.41A9.837,9.837,0,0,1-2.844-1.7,4.662,4.662,0,0,1-6.909.244a4.708,4.708,0,0,1-4.041-1.91,9.472,9.472,0,0,1-1.44-5.56v-3.186A9.655,9.655,0,0,1-11-16.089a4.7,4.7,0,0,1,4.065-1.929,4.721,4.721,0,0,1,4.028,1.862,9.3,9.3,0,0,1,1.44,5.487ZM-2.93-10.6a8.676,8.676,0,0,0-.995-4.614,3.326,3.326,0,0,0-3.009-1.562,3.329,3.329,0,0,0-2.979,1.526,8.4,8.4,0,0,0-1.025,4.5v3.491A8.66,8.66,0,0,0-9.906-2.6a3.342,3.342,0,0,0,3,1.611,3.293,3.293,0,0,0,2.96-1.575A8.7,8.7,0,0,0-2.93-7.178ZM12.805,0H1.672V-1.123L7.764-8.032a15.986,15.986,0,0,0,2.1-2.881,4.8,4.8,0,0,0,.586-2.209A3.592,3.592,0,0,0,9.46-15.79a3.692,3.692,0,0,0-2.722-.983,3.841,3.841,0,0,0-2.9,1.147,4.116,4.116,0,0,0-1.1,2.979H1.282a5.583,5.583,0,0,1,.677-2.734,4.874,4.874,0,0,1,1.929-1.935,5.725,5.725,0,0,1,2.85-.7,5.374,5.374,0,0,1,3.815,1.282,4.544,4.544,0,0,1,1.373,3.491,5.925,5.925,0,0,1-.775,2.722A20.234,20.234,0,0,1,8.423-6.836l-4.956,5.6h9.338Z" transform="translate(621.096 58.816)" fill="#fff"/>
      <path id="Trazado_141815" data-name="Trazado 141815" d="M-1.416-7.581q0,3.967-1.355,5.9A4.819,4.819,0,0,1-7.007.244a4.854,4.854,0,0,1-4.211-1.886,9.8,9.8,0,0,1-1.416-5.634v-3.015q0-3.918,1.355-5.823a4.856,4.856,0,0,1,4.248-1.9A4.9,4.9,0,0,1-2.808-16.18q1.355,1.837,1.392,5.67Zm-2.258-3.088A8.275,8.275,0,0,0-4.48-14.85a2.773,2.773,0,0,0-2.551-1.312,2.737,2.737,0,0,0-2.527,1.306,8.08,8.08,0,0,0-.818,4.016v3.613A8.408,8.408,0,0,0-9.54-2.972,2.768,2.768,0,0,0-7.007-1.6,2.73,2.73,0,0,0-4.523-2.893,8.1,8.1,0,0,0-3.674-6.97Zm8.435.684h1.7a3.729,3.729,0,0,0,2.515-.842,2.814,2.814,0,0,0,.916-2.209q0-3.125-3.113-3.125a3.238,3.238,0,0,0-2.338.836,2.926,2.926,0,0,0-.873,2.216H1.306A4.534,4.534,0,0,1,2.85-16.62a5.625,5.625,0,0,1,3.925-1.4,5.559,5.559,0,0,1,3.943,1.331,4.807,4.807,0,0,1,1.428,3.7,3.9,3.9,0,0,1-.751,2.246A4.533,4.533,0,0,1,9.351-9.119a4.368,4.368,0,0,1,2.264,1.538,4.272,4.272,0,0,1,.8,2.625,4.848,4.848,0,0,1-1.562,3.8A5.851,5.851,0,0,1,6.787.244,6.006,6.006,0,0,1,2.716-1.111,4.5,4.5,0,0,1,1.147-4.687H3.418a2.9,2.9,0,0,0,.916,2.246A3.482,3.482,0,0,0,6.787-1.6a3.417,3.417,0,0,0,2.5-.854,3.293,3.293,0,0,0,.867-2.454A2.988,2.988,0,0,0,9.2-7.288a4.148,4.148,0,0,0-2.747-.854h-1.7Z" transform="translate(48.008 643.368)" fill="#fff"/>
      <path id="Trazado_141816" data-name="Trazado 141816" d="M-1.416-7.581q0,3.967-1.355,5.9A4.819,4.819,0,0,1-7.007.244a4.854,4.854,0,0,1-4.211-1.886,9.8,9.8,0,0,1-1.416-5.634v-3.015q0-3.918,1.355-5.823a4.856,4.856,0,0,1,4.248-1.9A4.9,4.9,0,0,1-2.808-16.18q1.355,1.837,1.392,5.67Zm-2.258-3.088A8.275,8.275,0,0,0-4.48-14.85a2.773,2.773,0,0,0-2.551-1.312,2.737,2.737,0,0,0-2.527,1.306,8.08,8.08,0,0,0-.818,4.016v3.613A8.408,8.408,0,0,0-9.54-2.972,2.768,2.768,0,0,0-7.007-1.6,2.73,2.73,0,0,0-4.523-2.893,8.1,8.1,0,0,0-3.674-6.97Zm14.685,4.7h2.466v1.843H11.011V0H8.74V-4.126H.647V-5.457L8.606-17.773h2.4Zm-7.8,0H8.74v-8.716l-.269.488Z" transform="translate(621.099 643.369)" fill="#fff"/>
      <path id="Trazado_141819" data-name="Trazado 141819" d="M7.567-3.4a1.268,1.268,0,0,0-.479-1.055,5.954,5.954,0,0,0-1.683-.782,16.147,16.147,0,0,1-1.969-.782Q.949-7.242.949-9.378a3.011,3.011,0,0,1,.62-1.876A4.008,4.008,0,0,1,3.322-12.52a6.823,6.823,0,0,1,2.549-.453,5.969,5.969,0,0,1,2.474.492,3.917,3.917,0,0,1,1.7,1.4A3.661,3.661,0,0,1,10.652-9H7.576A1.547,1.547,0,0,0,7.1-10.213a1.867,1.867,0,0,0-1.3-.431,2.106,2.106,0,0,0-1.305.365,1.119,1.119,0,0,0-.479.927,1.127,1.127,0,0,0,.527.892A6.65,6.65,0,0,0,6.4-7.633a11.36,11.36,0,0,1,2.18.918,3.663,3.663,0,0,1,2.074,3.3A3.125,3.125,0,0,1,9.387-.782,5.629,5.629,0,0,1,5.915.176,6.888,6.888,0,0,1,3.1-.382,4.247,4.247,0,0,1,1.2-1.912,3.985,3.985,0,0,1,.563-4.148H3.656a1.963,1.963,0,0,0,.532,1.516,2.513,2.513,0,0,0,1.727.488,1.985,1.985,0,0,0,1.208-.33A1.088,1.088,0,0,0,7.567-3.4Zm15.5-2.733a7.546,7.546,0,0,1-.694,3.313A5.132,5.132,0,0,1,20.4-.6,5.494,5.494,0,0,1,17.49.176a5.572,5.572,0,0,1-2.9-.751,5.123,5.123,0,0,1-1.973-2.149,7.329,7.329,0,0,1-.743-3.208v-.721a7.58,7.58,0,0,1,.69-3.318,5.119,5.119,0,0,1,1.978-2.219,5.533,5.533,0,0,1,2.931-.782,5.479,5.479,0,0,1,2.9.773A5.211,5.211,0,0,1,22.355-10a7.362,7.362,0,0,1,.716,3.274Zm-3.138-.536a5.381,5.381,0,0,0-.637-2.9,2.044,2.044,0,0,0-1.824-.989q-2.32,0-2.452,3.48l-.009.94a5.535,5.535,0,0,0,.624,2.892A2.041,2.041,0,0,0,17.49-2.232a2.016,2.016,0,0,0,1.8-.993,5.383,5.383,0,0,0,.642-2.856ZM32.722-5.1H27.747V0H24.662V-12.8h8.561v2.382H27.747v2.944h4.975Zm12.006-5.317H40.887V0H37.8V-10.415H34.031V-12.8h10.7ZM56.074-4.772,57.542-12.8H60.6L57.885,0h-3.2L52.972-7.295,51.293,0H48.1L45.378-12.8h3.067l1.468,8.024L51.671-12.8H54.29ZM68.7-2.391H64.468L63.729,0h-3.3l4.693-12.8h2.9L72.756,0H69.442ZM65.206-4.772h2.751l-1.38-4.438Zm13.236.246h-1.67V0H73.688V-12.8h5.036a5.621,5.621,0,0,1,3.56,1.01,3.421,3.421,0,0,1,1.283,2.853,4.155,4.155,0,0,1-.541,2.213A3.837,3.837,0,0,1,81.334-5.3L84.006-.132V0H80.7ZM76.772-6.9h1.951a1.751,1.751,0,0,0,1.323-.463,1.788,1.788,0,0,0,.444-1.291,1.809,1.809,0,0,0-.448-1.3,1.735,1.735,0,0,0-1.318-.471H76.772ZM93.366-5.432H88.515v3.059h5.73V0H85.43V-12.8h8.833v2.382H88.515v2.7h4.852Z" transform="translate(217.454 265.482)" fill="#12263f"/>
      <path id="Trazado_141818" data-name="Trazado 141818" d="M.967,0V-12.8H5.089a6.064,6.064,0,0,1,3.05.769,5.406,5.406,0,0,1,2.114,2.171,6.554,6.554,0,0,1,.769,3.142v.589a6.592,6.592,0,0,1-.743,3.151A5.429,5.429,0,0,1,8.187-.8a5.93,5.93,0,0,1-3.01.8ZM4.052-10.415v8.042H5.124a2.4,2.4,0,0,0,2.039-.945,4.63,4.63,0,0,0,.712-2.808V-6.68a4.592,4.592,0,0,0-.712-2.795,2.442,2.442,0,0,0-2.074-.94ZM19.688-2.391H15.46L14.722,0h-3.3l4.693-12.8h2.9L23.748,0H20.435ZM16.2-4.772h2.751l-1.38-4.438Zm17.473-5.643H29.83V0H26.745V-10.415H22.975V-12.8h10.7Zm11.892,4.28a7.546,7.546,0,0,1-.694,3.313A5.132,5.132,0,0,1,42.9-.6a5.494,5.494,0,0,1-2.914.778,5.572,5.572,0,0,1-2.9-.751,5.123,5.123,0,0,1-1.973-2.149,7.329,7.329,0,0,1-.743-3.208v-.721a7.58,7.58,0,0,1,.69-3.318,5.119,5.119,0,0,1,1.978-2.219,5.533,5.533,0,0,1,2.931-.782,5.479,5.479,0,0,1,2.9.773A5.211,5.211,0,0,1,44.846-10a7.362,7.362,0,0,1,.716,3.274Zm-3.138-.536a5.381,5.381,0,0,0-.637-2.9,2.044,2.044,0,0,0-1.824-.989q-2.32,0-2.452,3.48l-.009.94a5.535,5.535,0,0,0,.624,2.892,2.041,2.041,0,0,0,1.854,1.011,2.016,2.016,0,0,0,1.8-.993,5.383,5.383,0,0,0,.642-2.856ZM53.754-3.4a1.268,1.268,0,0,0-.479-1.055,5.954,5.954,0,0,0-1.683-.782,16.147,16.147,0,0,1-1.969-.782q-2.487-1.222-2.487-3.357a3.011,3.011,0,0,1,.62-1.876,4.008,4.008,0,0,1,1.753-1.266,6.823,6.823,0,0,1,2.549-.453,5.969,5.969,0,0,1,2.474.492,3.917,3.917,0,0,1,1.7,1.4A3.661,3.661,0,0,1,56.839-9H53.763a1.547,1.547,0,0,0-.479-1.213,1.867,1.867,0,0,0-1.3-.431,2.106,2.106,0,0,0-1.305.365,1.119,1.119,0,0,0-.479.927,1.127,1.127,0,0,0,.527.892,6.65,6.65,0,0,0,1.854.826,11.36,11.36,0,0,1,2.18.918,3.663,3.663,0,0,1,2.074,3.3A3.125,3.125,0,0,1,55.573-.782,5.629,5.629,0,0,1,52.1.176a6.888,6.888,0,0,1-2.817-.558,4.247,4.247,0,0,1-1.9-1.529,3.985,3.985,0,0,1-.637-2.237h3.094a1.963,1.963,0,0,0,.532,1.516,2.513,2.513,0,0,0,1.727.488,1.985,1.985,0,0,0,1.208-.33A1.088,1.088,0,0,0,53.754-3.4Z" transform="translate(235.954 436.482)" fill="#12263f"/>
      <path id="Trazado_141820" data-name="Trazado 141820" d="M11.663,0H8.6V-5.344H4.052V0H.967V-12.8H4.052v5.08H8.6V-12.8h3.067Zm9.378-2.391H16.813L16.075,0h-3.3l4.693-12.8h2.9L25.1,0H21.788ZM17.552-4.772H20.3l-1.38-4.438Zm13.236.246h-1.67V0H26.033V-12.8h5.036a5.621,5.621,0,0,1,3.56,1.01,3.421,3.421,0,0,1,1.283,2.853,4.155,4.155,0,0,1-.541,2.213A3.837,3.837,0,0,1,33.68-5.3L36.352-.132V0h-3.3ZM29.118-6.9h1.951a1.751,1.751,0,0,0,1.323-.463,1.788,1.788,0,0,0,.444-1.291,1.809,1.809,0,0,0-.448-1.3,1.735,1.735,0,0,0-1.318-.471H29.118ZM37.775,0V-12.8H41.9a6.064,6.064,0,0,1,3.05.769,5.406,5.406,0,0,1,2.114,2.171,6.554,6.554,0,0,1,.769,3.142v.589a6.592,6.592,0,0,1-.743,3.151A5.429,5.429,0,0,1,45-.8a5.93,5.93,0,0,1-3.01.8ZM40.86-10.415v8.042h1.072a2.4,2.4,0,0,0,2.039-.945,4.63,4.63,0,0,0,.712-2.808V-6.68a4.592,4.592,0,0,0-.712-2.795,2.442,2.442,0,0,0-2.074-.94ZM59.326-4.772,60.794-12.8h3.059L61.137,0h-3.2L56.224-7.295,54.545,0h-3.19L48.63-12.8H51.7l1.468,8.024L54.923-12.8h2.619ZM71.947-2.391H67.72L66.981,0h-3.3l4.693-12.8h2.9L76.008,0H72.694ZM68.458-4.772h2.751l-1.38-4.438Zm13.236.246h-1.67V0H76.939V-12.8h5.036a5.621,5.621,0,0,1,3.56,1.01,3.421,3.421,0,0,1,1.283,2.853,4.155,4.155,0,0,1-.541,2.213A3.837,3.837,0,0,1,84.586-5.3L87.258-.132V0h-3.3ZM80.024-6.9h1.951A1.751,1.751,0,0,0,83.3-7.362a1.788,1.788,0,0,0,.444-1.291,1.809,1.809,0,0,0-.448-1.3,1.735,1.735,0,0,0-1.318-.471H80.024ZM96.618-5.432H91.767v3.059H97.5V0H88.682V-12.8h8.833v2.382H91.767v2.7h4.852Z" transform="translate(371.463 265.482)" fill="#12263f"/>
      <path id="Trazado_141817" data-name="Trazado 141817" d="M8.235-2.391H4.008L3.27,0h-3.3L4.667-12.8h2.9L12.3,0H8.982ZM4.746-4.772H7.5L6.117-9.211ZM23.915,0H20.848L16.313-7.963V0H13.228V-12.8h3.085l4.526,7.963V-12.8h3.076Zm9.378-2.391H29.065L28.327,0h-3.3l4.693-12.8h2.9L37.354,0H34.04ZM29.8-4.772h2.751l-1.38-4.438Zm1.775-11.452h3.129l-2.443,2.76-2.417,0ZM41.37-2.373h5.37V0H38.285V-12.8H41.37ZM51.328,0H48.252V-12.8h3.076Zm8.745-3.4a1.268,1.268,0,0,0-.479-1.055,5.954,5.954,0,0,0-1.683-.782,16.147,16.147,0,0,1-1.969-.782q-2.487-1.222-2.487-3.357a3.011,3.011,0,0,1,.62-1.876,4.008,4.008,0,0,1,1.753-1.266,6.823,6.823,0,0,1,2.549-.453,5.969,5.969,0,0,1,2.474.492,3.917,3.917,0,0,1,1.7,1.4A3.661,3.661,0,0,1,63.158-9H60.082a1.547,1.547,0,0,0-.479-1.213,1.867,1.867,0,0,0-1.3-.431A2.106,2.106,0,0,0,57-10.279a1.119,1.119,0,0,0-.479.927,1.127,1.127,0,0,0,.527.892,6.65,6.65,0,0,0,1.854.826,11.36,11.36,0,0,1,2.18.918,3.663,3.663,0,0,1,2.074,3.3A3.125,3.125,0,0,1,61.893-.782a5.629,5.629,0,0,1-3.472.958A6.888,6.888,0,0,1,55.6-.382a4.247,4.247,0,0,1-1.9-1.529,3.985,3.985,0,0,1-.637-2.237h3.094a1.963,1.963,0,0,0,.532,1.516,2.513,2.513,0,0,0,1.727.488,1.985,1.985,0,0,0,1.208-.33A1.088,1.088,0,0,0,60.073-3.4ZM68.027,0H64.951V-12.8h3.076Zm8.745-3.4a1.268,1.268,0,0,0-.479-1.055,5.954,5.954,0,0,0-1.683-.782,16.147,16.147,0,0,1-1.969-.782q-2.487-1.222-2.487-3.357a3.011,3.011,0,0,1,.62-1.876,4.008,4.008,0,0,1,1.753-1.266,6.823,6.823,0,0,1,2.549-.453,5.969,5.969,0,0,1,2.474.492,3.917,3.917,0,0,1,1.7,1.4A3.661,3.661,0,0,1,79.857-9H76.781a1.547,1.547,0,0,0-.479-1.213,1.867,1.867,0,0,0-1.3-.431,2.106,2.106,0,0,0-1.305.365,1.119,1.119,0,0,0-.479.927,1.127,1.127,0,0,0,.527.892,6.65,6.65,0,0,0,1.854.826,11.36,11.36,0,0,1,2.18.918,3.663,3.663,0,0,1,2.074,3.3A3.125,3.125,0,0,1,78.592-.782,5.629,5.629,0,0,1,75.12.176,6.888,6.888,0,0,1,72.3-.382a4.247,4.247,0,0,1-1.9-1.529,3.985,3.985,0,0,1-.637-2.237h3.094a1.963,1.963,0,0,0,.532,1.516,2.513,2.513,0,0,0,1.727.488,1.985,1.985,0,0,0,1.208-.33A1.088,1.088,0,0,0,76.772-3.4Z" transform="translate(377.093 436.482)" fill="#12263f"/>
    </g>
    <g id="Grupo_91443" data-name="Grupo 91443" transform="translate(98.583 220.962)">
      <path id="Trazado_141303" data-name="Trazado 141303" d="M286.138,245.867a1.606,1.606,0,0,0-1.879,1.278,42.745,42.745,0,0,1-84.655-5.623l1.146,1.985a1.607,1.607,0,1,0,2.783-1.607l-4.082-7.07a1.607,1.607,0,0,0-2.783,0l-4.082,7.07a1.607,1.607,0,1,0,2.783,1.607l1.027-1.78a45.958,45.958,0,0,0,91.019,6.019A1.607,1.607,0,0,0,286.138,245.867Z" transform="translate(0 -122.206)" fill="#12263f"/>
      <path id="Trazado_141304" data-name="Trazado 141304" d="M305.53,111.967a1.607,1.607,0,0,0-2.2.588l-1.03,1.785a45.958,45.958,0,0,0-91.024-6.093,1.607,1.607,0,0,0,3.157.6,42.745,42.745,0,0,1,84.66,5.686l-1.143-1.979a1.607,1.607,0,1,0-2.783,1.607l4.082,7.07a1.607,1.607,0,0,0,2.783,0l4.082-7.07A1.607,1.607,0,0,0,305.53,111.967Z" transform="translate(-14.148)" fill="#12263f"/>
    </g>
    <g id="Grupo_91445" data-name="Grupo 91445" transform="translate(-1801.348 -505.697)">
      <path id="Trazado_141305" data-name="Trazado 141305" d="M2099.229,727.84q4.775,0,9.549,0a2.112,2.112,0,0,1,2.169,1.6,3,3,0,0,1,.075.722q.007,6.739,0,13.477a.575.575,0,0,0,.192.456,4.069,4.069,0,1,1-5.861,5.64.743.743,0,0,0-.621-.275q-7.508.011-15.017,0a2.124,2.124,0,0,1-2.147-1.427,2.38,2.38,0,0,1-.122-.74q-.01-8.653,0-17.307a2.112,2.112,0,0,1,2.01-2.143c.117-.009.235-.008.353-.008Zm10.974,15.493v-8.6h-21.955V735q0,6.1,0,12.191a1.335,1.335,0,0,0,1.471,1.465h14.612c.088,0,.175-.008.27-.013-.562-2.02-.3-3.417.9-4.557A4.057,4.057,0,0,1,2110.2,743.334Zm0-9.436c.005-.095.012-.169.012-.242,0-1.2,0-2.4,0-3.6a1.323,1.323,0,0,0-1.407-1.4q-9.575,0-19.151,0a1.322,1.322,0,0,0-1.412,1.422q0,1.789,0,3.578c0,.08.009.161.013.25Zm-1.851,9.825a3.275,3.275,0,1,0,3.279,3.259A3.276,3.276,0,0,0,2108.356,743.722Z" fill="#12263f"/>
      <path id="Trazado_141306" data-name="Trazado 141306" d="M2215.119,845.053c.751.053,1.04.361,1.04,1.089q0,.176,0,.353c0,.745-.291,1.06-1.037,1.109-.09.207-.189.417-.268.635a.244.244,0,0,0,.061.188.91.91,0,0,1-.05,1.327c-.1.1-.2.2-.3.3a.96.96,0,0,1-1.555.07l-.724.3a.955.955,0,0,1-.364.864,2.17,2.17,0,0,1-1.81,0c-.24-.181-.319-.361-.378-.873-.113-.044-.23-.088-.346-.136s-.23-.1-.359-.159c-.052.044-.107.092-.163.139a.894.894,0,0,1-1.2-.016,7.961,7.961,0,0,1-.57-.569.878.878,0,0,1-.006-1.21.242.242,0,0,0,.05-.325,4.877,4.877,0,0,1-.191-.453,3.421,3.421,0,0,1-.772-.335,1.674,1.674,0,0,1,.015-2.066,3.311,3.311,0,0,1,.75-.314c.05-.119.141-.309.206-.507a.289.289,0,0,0-.041-.233.909.909,0,0,1,.064-1.344c.142-.143.283-.287.428-.427a.885.885,0,0,1,1.267-.047.233.233,0,0,0,.327.035.608.608,0,0,1,.16-.072.465.465,0,0,0,.414-.486.82.82,0,0,1,.8-.7c.26-.012.521-.008.781,0a.882.882,0,0,1,.912.852c.01.155.062.227.2.258a.453.453,0,0,1,.141.053.524.524,0,0,0,.7-.047.814.814,0,0,1,1.063.1c.191.176.376.361.553.551a.877.877,0,0,1,.026,1.21.276.276,0,0,0-.048.37C2214.987,844.7,2215.046,844.876,2215.119,845.053Zm-1.356,4.645c.117-.112.222-.206.321-.306.371-.376.364-.283.01-.645-.234-.238-.238-.352-.1-.648a9.6,9.6,0,0,0,.385-.926c.1-.292.2-.382.5-.387.465-.008.467-.008.465-.47,0-.514.056-.439-.438-.445-.332,0-.424-.093-.536-.414a7.537,7.537,0,0,0-.39-.923.469.469,0,0,1,.08-.613c.338-.346.335-.351,0-.679-.361-.356-.274-.35-.625,0a.474.474,0,0,1-.607.125c-.339-.161-.691-.3-1.042-.429a.436.436,0,0,1-.332-.394c-.013-.179.024-.431-.075-.515s-.351-.034-.535-.04c-.033,0-.068,0-.1,0-.17-.021-.227.063-.214.221.005.067,0,.134,0,.2,0,.362-.081.439-.419.558a8.386,8.386,0,0,0-.9.384.445.445,0,0,1-.63-.084c-.338-.322-.339-.324-.664.006-.359.365-.356.271-.01.625.252.257.254.361.091.691a7.006,7.006,0,0,0-.354.857c-.113.334-.2.419-.555.423-.478.005-.419-.064-.424.434v.025c0,.45,0,.45.454.456.322,0,.412.09.521.4a9.563,9.563,0,0,0,.387.924.441.441,0,0,1-.092.629c-.363.371-.375.277.011.664.359.36.275.348.626,0,.243-.238.363-.242.67-.093a7.5,7.5,0,0,0,.927.382.472.472,0,0,1,.376.492c.007.481.011.482.5.481.47,0,.408.043.412-.422,0-.359.079-.448.415-.559a5.491,5.491,0,0,0,.77-.3c.492-.25.5-.256.906.139C2213.622,849.577,2213.686,849.629,2213.763,849.7Z" transform="translate(-110.419 -105.712)" fill="#12263f"/>
      <path id="Trazado_141307" data-name="Trazado 141307" d="M2121.982,848.024q1.308,0,2.617,0c.316,0,.5.152.5.4s-.19.4-.5.4q-2.629,0-5.259,0c-.315,0-.492-.158-.485-.417s.175-.387.485-.388Q2120.661,848.022,2121.982,848.024Z" transform="translate(-29.3 -112.094)" fill="#12263f"/>
      <path id="Trazado_141308" data-name="Trazado 141308" d="M2121.427,934.8c.672,0,1.343,0,2.015,0,.325,0,.5.143.5.4s-.182.408-.5.409q-2.053,0-4.105,0c-.316,0-.495-.157-.49-.415s.174-.389.484-.39C2120.033,934.8,2120.73,934.8,2121.427,934.8Z" transform="translate(-29.297 -193.029)" fill="#12263f"/>
      <path id="Trazado_141309" data-name="Trazado 141309" d="M2121.176,906.593c-.613,0-1.226,0-1.839,0-.309,0-.478-.143-.482-.392s.175-.412.492-.412q1.814,0,3.628,0c.3,0,.476.147.481.4s-.169.407-.49.408C2122.368,906.595,2121.772,906.593,2121.176,906.593Z" transform="translate(-29.299 -165.968)" fill="#12263f"/>
      <path id="Trazado_141310" data-name="Trazado 141310" d="M2164.028,993.37c-.562,0-1.124,0-1.685,0-.3,0-.478-.155-.48-.4s.184-.407.474-.407q1.685,0,3.371,0c.3,0,.474.153.475.4s-.169.4-.469.4C2165.152,993.371,2164.59,993.37,2164.028,993.37Z" transform="translate(-69.413 -246.903)" fill="#12263f"/>
      <path id="Trazado_141311" data-name="Trazado 141311" d="M2120.052,964.448c-.251,0-.5.006-.754,0-.281-.008-.447-.163-.446-.4a.392.392,0,0,1,.426-.4q.791-.014,1.582,0a.4.4,0,1,1,0,.8c-.268.009-.536,0-.8,0Z" transform="translate(-29.298 -219.927)" fill="#12263f"/>
      <path id="Trazado_141312" data-name="Trazado 141312" d="M2119.962,877.7c-.227,0-.453.007-.679,0a.4.4,0,0,1-.43-.4.388.388,0,0,1,.418-.4q.679-.015,1.358,0a.4.4,0,0,1,.436.393.414.414,0,0,1-.449.407C2120.4,877.7,2120.18,877.7,2119.962,877.7Z" transform="translate(-29.298 -139.017)" fill="#12263f"/>
      <path id="Trazado_141313" data-name="Trazado 141313" d="M2169.722,877.695c-.193,0-.386.006-.578,0a.407.407,0,0,1-.445-.408.4.4,0,0,1,.432-.392q.6-.013,1.207,0a.4.4,0,0,1,.435.392.41.41,0,0,1-.447.408C2170.124,877.7,2169.923,877.695,2169.722,877.695Z" transform="translate(-75.789 -139.014)" fill="#12263f"/>
      <path id="Trazado_141314" data-name="Trazado 141314" d="M2172.953,964.434c-.167,0-.336.007-.5,0a.4.4,0,1,1,0-.8c.344-.012.688-.012,1.032,0a.4.4,0,1,1,0,.794c-.176.011-.352,0-.529,0Z" transform="translate(-78.903 -219.915)" fill="#12263f"/>
      <path id="Trazado_141315" data-name="Trazado 141315" d="M2119.716,993.334c-.159,0-.319.007-.477,0a.387.387,0,0,1-.385-.383.379.379,0,0,1,.357-.41,10.256,10.256,0,0,1,1.029,0,.394.394,0,0,1,.366.407.4.4,0,0,1-.388.386C2120.052,993.341,2119.884,993.334,2119.716,993.334Z" transform="translate(-29.298 -246.869)" fill="#12263f"/>
      <path id="Trazado_141316" data-name="Trazado 141316" d="M2260.778,759.258c1.159,0,2.318-.007,3.477,0a1.317,1.317,0,0,1,1.326,1.714,1.3,1.3,0,0,1-1.253.92q-3.552.012-7.1,0a1.316,1.316,0,1,1,.028-2.632C2258.426,759.25,2259.6,759.258,2260.778,759.258Zm-.007.806q-1.712,0-3.423,0c-.41,0-.641.188-.641.51s.237.513.639.516h.075q3.347,0,6.694,0a1.417,1.417,0,0,0,.348-.032.5.5,0,0,0-.046-.976,1.769,1.769,0,0,0-.3-.018Z" transform="translate(-157.12 -29.3)" fill="#12263f"/>
      <path id="Trazado_141317" data-name="Trazado 141317" d="M2124.65,760.632a1.311,1.311,0,0,1,1.315-1.308,1.318,1.318,0,1,1-1.315,1.308Zm1.3-.5a.5.5,0,0,0-.492.525.509.509,0,0,0,.5.493.527.527,0,0,0,.512-.517A.515.515,0,0,0,2125.951,760.133Z" transform="translate(-34.704 -29.365)" fill="#12263f"/>
      <path id="Trazado_141318" data-name="Trazado 141318" d="M2180.005,760.633a1.316,1.316,0,1,1-1.312-1.31A1.323,1.323,0,0,1,2180.005,760.633Zm-.808,0a.5.5,0,0,0-.518-.5.511.511,0,0,0-.5.5.525.525,0,0,0,.511.517A.511.511,0,0,0,2179.2,760.632Z" transform="translate(-83.879 -29.364)" fill="#12263f"/>
      <path id="Trazado_141319" data-name="Trazado 141319" d="M2369.757,991.736l1.846-1.718a2.95,2.95,0,0,1,.235-.226.37.37,0,0,1,.523.034.374.374,0,0,1,.048.5.959.959,0,0,1-.13.152q-1,1.028-2,2.054c-.288.3-.466.3-.765.008s-.569-.546-.848-.823c-.216-.214-.235-.44-.06-.619a.414.414,0,0,1,.621.044C2369.432,991.354,2369.62,991.582,2369.757,991.736Z" transform="translate(-262.129 -244.233)" fill="#12263f"/>
      <path id="Trazado_141320" data-name="Trazado 141320" d="M2250.468,887.417a2.181,2.181,0,1,1,2.173,2.181A2.172,2.172,0,0,1,2250.468,887.417Zm3.555.01a1.374,1.374,0,1,0-1.382,1.365A1.362,1.362,0,0,0,2254.023,887.427Z" transform="translate(-152.054 -146.804)" fill="#12263f"/>
    </g>
    <g id="Grupo_91446" data-name="Grupo 91446" transform="translate(-1709.218 -1021.535)">
      <path id="Trazado_141321" data-name="Trazado 141321" d="M2110.025,1266.556a.725.725,0,0,1-.715.36q-13.954-.01-27.908-.006c-.573,0-.722-.152-.722-.734q0-3.968,0-7.937c0-.6.144-.749.736-.749h7.121c0-.318,0-.619,0-.919,0-.47.19-.661.662-.664.716,0,1.433,0,2.149,0h.322v-.522h-7.663c-.543,0-.7-.156-.7-.695q0-7.421,0-14.843c0-.543.154-.7.7-.7H2106.7c.548,0,.7.153.7.69q0,7.421,0,14.843c0,.543-.158.7-.695.7h-7.665v.522h2.4c.552,0,.725.172.726.715,0,.276,0,.552,0,.869h.352c2.264,0,4.527.005,6.791-.006a.721.721,0,0,1,.714.36Zm-28.285-.7h27.221v-7.3H2081.74Zm24.6-25.64h-21.981v14.116h21.981Zm-5.238,16.777h-11.5v.465h11.5Zm-8.363-1.116h5.208v-.466h-5.208Z" fill="#12263f"/>
      <path id="Trazado_141322" data-name="Trazado 141322" d="M2101.735,1446.573h-5.071c-.525,0-.693-.162-.7-.677,0-.6,0-1.2,0-1.805,0-.473.187-.659.665-.66q5.1,0,10.2,0c.478,0,.663.187.666.659q.007.917,0,1.834c0,.479-.18.649-.666.649Zm4.7-2.067h-9.391v1h9.391Z" transform="translate(-13.718 -183.331)" fill="#12263f"/>
      <path id="Trazado_141323" data-name="Trazado 141323" d="M2312.716,1442.54a2.094,2.094,0,1,1,2.1-2.081A2.092,2.092,0,0,1,2312.716,1442.54Zm-1.032-2.1a1.041,1.041,0,1,0,1.035-1.033A1.034,1.034,0,0,0,2311.684,1440.442Z" transform="translate(-206.368 -178.774)" fill="#12263f"/>
      <path id="Trazado_141324" data-name="Trazado 141324" d="M2132.018,1254.384h9.712c.611,0,.764.152.764.761v11.6c0,.582-.166.747-.752.747h-19.452c-.608,0-.763-.156-.763-.763q0-5.8,0-11.6c0-.584.161-.744.752-.744Zm-9.443,12.026h18.87v-.307q0-5.171.006-10.343c0-.26-.065-.336-.332-.335q-9.111.011-18.222,0c-.274,0-.328.086-.328.339q.011,5.171.005,10.343Z" transform="translate(-36.657 -13.672)" fill="#12263f"/>
    </g>
    <g id="Grupo_91448" data-name="Grupo 91448" transform="translate(267.382 388.2)">
      <path id="Trazado_141325" data-name="Trazado 141325" d="M2475.41,1465.766a1.372,1.372,0,0,1-.968-1.492q.021-9.8.008-19.6a1.206,1.206,0,0,1,.851-1.268,1.022,1.022,0,0,1,.287-.048c.773-.005,1.547-.016,2.32.005a.572.572,0,0,1,.393.242.4.4,0,0,1-.054.381.663.663,0,0,1-.423.158c-.649.016-1.3.007-1.947.007-.53,0-.627.1-.627.614q0,9.8,0,19.6c0,.49.108.6.589.6h13.229c.468,0,.585-.115.585-.578q0-4.414,0-8.828v-.3h-9.042a1.221,1.221,0,0,1-1.361-1.369q0-7.041,0-14.083a1.216,1.216,0,0,1,1.351-1.352h11.709a1.214,1.214,0,0,1,1.344,1.332q0,1.854,0,3.707c0,.053,0,.107,0,.16a.4.4,0,0,1-.386.4.394.394,0,0,1-.408-.4c-.011-.364,0-.729,0-1.094q0-1.387,0-2.774c0-.4-.133-.53-.525-.53h-11.763c-.378,0-.514.136-.514.513q0,7.081,0,14.163c0,.394.134.527.528.527h11.736c.41,0,.538-.13.538-.544q0-4.241,0-8.482c0-.463.115-.576.585-.576q1.054,0,2.107,0c.316,0,.5.143.506.387s-.182.411-.508.412c-.62,0-1.24,0-1.875,0v1.6h.355c.525,0,1.049,0,1.574,0a.4.4,0,1,1,0,.8c-.638,0-1.277,0-1.93,0v1.6h.244c.551,0,1.1,0,1.654,0,.305,0,.491.162.485.408s-.185.389-.476.39c-.629,0-1.259,0-1.906,0v1.6h1.681c.089,0,.178,0,.267,0a.4.4,0,1,1-.013.8c-.542.005-1.084,0-1.627,0h-.329v1.6h1.636a3.437,3.437,0,0,1,.4.005.4.4,0,0,1,.012.788,1.393,1.393,0,0,1-.239.006h-4.993v1.6h4.977a1.786,1.786,0,0,1,.24,0,.386.386,0,0,1,.368.387.394.394,0,0,1-.376.406,2.346,2.346,0,0,1-.24,0h-4.968v2.507h6.627c.443,0,.562-.122.562-.575v-17.257c0-.475-.108-.585-.575-.586h-2.054a1.094,1.094,0,0,1-.239-.013.374.374,0,0,1-.326-.42.353.353,0,0,1,.362-.358c.871-.006,1.743-.022,2.613.013a1.152,1.152,0,0,1,1.017,1.1c.006.089,0,.178,0,.267q0,8.615,0,17.23a1.234,1.234,0,0,1-1.411,1.4h-6.574v2.4h4.239c.415,0,.543-.128.544-.538,0-.213-.005-.427,0-.64a.4.4,0,0,1,.391-.42.4.4,0,0,1,.4.407c.009.293.015.588,0,.88a1.191,1.191,0,0,1-1.212,1.11c-1.352.006-2.7,0-4.054,0h-.336a1.337,1.337,0,0,1-.953,1.6Z" transform="translate(-2474.442 -1438.453)" fill="#12263f"/>
      <path id="Trazado_141326" data-name="Trazado 141326" d="M2569.979,1475.8h-5.013c-.448,0-.573-.12-.567-.567.008-.595-.009-1.193.049-1.783a2.3,2.3,0,0,1,1.4-1.939c.424-.2.875-.342,1.311-.518a1.536,1.536,0,0,0,.84-.576.345.345,0,0,0-.086-.536,2.949,2.949,0,0,1-1.216-2.222,13.094,13.094,0,0,1,.075-2.786,3.321,3.321,0,0,1,6.536.351,15.322,15.322,0,0,1-.01,2.553,2.981,2.981,0,0,1-1.232,2.131c-.177.138-.205.273-.092.42a1.817,1.817,0,0,0,.481.474,5.957,5.957,0,0,0,.832.35c.255.1.517.189.767.3a2.492,2.492,0,0,1,1.546,2.352c.019.5.007,1,.005,1.493,0,.359-.141.5-.5.5Q2572.539,1475.8,2569.979,1475.8Zm-4.742-.819h9.56c0-.383.006-.746,0-1.11a1.752,1.752,0,0,0-1.2-1.744c-.364-.14-.732-.272-1.1-.411a2.027,2.027,0,0,1-1.361-1.277,3.532,3.532,0,0,1-2.27,0,2.177,2.177,0,0,1-1.431,1.3c-.414.159-.836.3-1.24.481a1.514,1.514,0,0,0-.958,1.31C2565.207,1474.007,2565.238,1474.487,2565.238,1474.982Zm7.343-8.511-.031,0c0-.284.008-.569,0-.853a2.548,2.548,0,0,0-2.381-2.515,2.5,2.5,0,0,0-2.693,2.314,12.028,12.028,0,0,0,0,2.1,2.532,2.532,0,0,0,5,.33A10.045,10.045,0,0,0,2572.581,1466.47Z" transform="translate(-2557.988 -1460.597)" fill="#12263f"/>
    </g>
    <g id="Grupo_91449" data-name="Grupo 91449" transform="translate(377.093 388.199)">
      <path id="Trazado_141327" data-name="Trazado 141327" d="M2620.254,935.3c.521,0,1.015,0,1.51,0a.192.192,0,0,0,.122-.05c.451-.445.9-.893,1.364-1.357a7.522,7.522,0,0,1-2.849-2,7.25,7.25,0,0,1-.623-.808.414.414,0,0,0-.4-.206q-3.673.008-7.346,0a1.346,1.346,0,0,1-1.5-1.5V912.942a1.348,1.348,0,0,1,1.52-1.507h24.358a1.349,1.349,0,0,1,1.519,1.509q0,8.219,0,16.439a1.344,1.344,0,0,1-1.5,1.5h-3.991l1.1,1.089s.045-.032.087-.064a.443.443,0,0,1,.683.036c.991.988,1.993,1.966,2.964,2.973a2.311,2.311,0,0,1-3.275,3.26c-1-.967-1.972-1.96-2.953-2.946-.265-.266-.252-.449.005-.756l-1.154-1.152c-.152.082-.373.211-.6.322a7.279,7.279,0,0,1-4.887.591.335.335,0,0,0-.361.1c-.522.532-1.057,1.052-1.577,1.587a.788.788,0,0,1-.633.266c-.514-.015-1.03,0-1.587,0,0,.374,0,.738,0,1.1a1.361,1.361,0,0,1-1.561,1.55h-4.943a1.332,1.332,0,0,1-1.449-1.44q0-1.658,0-3.315a1.328,1.328,0,0,1,1.427-1.433q2.555,0,5.109,0a1.327,1.327,0,0,1,1.417,1.417C2620.256,934.473,2620.254,934.876,2620.254,935.3Zm-7.06-19v11.907h5.408a7.494,7.494,0,0,1,1.162-5.5l-.4-.441-4.526,4.937-.639-.583a.532.532,0,0,1,.042-.069q2.378-2.6,4.758-5.194a.449.449,0,0,1,.755.009c.19.206.374.419.566.634a7.579,7.579,0,0,1,4.863-2.57c0-.039,0-.06-.008-.074q-.779-1.254-1.562-2.506a.245.245,0,0,0-.169-.106c-.466-.009-.932,0-1.42,0,0,.435,0,.838,0,1.242a1.325,1.325,0,0,1-1.4,1.409q-2.583,0-5.165,0a1.322,1.322,0,0,1-1.392-1.386q-.006-1.7,0-3.4a1.324,1.324,0,0,1,1.4-1.4q2.569,0,5.137,0a1.326,1.326,0,0,1,1.414,1.419c0,.4,0,.8,0,1.232.532,0,1.037.019,1.54-.007a.732.732,0,0,1,.734.414c.6.991,1.219,1.972,1.844,2.949a.529.529,0,0,0,.318.2c.5.1,1.012.181,1.521.25a.414.414,0,0,0,.305-.095c.75-.735,1.489-1.48,2.23-2.223a1.6,1.6,0,0,0,.125-.172h-1.086V916.3c.738,0,1.454,0,2.172,0a.4.4,0,0,1,.449.395c.019.743.007,1.486.007,2.238h-.9v-1.017l-2.159,2.16a7.525,7.525,0,0,1,3.72,9.926h3.6c.465,0,.6-.14.6-.613q0-8.233,0-16.467c0-.465-.14-.6-.613-.6h-24.414c-.466,0-.6.139-.6.614v16.439c0,.5.129.629.642.629h7.089c-.087-.229-.18-.429-.237-.639-.052-.194-.148-.251-.349-.25-1.878.008-3.756.005-5.634,0-.493,0-.628-.131-.628-.615q0-5.954,0-11.908v-.29Zm12.793,3.972a6.631,6.631,0,1,0,6.639,6.632A6.633,6.633,0,0,0,2625.987,920.275Zm-7.944-1.768c.847,0,1.694,0,2.541,0,.4,0,.553-.155.554-.551q0-1.658,0-3.315c0-.4-.155-.553-.551-.553q-2.541,0-5.081,0c-.4,0-.552.154-.553.55q0,1.657,0,3.315c0,.4.155.553.55.554C2616.349,918.509,2617.2,918.507,2618.043,918.507Zm-1.793,19.45c.856,0,1.712,0,2.568,0,.4,0,.551-.156.552-.553q0-1.658,0-3.315c0-.4-.156-.551-.552-.552q-2.541,0-5.081,0c-.4,0-.551.155-.552.552q0,1.658,0,3.315c0,.4.156.551.552.552C2614.574,937.959,2615.412,937.958,2616.25,937.958Zm15.719-3.087c.915.923,1.815,1.857,2.75,2.755a1.44,1.44,0,0,0,.768.322,1.367,1.367,0,0,0,1.424-.785,1.408,1.408,0,0,0-.271-1.632c-.859-.872-1.729-1.733-2.595-2.6a.4.4,0,0,0-.087-.057Zm.839-2.214-.939-.933-1.061,1.052.941.942Z" transform="translate(-2610.533 -911.434)" fill="#12263f"/>
      <path id="Trazado_141328" data-name="Trazado 141328" d="M2753.781,1049.012a5.744,5.744,0,1,1-5.676-5.758A5.751,5.751,0,0,1,2753.781,1049.012Zm-10.051,2.2a4.854,4.854,0,1,0,5.533-6.92.388.388,0,0,0-.434.115q-1.69,1.707-3.394,3.4c-.425.425-.594.42-.985-.024-.253-.287-.51-.571-.791-.885a4.779,4.779,0,0,0-.291,3.433h5.533v.88Zm1.181-4.243,2.825-2.819a4.864,4.864,0,0,0-3.6,1.953Z" transform="translate(-2732.571 -1033.527)" fill="#12263f"/>
      <path id="Trazado_141329" data-name="Trazado 141329" d="M2687.08,959.618v.852H2682.7v-.852Z" transform="translate(-2677.372 -956.063)" fill="#12263f"/>
      <path id="Trazado_141330" data-name="Trazado 141330" d="M2682.573,984.37v-.851h4.384v.851Z" transform="translate(-2677.258 -978.2)" fill="#12263f"/>
      <path id="Trazado_141331" data-name="Trazado 141331" d="M2658.619,1224.018v-.851H2663v.851Z" transform="translate(-2655.071 -1200.166)" fill="#12263f"/>
      <path id="Trazado_141332" data-name="Trazado 141332" d="M2663.112,1248.054h-4.374v-.86h4.374Z" transform="translate(-2655.181 -1222.42)" fill="#12263f"/>
    </g>
  </g>
</svg>
