<svg xmlns="http://www.w3.org/2000/svg" xmlns:xlink="http://www.w3.org/1999/xlink" width="250.002" height="218.001" viewBox="0 0 250.002 218.001">
  <defs>
    <clipPath id="clip-path">
      <path id="Trazado_141640" data-name="Trazado 141640" d="M199.247,265.239c-10.757-2.13-102.843-16.041-93.7,8.325,1.348,3.594,3.594,3.594.9,6.739-2.246,2.246-8.087,2.7-10.783,3.145-6.29.9-13.928,1.348-17.522,7.638-15.725,27.407,46.726,48.074,63.8,53.465,26.058,8.087,51.218,15.726,78.624,17.522a76.874,76.874,0,0,0,17.522-.449c7.19-.9,10.783-3.595,16.625-7.189,9.884-6.29,24.262,1.348,35.493.9,10.334-.449,28.754-3.594,34.145-14.377,7.189-14.377-17.971-21.116-26.058-26.508-6.29-4.493-1.348-10.783-7.638-15.276-13.46-9.615-32.215-18.3-47.708-22.781C228.521,272.221,213.99,268.159,199.247,265.239Z" transform="translate(-75.619 -259.362)" fill="none"/>
    </clipPath>
    <clipPath id="clip-path-2">
      <path id="Trazado_141736" data-name="Trazado 141736" d="M358.39,285.459c2.1-.662-7.6-8.967-7.6-11.33,0-.438-.021-.892-.058-1.356-.206-2.644-1.987-5.095-3.765-6.912-5.513-5.742-12.848-7.892-20.549-7.686-2.692.159-7.516.313-9.095,3.189a10.009,10.009,0,0,0-.183,5.879c.344,1.557-32.374,9.7-31.828,10.736,9.071,17.305,41.971,16.861,49.13,16.984C336.849,295,354.935,286.543,358.39,285.459Z" transform="translate(-285.305 -258.162)" fill="none"/>
    </clipPath>
  </defs>
  <g id="Grupo_91557" data-name="Grupo 91557" transform="translate(-75.619 -88.732)">
    <g id="BACKGROUND" transform="translate(75.619 192.942)">
      <g id="Grupo_91524" data-name="Grupo 91524">
        <g id="Grupo_91514" data-name="Grupo 91514" transform="translate(0 10.783)">
          <path id="Trazado_141634" data-name="Trazado 141634" d="M199.247,265.239c-10.757-2.13-102.843-16.041-93.7,8.325,1.348,3.594,3.594,3.594.9,6.739-2.246,2.246-8.087,2.7-10.783,3.145-6.29.9-13.928,1.348-17.522,7.638-15.725,27.407,46.726,48.074,63.8,53.465,26.058,8.087,51.218,15.726,78.624,17.522a76.874,76.874,0,0,0,17.522-.449c7.19-.9,10.783-3.595,16.625-7.189,9.884-6.29,24.262,1.348,35.493.9,10.334-.449,28.754-3.594,34.145-14.377,7.189-14.377-17.971-21.116-26.058-26.508-6.29-4.493-1.348-10.783-7.638-15.276-13.46-9.615-32.215-18.3-47.708-22.781C228.521,272.221,213.99,268.159,199.247,265.239Z" transform="translate(-75.619 -259.362)" fill="#bb8057"/>
          <g id="Grupo_91513" data-name="Grupo 91513">
            <g id="Grupo_91512" data-name="Grupo 91512" clip-path="url(#clip-path)">
              <path id="Trazado_141635" data-name="Trazado 141635" d="M263.707,380.349c-.7-1.265-3.443-4.183-5.617-3.2l-.441.076c.391-1.6-4.221-7.9-8.269-3.364-.175-5.507-3.783-14.892-15.363-11.234a17,17,0,0,0-2.44.954c.084-.141.17-.278.251-.427,1.655-3.513-.54-6.6-4.549-7.764a5.673,5.673,0,0,0-4.949.456l.22-.039c-.108.1-.1.4-.211.344.029-2.542-1.826-5.458-3.974-7.015a12.342,12.342,0,0,0-5.019-1.686c-2.541-.107-3.387.96-5,2.387.234-3.04-5.355-8.781-9.959-4.386-.118-.21-.021-.611-.135-.822-.923-1.227-.65-3.043-1.688-4.48a9.85,9.85,0,0,0-4.085-3.614,8.679,8.679,0,0,0-2.634-.612c.026-1.756-1.647-3.148-3.57-4.243-3.37-1.888-7.316-1.065-11.3-1.465,4.25-5.183-8.485-6.634-12.976-5.642,3.956-3.978-6.442-8.288-11.213-5.633,1.25-4.859-4.616-5.3-9.925-4.251a4.175,4.175,0,0,0-1.64-5.627,16.163,16.163,0,0,0-6.232-1.71c-2.326-.3-4.846.361-6.838.082-.332-.02-.877.149-1.21.129,5.054-4.163-4.612-6.292-8.884-5.336,1.61-1.427,2.906-2.262,2.082-3.891a8.588,8.588,0,0,0-3.731-2.828,23.927,23.927,0,0,0-11.057-.738c-.112-.057.328-.131.436-.228l0,.153c1.063-1.257.474-2.464-.658-3.347-2.721-2.308-7.705-2.924-12.274-.917-.192.092-.367.184-.546.277a7.331,7.331,0,0,0,.716-1.844c2.157-8.519-12.181-8.391-20.082-7.05,5.395-3.837-4.8-5.183-6.985-4.5L63.957,277c.829-1.677-4.057-2.694-6.047-2.818-2.214-.239-6.819.695-5.863,2.994.478,1.148,4.692,1.818,6.466,2.132-4.388.745-1.667,3.052.34,3.787s5.092.52,7.511.264c-3.042,1.44-.536,3.938,1.258,4.862,2.244,1.156,5.1.826,7.93-.424-4.224,2.564,5.178,7.749,11.208,5.774-.851,1.474-.284,2.974,1.8,4.4a16.553,16.553,0,0,0,5.15,2.357,20.4,20.4,0,0,0,2.994.491c.225.115,2.98.032,2.984.186.113.059.113.059.332.02-3.267,1.324,1,3.521,2.118,4.1,2.132,1.1,5.584,2.128,8.536,1.241-1.816,1.923,1.357,4.614,2.934,5.577,2.584,1.484,6.009,1.594,9.519,1-3.608,2.718,4.313,6.5,10.906,5.787-.731,3.74,9.7,4.156,13.127,4.052-2.343,2.7.354,4.246,3.031,5.176,3.238,1.218,6.312.7,9.954.771-1.442,3.167-.4,4.759,2.959,6.342a24.164,24.164,0,0,0,4.911,1.781c1.557.35,3.537.169,5.2.425-3.1,3.793,1.622,5.234,6.787,4.708.228,4.665,8.158,9.25,11.187,6.07a6.362,6.362,0,0,0,3.94,5.943c1.789.773,6.466,2.131,8.729.44-.483,2.16,1.9,4.138,4.029,5.238,1.12.578,5.382,2.777,6.406.3.005.153.005.153.117.212.22-.038.829,1.781,1.054,1.9a9.518,9.518,0,0,0,1.491,1.825,14.9,14.9,0,0,0,4.722,2.735,8.2,8.2,0,0,0,6.749.014c-1.225,4.453,8.655,9.215,11.2,5.784-1.034,2.174-.75,4.126,1.493,5.284,1.794.925,6.018,1.9,7.266-.465.274,1.644.78,3.712,2.36,4.827s5.589,2.281,5.493-.776c.917,1.073,2.984,3.645,4.748,3.653A2.937,2.937,0,0,0,263.707,380.349Z" transform="translate(-67.891 -264.183)" fill="#68442a"/>
              <path id="Trazado_141636" data-name="Trazado 141636" d="M7.8,282.935c1.549-.1,5.8.619,6.234,2.981l.2.41c1.194-1.2,9.576-.745,7.979,5.123,5.011-2.849,15.542-4.922,19.261,6.807a16.084,16.084,0,0,1,.621,2.57c.075-.148.145-.3.23-.443,2.13-3.3,6.2-3.138,9.655-.4a5.726,5.726,0,0,1,2.576,4.409l-.1-.206c-.02.143-.3.3-.179.365,2.246-1.409,5.961-1.433,8.641-.476a13.587,13.587,0,0,1,4.526,3.3c1.626,2.078,1.185,3.37.885,5.5,2.566-1.851,11.046-.274,9.905,5.989.259-.015.557-.315.815-.333,1.649.107,3.1-1.11,5.008-1.02a11.348,11.348,0,0,1,5.679,1.47,9.36,9.36,0,0,1,2.131,1.882c1.55-.978,3.8-.328,5.931.693,3.713,1.806,5.356,5.573,8.114,8.705,2.054-6.393,11.019,3.525,12.842,7.841,1.158-5.49,11.262.908,11.772,6.364,3.575-3.694,7.5,1,9.767,6.034a4.593,4.593,0,0,1,6-1.682,17.614,17.614,0,0,1,5.278,4.31c1.667,1.793,2.6,4.269,4.046,5.794.218.269.4.819.614,1.087.663-6.514,8.382.455,10.1,4.568.3-2.13.264-3.674,2.212-3.868a9.852,9.852,0,0,1,4.765,1.6,25,25,0,0,1,7.32,8.9c.118.063-.081-.347-.06-.491l-.139.081c.48-1.578,1.909-1.739,3.378-1.268,3.695,1.032,7.245,4.888,8.212,9.823.033.212.055.409.082.61a7.125,7.125,0,0,1,1.211-1.606c6.285-6.448,14.812,5.678,18.378,13.051.166-6.624,7.508,1.217,8.221,3.424l.278-.16c.994-1.61,4.846,1.945,6.152,3.552,1.547,1.731,3.49,6.113.866,6.559-1.311.223-4.447-2.957-5.794-4.277,1.981,4.095-1.714,3.063-3.579,1.774s-3.53-4-4.76-6.172c.552,3.34-3.182,2.593-5.087,1.587-2.383-1.257-3.811-3.84-4.4-6.9.264,4.947-10.021-.139-11.894-6.284-.8,1.518-2.479,1.857-5,.878a18.561,18.561,0,0,1-5.2-3.048,21.61,21.61,0,0,1-2.243-2.251c-.238-.126-1.824-2.487-1.963-2.408-.12-.063-.12-.063-.217-.268.79,3.466-3.737,1.079-4.93.451-2.262-1.194-5.259-3.537-6.248-6.5-.619,2.572-4.927,1.368-6.735.567-2.879-1.365-5.041-4.184-6.625-7.461-.247,4.513-8.39-.089-11.726-6.022-2.891,2.649-9.542-5.891-11.518-8.833-1,3.442-4,2.012-6.435.267-3.037-2.06-4.424-4.928-6.685-7.951-1.952,2.937-4,2.927-7.431.963a26.7,26.7,0,0,1-4.545-3.161c-1.249-1.118-2.281-2.882-3.511-4.141-1.513,4.666-5.639,1.483-8.283-3.145-4.292,2.346-13.153-1.828-12.146-6.106a7.261,7.261,0,0,1-7.667-.079c-1.767-1.084-5.8-4.279-5.652-7.1-1.631,1.581-4.827.656-7.091-.537-1.19-.629-5.717-3.017-4.125-5.227-.139.079-.139.079-.258.018-.1-.206-2.086.272-2.324.145a11.031,11.031,0,0,1-2.523-.262,16.872,16.872,0,0,1-5.28-2.481c-2.434-1.638-3.79-3.576-4.079-5.668-3.229,3.453-13.423-2.264-11.9-6.268-1.313,2.054-3.221,2.877-5.6,1.62-1.907-1.005-5.318-4.027-3.964-6.363-1.63.665-3.777,1.363-5.722.642s-5.4-3.458-2.617-5.04c-1.508-.186-5.044-.526-6.115-2.006C3.186,284.774,6.01,282.906,7.8,282.935Z" transform="translate(-52.449 -267.046)" fill="#68442a"/>
              <path id="Trazado_141637" data-name="Trazado 141637" d="M94.413,259.406c1.432-.2,5.413.218,5.942,2.545l.206.4c1.043-1.28,8.843-1.4,7.675,4.56,4.5-3.186,14.155-5.976,18.231,5.464a16.944,16.944,0,0,1,.714,2.521c.061-.153.119-.3.189-.458,1.8-3.439,5.586-3.554,8.936-1.061a5.673,5.673,0,0,1,2.626,4.22l-.1-.2c-.011.144-.262.321-.148.375,2.009-1.558,5.454-1.839,7.992-1.068a12.35,12.35,0,0,1,4.374,2.983c1.619,1.961,1.28,3.28,1.115,5.425,2.281-2.022,10.232-1.032,9.509,5.291.239-.033.5-.353.737-.389,1.536-.005,2.818-1.32,4.591-1.36a9.852,9.852,0,0,1,5.348,1.075,8.7,8.7,0,0,1,2.077,1.73c1.385-1.082,3.5-.588,5.538.284,3.54,1.546,5.267,5.189,7.992,8.124,1.565-6.517,10.41,2.757,12.332,6.935.782-5.555,10.5.132,11.259,5.538,3.12-3.93,7.013.48,9.382,5.346a4.176,4.176,0,0,1,5.477-2.091,16.186,16.186,0,0,1,5.125,3.935c1.643,1.675,2.638,4.08,4.062,5.5.217.253.412.79.629,1.042.268-6.542,7.8-.122,9.617,3.861.166-2.145.048-3.682,1.844-4.01a8.6,8.6,0,0,1,4.507,1.267,23.945,23.945,0,0,1,7.264,8.368c.113.055-.094-.34-.082-.485l-.125.09c.361-1.606,1.679-1.865,3.066-1.5,3.483.775,6.983,4.377,8.142,9.232.042.208.074.4.108.6a7.337,7.337,0,0,1,1.038-1.684c5.486-6.863,14.043,4.644,17.745,11.751-.2-6.617,7.029.7,7.808,2.849l.251-.179c.836-1.673,4.6,1.607,5.9,3.12,1.526,1.619,3.563,5.854,1.152,6.481-1.2.313-4.281-2.643-5.6-3.867,2.056,3.947-1.425,3.172-3.225,2.015s-3.488-3.745-4.745-5.828c.689,3.294-2.814,2.8-4.635,1.933-2.277-1.09-3.74-3.568-4.451-6.578.507,4.916-9.3.551-11.37-5.448-.66,1.568-2.2,2.022-4.592,1.22a16.55,16.55,0,0,1-4.989-2.683,20.26,20.26,0,0,1-2.2-2.091c-.228-.11-1.824-2.355-1.95-2.266-.115-.055-.115-.055-.216-.252.917,3.4-3.408,1.333-4.548.788-2.163-1.036-5.068-3.165-6.144-6.054-.437,2.608-4.5,1.7-6.217,1.028-2.743-1.163-4.9-3.827-6.545-6.985.012,4.517-7.787.488-11.2-5.2-2.541,2.841-9.165-5.219-11.154-8.017-.741,3.5-3.6,2.281-5.957.708-2.926-1.845-4.366-4.61-6.625-7.469-1.653,3.062-3.552,3.193-6.842,1.471a24.122,24.122,0,0,1-4.384-2.839c-1.219-1.029-2.271-2.717-3.479-3.889-1.154,4.757-5.152,1.867-7.851-2.567-3.856,2.634-12.3-.919-11.594-5.254a6.362,6.362,0,0,1-7.117.448c-1.7-.96-5.6-3.868-5.621-6.693-1.43,1.69-4.444.987-6.608-.048-1.138-.545-5.464-2.615-4.106-4.928-.125.088-.125.088-.238.034-.1-.2-1.921.415-2.149.305a9.557,9.557,0,0,1-2.355-.088,14.871,14.871,0,0,1-5.031-2.112,8.191,8.191,0,0,1-4.086-5.372c-2.81,3.666-12.573-1.335-11.371-5.433-1.109,2.138-2.835,3.09-5.112,2-1.822-.871-5.148-3.65-4.017-6.072-1.477.775-3.43,1.619-5.274,1.033s-5.192-3.078-2.7-4.848c-1.409-.082-4.707-.177-5.78-1.579A2.937,2.937,0,0,1,94.413,259.406Z" transform="translate(-80.814 -259.362)" fill="#68442a"/>
              <path id="Trazado_141638" data-name="Trazado 141638" d="M338.646,343.682c-.735-1.246-3.554-4.088-5.7-3.047l-.437.088c.346-1.613-4.436-7.777-8.358-3.137-.323-5.5-4.186-14.784-15.662-10.813a17.12,17.12,0,0,0-2.414,1.02c.082-.142.163-.283.239-.434,1.559-3.556-.718-6.582-4.758-7.636a5.67,5.67,0,0,0-4.935.589l.218-.044c-.106.1-.087.4-.2.35-.041-2.543-1.975-5.406-4.164-6.9a12.337,12.337,0,0,0-5.063-1.55c-2.543-.037-3.36,1.053-4.93,2.522.152-3.044-5.592-8.63-10.075-4.112-.124-.208-.037-.611-.158-.819-.956-1.2-.731-3.024-1.808-4.433a9.856,9.856,0,0,0-4.183-3.5,8.667,8.667,0,0,0-2.649-.539c-.021-1.758-1.731-3.1-3.684-4.146-3.419-1.8-7.342-.865-11.337-1.157,4.108-5.3-8.661-6.4-13.123-5.287,3.846-4.083-6.665-8.109-11.361-5.325,1.116-4.891-4.76-5.172-10.039-3.98a4.175,4.175,0,0,0-1.793-5.582A16.167,16.167,0,0,0,206,274.264c-2.333-.236-4.833.491-6.832.269-.334-.012-.873.173-1.206.16,4.939-4.3-4.782-6.164-9.026-5.092,1.571-1.471,2.843-2.34,1.976-3.947a8.6,8.6,0,0,0-3.806-2.725,23.944,23.944,0,0,0-11.073-.437c-.113-.055.323-.141.429-.24l.007.154c1.029-1.285.407-2.477-.748-3.329-2.782-2.233-7.782-2.714-12.3-.582-.189.1-.361.194-.538.292a7.278,7.278,0,0,0,.665-1.863c1.926-8.572-12.4-8.056-20.265-6.5,5.288-3.982-4.939-5.051-7.105-4.312l-.017-.308c.783-1.7-4.129-2.582-6.122-2.651-2.219-.179-6.8.879-5.778,3.152.508,1.135,4.738,1.688,6.521,1.955-4.366.863-1.584,3.1.443,3.776s5.1.382,7.515.06c-3,1.521-.429,3.951,1.389,4.825,2.275,1.1,5.123.689,7.916-.639-4.153,2.679,5.387,7.6,11.36,5.467-.811,1.5-.2,2.98,1.921,4.348a16.558,16.558,0,0,0,5.212,2.215,20.389,20.389,0,0,0,3.008.411c.228.109,2.979-.05,2.988.1.114.055.114.055.332.011-3.23,1.412,1.09,3.493,2.228,4.043,2.161,1.04,5.639,1.976,8.566,1.01-1.762,1.971,1.483,4.575,3.084,5.495,2.624,1.413,6.05,1.431,9.544.74-3.533,2.815,4.488,6.383,11.06,5.489-.629,3.759,9.8,3.891,13.231,3.693-2.268,2.767.47,4.234,3.172,5.091,3.269,1.131,6.33.526,9.972.5-1.357,3.205-.271,4.767,3.13,6.259a24.113,24.113,0,0,0,4.958,1.647c1.566.307,3.54.072,5.209.282-2.991,3.876,1.764,5.189,6.913,4.523.355,4.656,8.407,9.024,11.349,5.762a6.36,6.36,0,0,0,4.1,5.835c1.81.724,6.523,1.954,8.738.2-.424,2.173,2.009,4.085,4.169,5.127,1.137.547,5.457,2.63,6.413.123.01.153.01.153.122.208.22-.044.878,1.758,1.106,1.866a9.524,9.524,0,0,0,1.541,1.784,14.888,14.888,0,0,0,4.792,2.605,8.2,8.2,0,0,0,6.747-.17c-1.1,4.484,8.9,8.977,11.35,5.478-.977,2.2-.638,4.145,1.635,5.24,1.819.877,6.067,1.735,7.251-.661.317,1.636.881,3.688,2.491,4.761s5.648,2.128,5.469-.926c.945,1.049,3.081,3.562,4.846,3.523A2.936,2.936,0,0,0,338.646,343.682Z" transform="translate(-91.432 -254.07)" fill="#68442a"/>
              <path id="Trazado_141639" data-name="Trazado 141639" d="M170.086,229.766c1.432-.2,5.413.218,5.942,2.545l.206.4c1.043-1.28,8.843-1.4,7.675,4.561,4.5-3.186,14.154-5.976,18.231,5.464a16.806,16.806,0,0,1,.714,2.521c.061-.152.119-.3.19-.458,1.8-3.44,5.586-3.554,8.935-1.061a5.675,5.675,0,0,1,2.626,4.22l-.1-.2c-.011.144-.262.321-.147.376,2.008-1.559,5.453-1.839,7.99-1.068a12.361,12.361,0,0,1,4.375,2.982c1.619,1.962,1.28,3.281,1.114,5.425,2.281-2.022,10.232-1.033,9.509,5.291.24-.033.5-.353.739-.388,1.536-.005,2.816-1.32,4.591-1.361a9.85,9.85,0,0,1,5.347,1.076,8.679,8.679,0,0,1,2.077,1.729c1.385-1.082,3.5-.588,5.539.284,3.541,1.546,5.266,5.189,7.991,8.124,1.565-6.517,10.41,2.758,12.332,6.936.782-5.555,10.5.131,11.259,5.538,3.12-3.93,7.013.48,9.382,5.345a4.175,4.175,0,0,1,5.477-2.09,16.176,16.176,0,0,1,5.125,3.935c1.643,1.674,2.638,4.079,4.062,5.5.217.253.412.789.629,1.042.268-6.543,7.8-.123,9.617,3.86.166-2.145.049-3.682,1.844-4.009a8.593,8.593,0,0,1,4.507,1.267,23.939,23.939,0,0,1,7.264,8.368c.113.055-.094-.34-.082-.485l-.125.09c.361-1.607,1.678-1.866,3.066-1.5,3.483.775,6.983,4.376,8.142,9.232.042.208.073.4.108.6a7.264,7.264,0,0,1,1.039-1.684c5.486-6.863,14.043,4.643,17.745,11.751-.2-6.617,7.029.7,7.808,2.849l.25-.179c.836-1.673,4.6,1.607,5.9,3.12,1.527,1.62,3.563,5.855,1.153,6.481-1.2.312-4.281-2.642-5.6-3.868,2.056,3.948-1.425,3.172-3.225,2.015s-3.488-3.744-4.745-5.827c.689,3.294-2.814,2.8-4.635,1.933-2.277-1.09-3.74-3.568-4.451-6.578.507,4.916-9.3.551-11.37-5.448-.66,1.569-2.2,2.022-4.592,1.22a16.561,16.561,0,0,1-4.989-2.682,20.39,20.39,0,0,1-2.2-2.091c-.228-.11-1.824-2.356-1.95-2.266-.115-.055-.115-.055-.216-.252.917,3.4-3.408,1.332-4.548.788-2.163-1.036-5.068-3.165-6.144-6.054-.437,2.608-4.5,1.7-6.217,1.029-2.743-1.164-4.9-3.827-6.545-6.985.012,4.517-7.787.488-11.2-5.2-2.541,2.841-9.165-5.219-11.156-8.017-.741,3.5-3.6,2.281-5.956.709-2.926-1.846-4.367-4.61-6.625-7.469-1.653,3.062-3.551,3.192-6.842,1.47a24.077,24.077,0,0,1-4.386-2.839c-1.218-1.029-2.269-2.717-3.477-3.888-1.154,4.757-5.154,1.867-7.852-2.568-3.856,2.634-12.3-.919-11.594-5.254a6.361,6.361,0,0,1-7.117.449c-1.7-.96-5.6-3.868-5.622-6.693-1.428,1.69-4.444.987-6.606-.048-1.138-.545-5.465-2.615-4.106-4.928-.125.088-.125.088-.238.034-.1-.2-1.921.414-2.149.3a9.518,9.518,0,0,1-2.354-.088,14.869,14.869,0,0,1-5.031-2.112,8.194,8.194,0,0,1-4.087-5.371c-2.81,3.665-12.572-1.336-11.371-5.433-1.109,2.138-2.835,3.09-5.112,2-1.822-.871-5.147-3.65-4.017-6.073-1.476.775-3.43,1.619-5.274,1.033s-5.192-3.077-2.7-4.847c-1.409-.082-4.707-.178-5.779-1.58A2.936,2.936,0,0,1,170.086,229.766Z" transform="translate(-105.489 -249.697)" fill="#68442a"/>
            </g>
          </g>
        </g>
        <g id="Grupo_91523" data-name="Grupo 91523" transform="translate(48.401)">
          <g id="Grupo_91515" data-name="Grupo 91515" transform="translate(150.554 72.835)">
            <path id="Trazado_141641" data-name="Trazado 141641" d="M370.833,359.1c2.921,4.269,2.247,10.334,2.247,15.276" transform="translate(-370.833 -353.936)" fill="none" stroke="#6cd379" stroke-miterlimit="10" stroke-width="3"/>
            <path id="Trazado_141642" data-name="Trazado 141642" d="M377.4,351.436c.225,6.739-.9,13.7-.9,20.442" transform="translate(-372.681 -351.436)" fill="none" stroke="#6cd379" stroke-miterlimit="10" stroke-width="3"/>
            <path id="Trazado_141643" data-name="Trazado 141643" d="M384.92,354.1c-2.471,5.841-5.166,12.8-3.37,19.32" transform="translate(-374.137 -352.305)" fill="none" stroke="#6cd379" stroke-miterlimit="10" stroke-width="3"/>
            <path id="Trazado_141644" data-name="Trazado 141644" d="M387.189,370.436c-1.8,2.471-2.022,5.84-2.022,8.761" transform="translate(-375.507 -357.631)" fill="none" stroke="#6cd379" stroke-miterlimit="10" stroke-width="3"/>
          </g>
          <g id="Grupo_91516" data-name="Grupo 91516" transform="translate(10.583 52.435)">
            <path id="Trazado_141645" data-name="Trazado 141645" d="M163.141,328.832c2.921,4.269,2.247,10.335,2.247,15.276" transform="translate(-163.141 -323.666)" fill="none" stroke="#6cd379" stroke-miterlimit="10" stroke-width="3"/>
            <path id="Trazado_141646" data-name="Trazado 141646" d="M169.706,321.167c.225,6.739-.9,13.7-.9,20.442" transform="translate(-164.989 -321.167)" fill="none" stroke="#6cd379" stroke-miterlimit="10" stroke-width="3"/>
            <path id="Trazado_141647" data-name="Trazado 141647" d="M177.228,323.832c-2.471,5.841-5.166,12.8-3.37,19.32" transform="translate(-166.445 -322.036)" fill="none" stroke="#6cd379" stroke-miterlimit="10" stroke-width="3"/>
            <path id="Trazado_141648" data-name="Trazado 141648" d="M179.5,340.167c-1.8,2.47-2.022,5.84-2.022,8.761" transform="translate(-167.815 -327.362)" fill="none" stroke="#6cd379" stroke-miterlimit="10" stroke-width="3"/>
          </g>
          <g id="Grupo_91517" data-name="Grupo 91517" transform="translate(81.795 12.355)">
            <path id="Trazado_141649" data-name="Trazado 141649" d="M268.807,269.361c2.921,4.269,2.247,10.334,2.247,15.276" transform="translate(-268.807 -264.195)" fill="none" stroke="#6cd379" stroke-miterlimit="10" stroke-width="3"/>
            <path id="Trazado_141650" data-name="Trazado 141650" d="M275.372,261.7c.225,6.739-.9,13.7-.9,20.442" transform="translate(-270.655 -261.695)" fill="none" stroke="#6cd379" stroke-miterlimit="10" stroke-width="3"/>
            <path id="Trazado_141651" data-name="Trazado 141651" d="M282.894,264.361c-2.471,5.841-5.166,12.8-3.37,19.32" transform="translate(-272.111 -262.564)" fill="none" stroke="#6cd379" stroke-miterlimit="10" stroke-width="3"/>
            <path id="Trazado_141652" data-name="Trazado 141652" d="M285.163,280.7c-1.8,2.471-2.022,5.84-2.022,8.761" transform="translate(-273.481 -267.89)" fill="none" stroke="#6cd379" stroke-miterlimit="10" stroke-width="3"/>
          </g>
          <g id="Grupo_91518" data-name="Grupo 91518" transform="translate(12.175 28.037)">
            <path id="Trazado_141653" data-name="Trazado 141653" d="M165.5,292.63c2.921,4.269,2.247,10.334,2.247,15.276" transform="translate(-165.502 -287.464)" fill="none" stroke="#6cd379" stroke-miterlimit="10" stroke-width="3"/>
            <path id="Trazado_141654" data-name="Trazado 141654" d="M172.067,284.964c.225,6.739-.9,13.7-.9,20.442" transform="translate(-167.35 -284.964)" fill="none" stroke="#6cd379" stroke-miterlimit="10" stroke-width="3"/>
            <path id="Trazado_141655" data-name="Trazado 141655" d="M179.589,287.63c-2.471,5.841-5.166,12.8-3.37,19.32" transform="translate(-168.806 -285.833)" fill="none" stroke="#6cd379" stroke-miterlimit="10" stroke-width="3"/>
            <path id="Trazado_141656" data-name="Trazado 141656" d="M181.858,303.964c-1.8,2.471-2.022,5.84-2.022,8.761" transform="translate(-170.176 -291.159)" fill="none" stroke="#6cd379" stroke-miterlimit="10" stroke-width="3"/>
          </g>
          <g id="Grupo_91519" data-name="Grupo 91519" transform="translate(141.401 42.395)">
            <path id="Trazado_141657" data-name="Trazado 141657" d="M357.252,313.935c2.921,4.269,2.247,10.334,2.247,15.276" transform="translate(-357.252 -308.769)" fill="none" stroke="#6cd379" stroke-miterlimit="10" stroke-width="3"/>
            <path id="Trazado_141658" data-name="Trazado 141658" d="M363.817,306.269c.225,6.739-.9,13.7-.9,20.442" transform="translate(-359.1 -306.269)" fill="none" stroke="#6cd379" stroke-miterlimit="10" stroke-width="3"/>
            <path id="Trazado_141659" data-name="Trazado 141659" d="M371.339,308.935c-2.471,5.841-5.166,12.8-3.37,19.32" transform="translate(-360.556 -307.138)" fill="none" stroke="#6cd379" stroke-miterlimit="10" stroke-width="3"/>
            <path id="Trazado_141660" data-name="Trazado 141660" d="M373.608,325.269c-1.8,2.471-2.022,5.84-2.022,8.761" transform="translate(-361.926 -312.464)" fill="none" stroke="#6cd379" stroke-miterlimit="10" stroke-width="3"/>
          </g>
          <g id="Grupo_91520" data-name="Grupo 91520">
            <path id="Trazado_141661" data-name="Trazado 141661" d="M147.437,251.028c2.921,4.269,2.247,10.334,2.247,15.276" transform="translate(-147.437 -245.862)" fill="none" stroke="#6cd379" stroke-miterlimit="10" stroke-width="3"/>
            <path id="Trazado_141662" data-name="Trazado 141662" d="M154,243.362c.225,6.739-.9,13.7-.9,20.442" transform="translate(-149.285 -243.362)" fill="none" stroke="#6cd379" stroke-miterlimit="10" stroke-width="3"/>
            <path id="Trazado_141663" data-name="Trazado 141663" d="M161.524,246.028c-2.471,5.841-5.166,12.8-3.37,19.32" transform="translate(-150.741 -244.231)" fill="none" stroke="#6cd379" stroke-miterlimit="10" stroke-width="3"/>
            <path id="Trazado_141664" data-name="Trazado 141664" d="M163.793,262.362c-1.8,2.471-2.022,5.84-2.022,8.761" transform="translate(-152.111 -249.557)" fill="none" stroke="#6cd379" stroke-miterlimit="10" stroke-width="3"/>
          </g>
          <g id="Grupo_91521" data-name="Grupo 91521" transform="translate(61.918 80.175)">
            <path id="Trazado_141665" data-name="Trazado 141665" d="M239.312,369.994c2.92,4.269,2.246,10.334,2.246,15.276" transform="translate(-239.312 -364.828)" fill="none" stroke="#6cd379" stroke-miterlimit="10" stroke-width="3"/>
            <path id="Trazado_141666" data-name="Trazado 141666" d="M245.877,362.328c.224,6.739-.9,13.7-.9,20.442" transform="translate(-241.16 -362.328)" fill="none" stroke="#6cd379" stroke-miterlimit="10" stroke-width="3"/>
            <path id="Trazado_141667" data-name="Trazado 141667" d="M253.4,364.994c-2.471,5.841-5.166,12.8-3.37,19.32" transform="translate(-242.616 -363.197)" fill="none" stroke="#6cd379" stroke-miterlimit="10" stroke-width="3"/>
            <path id="Trazado_141668" data-name="Trazado 141668" d="M255.667,381.328c-1.8,2.471-2.022,5.84-2.022,8.761" transform="translate(-243.986 -368.523)" fill="none" stroke="#6cd379" stroke-miterlimit="10" stroke-width="3"/>
          </g>
          <g id="Grupo_91522" data-name="Grupo 91522" transform="translate(110.686 78.007)">
            <path id="Trazado_141669" data-name="Trazado 141669" d="M311.676,366.777c2.921,4.269,2.247,10.334,2.247,15.276" transform="translate(-311.676 -361.611)" fill="none" stroke="#6cd379" stroke-miterlimit="10" stroke-width="3"/>
            <path id="Trazado_141670" data-name="Trazado 141670" d="M318.242,359.111c.225,6.739-.9,13.7-.9,20.442" transform="translate(-313.524 -359.111)" fill="none" stroke="#6cd379" stroke-miterlimit="10" stroke-width="3"/>
            <path id="Trazado_141671" data-name="Trazado 141671" d="M325.763,361.777c-2.471,5.841-5.166,12.8-3.37,19.32" transform="translate(-314.98 -359.98)" fill="none" stroke="#6cd379" stroke-miterlimit="10" stroke-width="3"/>
            <path id="Trazado_141672" data-name="Trazado 141672" d="M328.032,378.111c-1.8,2.471-2.022,5.84-2.022,8.761" transform="translate(-316.35 -365.306)" fill="none" stroke="#6cd379" stroke-miterlimit="10" stroke-width="3"/>
          </g>
        </g>
      </g>
      <g id="Grupo_91531" data-name="Grupo 91531" transform="translate(141.314 0.022)">
        <g id="Grupo_91527" data-name="Grupo 91527" transform="translate(8.78 16.053)">
          <g id="Grupo_91525" data-name="Grupo 91525">
            <path id="Trazado_141673" data-name="Trazado 141673" d="M383.934,308.446c0,.5-.993.9-2.217.9s-2.217-.4-2.217-.9.993-.9,2.217-.9S383.934,307.949,383.934,308.446Z" transform="translate(-324.799 -280.365)" fill="#e2bb91"/>
            <path id="Trazado_141674" data-name="Trazado 141674" d="M388.385,305.164c0,.248-.516.449-1.152.449s-1.152-.2-1.152-.449.516-.45,1.152-.45S388.385,304.916,388.385,305.164Z" transform="translate(-326.945 -279.442)" fill="#e2bb91"/>
            <path id="Trazado_141675" data-name="Trazado 141675" d="M393.61,304.051c0,.187-.271.337-.6.337s-.6-.15-.6-.337.27-.337.6-.337S393.61,303.865,393.61,304.051Z" transform="translate(-329.007 -279.115)" fill="#e2bb91"/>
            <path id="Trazado_141676" data-name="Trazado 141676" d="M391.842,311.075c0,.476-.673.861-1.5.861s-1.5-.385-1.5-.861.674-.861,1.5-.861S391.842,310.6,391.842,311.075Z" transform="translate(-327.842 -281.235)" fill="#e2bb91"/>
            <path id="Trazado_141677" data-name="Trazado 141677" d="M398.761,297.556c0,.466-.8.842-1.8.842s-1.8-.377-1.8-.842.805-.842,1.8-.842S398.761,297.091,398.761,297.556Z" transform="translate(-329.908 -276.833)" fill="#e2bb91"/>
            <path id="Trazado_141678" data-name="Trazado 141678" d="M312.806,269.847c0,.524-.777.949-1.736.949s-1.737-.425-1.737-.949.778-.95,1.737-.95S312.806,269.322,312.806,269.847Z" transform="translate(-301.92 -267.763)" fill="#e2bb91"/>
            <path id="Trazado_141679" data-name="Trazado 141679" d="M319.652,267.781c0,.313-.855.567-1.91.567s-1.909-.254-1.909-.567.855-.567,1.909-.567S319.652,267.468,319.652,267.781Z" transform="translate(-304.04 -267.214)" fill="#e2bb91"/>
            <path id="Trazado_141680" data-name="Trazado 141680" d="M321.64,272.5c0,.433-.666.785-1.487.785s-1.487-.352-1.487-.785.667-.785,1.487-.785S321.64,272.066,321.64,272.5Z" transform="translate(-304.963 -268.681)" fill="#e2bb91"/>
            <path id="Trazado_141681" data-name="Trazado 141681" d="M304.144,270.78c0,.262-.88.474-1.967.474s-1.967-.212-1.967-.474.881-.475,1.967-.475S304.144,270.518,304.144,270.78Z" transform="translate(-298.945 -268.222)" fill="#e2bb91"/>
            <path id="Trazado_141682" data-name="Trazado 141682" d="M309.234,275.555c0,.373-.477.674-1.066.674s-1.065-.3-1.065-.674.476-.674,1.065-.674S309.234,275.183,309.234,275.555Z" transform="translate(-301.193 -269.714)" fill="#e2bb91"/>
            <ellipse id="Elipse_4090" data-name="Elipse 4090" cx="0.955" cy="0.337" rx="0.955" ry="0.337" transform="translate(0 5.167)" fill="#e2bb91"/>
          </g>
          <g id="Grupo_91526" data-name="Grupo 91526">
            <path id="Trazado_141683" data-name="Trazado 141683" d="M383.934,308.446c0,.5-.993.9-2.217.9s-2.217-.4-2.217-.9.993-.9,2.217-.9S383.934,307.949,383.934,308.446Z" transform="translate(-324.799 -280.365)" fill="#e2bb91"/>
            <path id="Trazado_141684" data-name="Trazado 141684" d="M388.385,305.164c0,.248-.516.449-1.152.449s-1.152-.2-1.152-.449.516-.45,1.152-.45S388.385,304.916,388.385,305.164Z" transform="translate(-326.945 -279.442)" fill="#e2bb91"/>
            <path id="Trazado_141685" data-name="Trazado 141685" d="M393.61,304.051c0,.187-.271.337-.6.337s-.6-.15-.6-.337.27-.337.6-.337S393.61,303.865,393.61,304.051Z" transform="translate(-329.007 -279.115)" fill="#e2bb91"/>
            <path id="Trazado_141686" data-name="Trazado 141686" d="M391.842,311.075c0,.476-.673.861-1.5.861s-1.5-.385-1.5-.861.674-.861,1.5-.861S391.842,310.6,391.842,311.075Z" transform="translate(-327.842 -281.235)" fill="#e2bb91"/>
            <path id="Trazado_141687" data-name="Trazado 141687" d="M398.761,297.556c0,.466-.8.842-1.8.842s-1.8-.377-1.8-.842.805-.842,1.8-.842S398.761,297.091,398.761,297.556Z" transform="translate(-329.908 -276.833)" fill="#e2bb91"/>
            <path id="Trazado_141688" data-name="Trazado 141688" d="M312.806,269.847c0,.524-.777.949-1.736.949s-1.737-.425-1.737-.949.778-.95,1.737-.95S312.806,269.322,312.806,269.847Z" transform="translate(-301.92 -267.763)" fill="#e2bb91"/>
            <path id="Trazado_141689" data-name="Trazado 141689" d="M319.652,267.781c0,.313-.855.567-1.91.567s-1.909-.254-1.909-.567.855-.567,1.909-.567S319.652,267.468,319.652,267.781Z" transform="translate(-304.04 -267.214)" fill="#e2bb91"/>
            <path id="Trazado_141690" data-name="Trazado 141690" d="M321.64,272.5c0,.433-.666.785-1.487.785s-1.487-.352-1.487-.785.667-.785,1.487-.785S321.64,272.066,321.64,272.5Z" transform="translate(-304.963 -268.681)" fill="#e2bb91"/>
            <path id="Trazado_141691" data-name="Trazado 141691" d="M304.144,270.78c0,.262-.88.474-1.967.474s-1.967-.212-1.967-.474.881-.475,1.967-.475S304.144,270.518,304.144,270.78Z" transform="translate(-298.945 -268.222)" fill="#e2bb91"/>
            <path id="Trazado_141692" data-name="Trazado 141692" d="M309.234,275.555c0,.373-.477.674-1.066.674s-1.065-.3-1.065-.674.476-.674,1.065-.674S309.234,275.183,309.234,275.555Z" transform="translate(-301.193 -269.714)" fill="#e2bb91"/>
            <ellipse id="Elipse_4091" data-name="Elipse 4091" cx="0.955" cy="0.337" rx="0.955" ry="0.337" transform="translate(0 5.167)" fill="#e2bb91"/>
          </g>
        </g>
        <path id="Trazado_141693" data-name="Trazado 141693" d="M342.073,250.443c.988-1.214.107-3.752,1.264-4.847,1.132-1.239,2.637-.3,3.992-.234a14.294,14.294,0,0,0,4.937-.842c7.33-1.7,14.326-1.849,21.145,2.217,3.2,2.142,5.516,5.183,7.948,8.054,1.509,1.834,2.33,1.4,4.416,2.235,2.281,1.1,1.8,2.68-.326,3.342-3.119.981-6.022,1.476-9.067,2.893-3.021,1.561-6.522,3.8-8.059,7.053-.768,1.626-.857,3.732-2.62,4.78-2.2,1.347-6.037,1.148-8.526,1.318a37.89,37.89,0,0,1-9.492-.33c-7.529-1.394-13.1-3.5-17.463-10.169-2.022-3.092-2.84-7.882-.553-11.111,1.71-2.235,6.4-3.633,9.184-3.959Z" transform="translate(-299.321 -243.395)" fill="#af9f95"/>
        <path id="Trazado_141694" data-name="Trazado 141694" d="M363.319,279.072c2.494-.784,2.88-3.333,2.649-6.3-.206-2.644-1.987-5.095-3.765-6.912-5.513-5.742-12.848-7.892-20.549-7.686-2.692.159-7.516.313-9.095,3.189-1.2,2.6-.176,7.594,1.41,9.85,4.57,6.507,11.576,8.413,18.735,8.536C355.112,279.791,359.864,280.156,363.319,279.072Z" transform="translate(-300.542 -248.21)" fill="#917f73"/>
        <path id="Trazado_141695" data-name="Trazado 141695" d="M353.768,252.75c2.274-.687,5.864,1.09,7.8,1.954,5.967,2.567,9.518,6.742,13.243,11.933.491-4.118-3.81-8.314-6.6-10.676a19.81,19.81,0,0,0-9.581-4.489c2.589-.591,7,.747,9.135,1.877,2.96,1.585,6.483,4.719,7.779,7.934" transform="translate(-307.629 -245.981)" fill="none" stroke="#917f73" stroke-miterlimit="10" stroke-width="1"/>
        <g id="Grupo_91530" data-name="Grupo 91530" transform="translate(0 9.952)">
          <g id="Grupo_91529" data-name="Grupo 91529" clip-path="url(#clip-path-2)">
            <path id="Trazado_141696" data-name="Trazado 141696" d="M288.226,278.616c.065-.859,1.21-1.2,1.887-.958-1.138-.866,1.907-1.669,2.687-1.237.649-1.171,2.559-1.992,3.663-.908a2.066,2.066,0,0,1,3.122-1.169c.64-.816,1.552-1.678,2.507-.639.594-.668,1.554-1.256,2.393-.48-.348-1.213,1.44-1.093,1.969-.477-.843-1.623,1.175-1.4,2.1-.925-.381-.572.053-.929.6-1.022.607-.174.8.146,1.286.488.006-1.2,1.885-1.383,2.473-.423-.03-1.833,1.068-2.445,2.551-1.213a1.58,1.58,0,0,1,2.725-.607c-.143-1.194.695-1.554,1.663-1.306.061-.149.123-.3.187-.445-.255-.732-.175-1.475.715-1.459.127-.233.263-.458.4-.679-.019-.7.224-1.218.891-1.216a9.338,9.338,0,0,1,.645-.685,1.765,1.765,0,0,1,1.917-1.462c.088-.055.178-.108.266-.162.021-1.072.257-1.142,1.25-1.578.194-.1.3.091.423,0s.216-.39.41-.494c.321-.2.778-.416,1.112-.119.294-.758,2.022-1.406,2.689-.813.053-.929,1.062-.818,1.68-.923a13.015,13.015,0,0,1,2.289-.674,9.119,9.119,0,0,1,3.835.689,3.031,3.031,0,0,1,2.522,1.761c.007.025.01.053.017.079l9.755,8.292c.392.641.533,1.465-.452,1.492,1.194.361,1.129,1.646.261,2.359a1.33,1.33,0,0,1,.261,2.36c1.444.177,1.588,1.85.493,2.884,1.6-.555,1.518,1.439.811,2.266.939-.3,3.026.331,1.84,1.665.962-.164,1.9-.466,2.477.426a1.111,1.111,0,0,1-.818,1.836c2.339.449.834,2.4-1.092,1.884.485,1.19-1.207,2.044-2.173,1.36.419,1.626-1.347,1.221-2.034,1.338-.138.024-.483-.342-.757-.294s-.456.642-.731.691c-.687.117-.915.439-1.535.119.67,1.442-2.01,1.475-2.839.768a1.37,1.37,0,0,1-2.426.7c-.823.746-1.45.623-1.932.059-.452,1.007-1.725,1.607-2.512.417-.317,1.044-2.284,1.946-2.68.458-.517.581-2.436,1.456-2.915.59-.005.988-1.616,1.038-2.248.221.108,1.466-2.024.983-2.11-.346-.327,1.4-1.795,1.084-1.937-.164-.236,1.1-1.979.834-2.281-.105.129.755-.923,1.219-1.52,1.037a1.756,1.756,0,0,1-.98-1.6c-.017,1.559-2.071.707-1.9-.381-.935,1.15-2.187.444-1.941-1.012-.4.987-1.417.807-1.832.031.327,1.5-1.516,1.884-2.163.58.117.687.246,1.443-.671,1.458-.767.061-1.344-.83-1.517-1.437-.053,1.353-1.625.843-2.12.009a1.493,1.493,0,0,1-.144-.445,2.586,2.586,0,0,1-.4.183c-.607.175-1.868-.177-1.15-.935a3.951,3.951,0,0,1-1.957.547c-.607-.094-1.24-.727-.574-1-.858.241-3.618.57-2.4-.679a2.491,2.491,0,0,1-1.946.615c-.6-.181-1.3-.981-.682-1.51-.594.243-1.178.555-1.638-.074a.7.7,0,0,1,.292-1.181c-.71-.02-1.648.282-2.3-.244-.816-.638-.405-1.132.4-1.41-1.5-.1-1.793-1.392-.26-1.936-.985.027-2.055-1.275-.8-1.772-.882.221-2.026.559-2.363-.586-.695.9-2.264,1.235-2.578-.2C289.81,279.194,288.128,280.117,288.226,278.616Z" transform="translate(-286.256 -257.788)" fill="#e2bb91"/>
            <g id="Grupo_91528" data-name="Grupo 91528" transform="translate(11.432 8.347)">
              <path id="Trazado_141697" data-name="Trazado 141697" d="M343.625,274.059c0,.652-.867,1.179-1.938,1.179s-1.938-.528-1.938-1.179.868-1.179,1.938-1.179S343.625,273.408,343.625,274.059Z" transform="translate(-314.489 -271.308)" fill="#c96"/>
              <path id="Trazado_141698" data-name="Trazado 141698" d="M350.913,274.494c0,.249-.5.45-1.123.45s-1.123-.2-1.123-.45.5-.45,1.123-.45S350.913,274.245,350.913,274.494Z" transform="translate(-317.397 -271.687)" fill="#c96"/>
              <path id="Trazado_141699" data-name="Trazado 141699" d="M352.648,279.359c0,.427-.518.773-1.157.773s-1.157-.346-1.157-.773.518-.773,1.157-.773S352.648,278.932,352.648,279.359Z" transform="translate(-317.941 -273.168)" fill="#c96"/>
              <path id="Trazado_141700" data-name="Trazado 141700" d="M349.79,286.269a.582.582,0,1,1-.562-.735A.665.665,0,0,1,349.79,286.269Z" transform="translate(-317.397 -275.434)" fill="#c96"/>
              <path id="Trazado_141701" data-name="Trazado 141701" d="M335.742,282.807c0,.144-.427.26-.954.26s-.954-.117-.954-.26.427-.26.954-.26S335.742,282.664,335.742,282.807Z" transform="translate(-312.56 -274.46)" fill="#c96"/>
              <path id="Trazado_141702" data-name="Trazado 141702" d="M341.389,280.539c0,.283-.572.512-1.278.512s-1.278-.229-1.278-.512.572-.513,1.278-.513S341.389,280.256,341.389,280.539Z" transform="translate(-314.191 -273.638)" fill="#c96"/>
              <path id="Trazado_141703" data-name="Trazado 141703" d="M368.264,278.639c0,.6-.768,1.092-1.716,1.092s-1.715-.489-1.715-1.092.768-1.092,1.715-1.092S368.264,278.036,368.264,278.639Z" transform="translate(-322.668 -272.829)" fill="#c96"/>
              <path id="Trazado_141704" data-name="Trazado 141704" d="M373.9,283.062c0,.073-.2.131-.449.131s-.449-.058-.449-.131.2-.129.449-.129S373.9,282.991,373.9,283.062Z" transform="translate(-325.331 -274.586)" fill="#c96"/>
              <path id="Trazado_141705" data-name="Trazado 141705" d="M376.58,278.093c0,.3-.5.546-1.123.546s-1.123-.245-1.123-.546.5-.546,1.123-.546S376.58,277.792,376.58,278.093Z" transform="translate(-325.766 -272.829)" fill="#c96"/>
              <path id="Trazado_141706" data-name="Trazado 141706" d="M364.649,272.278c0,.5-.779.9-1.741.9s-1.741-.4-1.741-.9.78-.9,1.741-.9S364.649,271.782,364.649,272.278Z" transform="translate(-321.473 -270.819)" fill="#c96"/>
              <path id="Trazado_141707" data-name="Trazado 141707" d="M367.746,284.065c0,.412-.5.747-1.123.747s-1.123-.334-1.123-.747.5-.746,1.123-.746S367.746,283.653,367.746,284.065Z" transform="translate(-322.886 -274.712)" fill="#c96"/>
              <path id="Trazado_141708" data-name="Trazado 141708" d="M370.53,292.057c0,.562-.7,1.018-1.576,1.018s-1.575-.456-1.575-1.018.7-1.016,1.575-1.016S370.53,291.5,370.53,292.057Z" transform="translate(-323.499 -277.229)" fill="#c96"/>
              <path id="Trazado_141709" data-name="Trazado 141709" d="M360.243,276.11a.99.99,0,1,1-.955-.73A.865.865,0,0,1,360.243,276.11Z" transform="translate(-320.549 -272.123)" fill="#c96"/>
              <path id="Trazado_141710" data-name="Trazado 141710" d="M358.185,271.276a.851.851,0,1,1-.842-.729A.792.792,0,0,1,358.185,271.276Z" transform="translate(-319.951 -270.547)" fill="#c96"/>
              <path id="Trazado_141711" data-name="Trazado 141711" d="M315.818,285.151c0,.4-.536.725-1.2.725s-1.2-.325-1.2-.725.536-.725,1.2-.725S315.818,284.751,315.818,285.151Z" transform="translate(-305.906 -275.073)" fill="#c96"/>
              <path id="Trazado_141712" data-name="Trazado 141712" d="M320.859,284.042c0,.4-.528.723-1.179.723s-1.179-.324-1.179-.723.528-.723,1.179-.723S320.859,283.642,320.859,284.042Z" transform="translate(-307.561 -274.712)" fill="#c96"/>
              <path id="Trazado_141713" data-name="Trazado 141713" d="M327.272,289.609c0,.4-.471.728-1.052.728s-1.053-.326-1.053-.728.472-.729,1.053-.729S327.272,289.206,327.272,289.609Z" transform="translate(-309.735 -276.525)" fill="#c96"/>
              <path id="Trazado_141714" data-name="Trazado 141714" d="M323.46,295.661c0,.155-.327.28-.73.28s-.731-.125-.731-.28.328-.281.731-.281S323.46,295.506,323.46,295.661Z" transform="translate(-308.702 -278.644)" fill="#c96"/>
              <path id="Trazado_141715" data-name="Trazado 141715" d="M312.612,290.945c0,.338-.578.613-1.29.613s-1.291-.274-1.291-.613.578-.613,1.291-.613S312.612,290.606,312.612,290.945Z" transform="translate(-304.8 -276.998)" fill="#c96"/>
              <path id="Trazado_141716" data-name="Trazado 141716" d="M319.182,291.549c0,.281-.494.508-1.1.508s-1.1-.227-1.1-.508.494-.508,1.1-.508S319.182,291.268,319.182,291.549Z" transform="translate(-307.063 -277.229)" fill="#c96"/>
              <path id="Trazado_141717" data-name="Trazado 141717" d="M315.96,296.64c0,.237-.47.427-1.049.427s-1.049-.191-1.049-.427.47-.427,1.049-.427S315.96,296.4,315.96,296.64Z" transform="translate(-306.048 -278.916)" fill="#c96"/>
              <path id="Trazado_141718" data-name="Trazado 141718" d="M305.526,286.517c0,.543-.729.983-1.629.983s-1.63-.441-1.63-.983.729-.983,1.63-.983S305.526,285.974,305.526,286.517Z" transform="translate(-302.268 -275.434)" fill="#c96"/>
              <path id="Trazado_141719" data-name="Trazado 141719" d="M343.383,302c0,.341-.594.617-1.326.617s-1.328-.276-1.328-.617.594-.618,1.328-.618S343.383,301.657,343.383,302Z" transform="translate(-314.809 -280.601)" fill="#c96"/>
              <path id="Trazado_141720" data-name="Trazado 141720" d="M335.959,300.351c0,.289-.327.523-.729.523s-.73-.234-.73-.523.327-.523.73-.523S335.959,300.062,335.959,300.351Z" transform="translate(-312.778 -280.095)" fill="#c96"/>
              <path id="Trazado_141721" data-name="Trazado 141721" d="M339.4,297.06c0,.117-.613.213-1.369.213s-1.369-.1-1.369-.213.613-.214,1.369-.214S339.4,296.942,339.4,297.06Z" transform="translate(-313.484 -279.122)" fill="#c96"/>
              <path id="Trazado_141722" data-name="Trazado 141722" d="M348.467,295.233c0,.275-.478.5-1.067.5s-1.068-.223-1.068-.5.478-.5,1.068-.5S348.467,294.958,348.467,295.233Z" transform="translate(-316.636 -278.434)" fill="#c96"/>
              <path id="Trazado_141723" data-name="Trazado 141723" d="M352.919,300.089c0,.145-.25.262-.558.262s-.557-.117-.557-.262.249-.261.557-.261S352.919,299.945,352.919,300.089Z" transform="translate(-318.42 -280.095)" fill="#c96"/>
              <ellipse id="Elipse_4092" data-name="Elipse 4092" cx="1.32" cy="0.728" rx="1.32" ry="0.728" transform="translate(25.26 12.355)" fill="#c96"/>
              <path id="Trazado_141724" data-name="Trazado 141724" d="M358.592,291.3c0,.14-.189.254-.421.254s-.421-.114-.421-.254.189-.254.421-.254S358.592,291.154,358.592,291.3Z" transform="translate(-320.359 -277.229)" fill="#c96"/>
              <path id="Trazado_141725" data-name="Trazado 141725" d="M364.127,296.64c0,.237-.327.427-.73.427s-.73-.191-.73-.427.328-.427.73-.427S364.127,296.4,364.127,296.64Z" transform="translate(-321.962 -278.916)" fill="#c96"/>
              <path id="Trazado_141726" data-name="Trazado 141726" d="M364.576,287.629c0,.351-.427.636-.954.636s-.955-.285-.955-.636.427-.636.955-.636S364.576,287.277,364.576,287.629Z" transform="translate(-321.962 -275.91)" fill="#c96"/>
              <path id="Trazado_141727" data-name="Trazado 141727" d="M360.257,285.151a.973.973,0,1,1-.94-.725A.854.854,0,0,1,360.257,285.151Z" transform="translate(-320.563 -275.073)" fill="#c96"/>
              <path id="Trazado_141728" data-name="Trazado 141728" d="M329.27,279.713c0,.3-.569.546-1.27.546s-1.271-.245-1.271-.546.569-.546,1.271-.546S329.27,279.412,329.27,279.713Z" transform="translate(-310.244 -273.358)" fill="#c96"/>
              <path id="Trazado_141729" data-name="Trazado 141729" d="M324.488,301.689c0,.171-.314.309-.7.309s-.7-.139-.7-.309.314-.309.7-.309S324.488,301.519,324.488,301.689Z" transform="translate(-309.055 -280.601)" fill="#c96"/>
              <path id="Trazado_141730" data-name="Trazado 141730" d="M327.762,299.959c0,.072-.394.13-.882.13s-.881-.058-.881-.13.394-.131.881-.131S327.762,299.887,327.762,299.959Z" transform="translate(-310.006 -280.095)" fill="#c96"/>
              <path id="Trazado_141731" data-name="Trazado 141731" d="M308.262,296.64c0,.237-.5.427-1.107.427s-1.108-.191-1.108-.427.5-.427,1.108-.427S308.262,296.4,308.262,296.64Z" transform="translate(-303.5 -278.916)" fill="#c96"/>
              <path id="Trazado_141732" data-name="Trazado 141732" d="M361.471,301.182c0,.319-.553.578-1.235.578S359,301.5,359,301.182s.554-.578,1.236-.578S361.471,300.863,361.471,301.182Z" transform="translate(-320.767 -280.348)" fill="#c96"/>
              <path id="Trazado_141733" data-name="Trazado 141733" d="M372.446,299.572c0,.289-.563.524-1.261.524s-1.261-.235-1.261-.524.565-.525,1.261-.525S372.446,299.282,372.446,299.572Z" transform="translate(-324.328 -279.84)" fill="#c96"/>
              <path id="Trazado_141734" data-name="Trazado 141734" d="M380.293,291.548c0,.282-.327.509-.731.509s-.73-.227-.73-.509.328-.508.73-.508S380.293,291.268,380.293,291.548Z" transform="translate(-327.233 -277.229)" fill="#c96"/>
              <path id="Trazado_141735" data-name="Trazado 141735" d="M382.8,296.533c0,.177-.4.32-.9.32s-.9-.143-.9-.32.4-.32.9-.32S382.8,296.357,382.8,296.533Z" transform="translate(-327.94 -278.916)" fill="#c96"/>
            </g>
          </g>
        </g>
      </g>
    </g>
    <g id="OBJECTS" transform="translate(135.602 88.732)">
      <g id="Grupo_91556" data-name="Grupo 91556" transform="translate(0)">
        <path id="Trazado_141737" data-name="Trazado 141737" d="M224.264,303.21c-5.19-1.027-49.614-7.738-45.206,4.017.65,1.733,1.734,1.733.434,3.251-1.084,1.083-3.9,1.3-5.2,1.517-3.035.433-6.719.65-8.453,3.685-7.586,13.221,22.542,23.191,30.778,25.792,12.572,3.9,24.708,7.587,37.93,8.453A37.121,37.121,0,0,0,243,349.71c3.469-.435,5.2-1.735,8.02-3.469,4.769-3.035,11.7.65,17.123.433,4.985-.217,13.871-1.734,16.472-6.935,3.469-6.936-8.669-10.187-12.57-12.789-3.035-2.167-.65-5.2-3.686-7.37a82.1,82.1,0,0,0-23.016-10.99C238.386,306.579,231.375,304.619,224.264,303.21Z" transform="translate(-164.623 -157.742)" fill="#917f73" opacity="0.5" style="mix-blend-mode: multiply;isolation: isolate"/>
        <g id="Grupo_91555" data-name="Grupo 91555" transform="translate(23.443)">
          <g id="Grupo_91537" data-name="Grupo 91537" transform="translate(0.536 75.969)">
            <g id="Grupo_91532" data-name="Grupo 91532" transform="translate(35.398 61.496)">
              <path id="Trazado_141738" data-name="Trazado 141738" d="M254.573,338.707c-1.516.168-1.348,1.853-1.348,3.2,0,2.19-.168,3.033,1.853,3.875a8.2,8.2,0,0,0,4.886.337c.842-.337,1.011-1.348,1.853-1.179,1.348.168,1.011,1.516,1.516,2.19,1.347,1.348,3.2,1.685,5.054,1.853A28.156,28.156,0,0,0,279,348.648c1.853-.505,4.717-2.7,3.2-5.223-1.179-1.853-5.223,0-7.245,0a15.282,15.282,0,0,1-7.245-1.685c-2.022-.842-4.044-2.359-6.4-2.19Z" transform="translate(-252.888 -307.706)" fill="#ccb36d"/>
              <path id="Trazado_141739" data-name="Trazado 141739" d="M252.728,294.56s.505,10.446.842,15.669c.169,1.853.169,3.538.169,5.391s-.674,3.2-.842,5.054c-.168,1.348-.337,3.707.505,4.549,1.011,1.179,3.875,1.516,5.391,1.685.674.168,2.022-.168,2.864.168,1.011.337,1.853,1.516,3.032,2.022a16.475,16.475,0,0,0,6.4,1.011c3.37,0,10.1-.366,10.614-2.19.3-5.027-2.7-5.728-6.065-7.076-1.685-.842-3.875-1.011-5.055-2.7-.842-1.516-.674-3.875-.842-5.56-.505-3.707-.674-7.413-.842-11.12-.168-2.022.169-8.761.169-8.761Z" transform="translate(-252.728 -292.707)" fill="#ffe576"/>
            </g>
            <g id="Grupo_91533" data-name="Grupo 91533" transform="translate(0.26 61.553)">
              <path id="Trazado_141740" data-name="Trazado 141740" d="M201.087,338.791c0,1.8-.561,3.931-.45,5.728A2.259,2.259,0,0,0,203,346.653c1.8.225,1.91,0,3.145,1.573,2.022,2.7,3.819,4.155,7.3,4.381a43.148,43.148,0,0,0,7.638.224c1.685-.224,4.829-.561,5.953-1.8,1.685-1.685,1.011-4.718-1.572-3.818-2.471,1.011-5.728,2.583-7.975.337-1.235-1.236-.786-2.921-1.572-4.156-.9-1.348-2.808-1.572-4.156-2.022Z" transform="translate(-200.601 -307.79)" fill="#ccb36d"/>
              <path id="Trazado_141741" data-name="Trazado 141741" d="M202.537,293.015c0,5.167-.113,10.333-.337,15.388-.113,2.7-.45,5.28-.45,7.863,0,2.7-1.011,4.717-1.011,7.3,0,.562-.337,2.584,0,3.033.561.786,2.359.562,3.145.9,1.235.561,1.8,2.022,2.7,3.145a12.745,12.745,0,0,0,3.257,2.808c4.493,2.808,9.659,2.583,14.6,1.011a6.641,6.641,0,0,0,2.92-2.04c.587-4.587-1.909-5.486-4.493-6.834-2.471-1.235-5.616-2.7-6.177-5.728-.562-2.7,0-5.953.224-8.649.45-6.065.561-12.355,1.46-18.421Z" transform="translate(-200.59 -292.791)" fill="#ffe576"/>
            </g>
            <g id="Grupo_91536" data-name="Grupo 91536">
              <path id="Trazado_141742" data-name="Trazado 141742" d="M202.748,204.321c1.685,8.087,1.011,16.68,1.011,24.936,0,3.538-.168,6.908-.168,10.446-.168,1.685-.337,3.37-.337,5.054,0,2.864-1.011,2.864-2.359,5.223-2.022,3.875,2.7,5.9.842,9.435-1.011,2.022-2.7,3.033-.337,4.886a11.926,11.926,0,0,0,5.391,1.685,35.053,35.053,0,0,0,11.12-.505c2.022-.505,3.875-1.011,3.033-3.37-.168-.674-1.348-1.516-1.179-2.19.337-1.179,2.022-1.179,2.19-2.527.168-1.685-1.853-2.527-1.685-4.381.168-1.179,1.348-3.033,1.685-4.381.842-3.37,3.622-26.283,4.633-28.811,0,0,7.5,34.034,7.5,34.876-.168,1.685-.842.842-1.684,2.022-.842,1.011-.842,1.685,0,2.527,1.01,1.179,1.516-.168,1.179,1.685-.337,2.359-2.19,3.033.842,4.381,3.2,1.516,7.413,1.179,10.783.842,2.358-.168,9.266.337,10.108-2.7.505-2.022-2.19-3.033-1.853-5.054.168-1.011,1.011-1.179.674-2.527-.337-1.179-1.853-1.516-2.527-2.7-1.179-2.7-.337-7.75-.505-10.614a60.687,60.687,0,0,0-2.022-10.783c-1.011-3.37-.842-6.739-1.179-10.277-.674-6.739-2.358-13.479-3.706-20.049Z" transform="translate(-200.204 -201.457)" fill="#cdaa80"/>
              <g id="Grupo_91534" data-name="Grupo 91534" transform="translate(4.785 51.724)">
                <path id="Trazado_141743" data-name="Trazado 141743" d="M218.9,278.207c-3.37,1.432-8,.842-11.541.842" transform="translate(-207.32 -278.207)" fill="none" stroke="#967654" stroke-miterlimit="10" stroke-width="1"/>
                <path id="Trazado_141744" data-name="Trazado 141744" d="M207.843,282.707c.842,1.348,4.8,1.516,6.15,1.685,2.19.084,4.465-.084,6.571,0,0,1.348-3.959,2.022-5.055,2.106a20.878,20.878,0,0,1-6.065-.505c-.337-.084-1.6-.505-1.938-.253-.674.505.505,1.432,1.011,1.685,2.78,1.853,7.076,1.769,10.193,1.348" transform="translate(-207.303 -279.674)" fill="none" stroke="#967654" stroke-miterlimit="10" stroke-width="1"/>
              </g>
              <g id="Grupo_91535" data-name="Grupo 91535" transform="translate(36.325 51.64)">
                <path id="Trazado_141745" data-name="Trazado 141745" d="M266.233,278.082a30.709,30.709,0,0,1-6.823,1.432c-1.348.253-4.549-.084-5.307,1.432,2.106.758,4.97.337,7.245.59,1.853.168,4.464.084,6.149.927.842.421.842.59,0,1.1a23.148,23.148,0,0,1-3.959,1.1,16.628,16.628,0,0,1-4.97.842c-1.516-.084-2.948-.59-4.465-.674" transform="translate(-254.103 -278.082)" fill="none" stroke="#967654" stroke-miterlimit="10" stroke-width="1"/>
                <path id="Trazado_141746" data-name="Trazado 141746" d="M254.6,290.628c1.516.758,3.707.674,5.307.758,2.948.168,6.233.337,8.929-1.179" transform="translate(-254.266 -282.036)" fill="none" stroke="#967654" stroke-miterlimit="10" stroke-width="1"/>
              </g>
            </g>
          </g>
          <g id="Grupo_91548" data-name="Grupo 91548" transform="translate(0 25.241)">
            <g id="Grupo_91539" data-name="Grupo 91539" transform="translate(55.646 8.125)">
              <path id="Trazado_141747" data-name="Trazado 141747" d="M289.077,175.706s.05,15,.944,16.724c3,5.783,9.66,15.556,11.907,20.274,2.246,4.044-2.022,9.66,4.717,11.232,2.246.45,6.065-.224,6.289-2.92.225-2.471-2.471-3.819-3.593-5.841-2.247-4.044-9.374-20.752-10.273-25.02s-.96-11.6-.96-15.865Z" transform="translate(-284.292 -149.996)" fill="#f7a87f"/>
              <g id="Grupo_91538" data-name="Grupo 91538">
                <path id="Trazado_141748" data-name="Trazado 141748" d="M288.11,138.242c4.875,6.323,7.514,9.748,8.188,16.151.168,2.19,0,3.37,1.179,5.223a16.092,16.092,0,0,1,2.022,2.7c.674,1.516,1.011,1.011-.337,2.19-2.359,2.19-8.593,2.359-11.794,2.527a39.565,39.565,0,0,1-4.549.168c-.168-1.179.337-2.022.337-3.033a9.971,9.971,0,0,0-.842-3.2,39.724,39.724,0,0,1-.337-6.234Z" transform="translate(-281.977 -138.242)" fill="#2a495e"/>
                <path id="Trazado_141749" data-name="Trazado 141749" d="M294.929,168.867c-2.471.7-6.065,1.249-7.638,2.889,2.809,1.016,6.516-.156,9.435.469-.112.937-3.033,1.249-4.044,1.405-2.359.391-4.492.547-6.514-.468" transform="translate(-283.344 -148.228)" fill="none" stroke="#3c697c" stroke-miterlimit="10" stroke-width="1"/>
              </g>
            </g>
            <g id="Grupo_91540" data-name="Grupo 91540">
              <path id="Trazado_141750" data-name="Trazado 141750" d="M199.68,179.834a15.206,15.206,0,0,0,4.044.9,42.024,42.024,0,0,0,8.424.9c6.852.225,13.928.45,20.779.113,4.717-.224,9.1-2.022,13.7-2.808-.337-2.583-3.145-4.829-3.593-7.525-.449-1.91,1.572-1.123,2.471-2.7s-.9-3.145-1.8-4.269c-1.348-1.685.449-2.246,1.909-3.37,1.347-1.011,2.583-2.022,3.931-3.033,2.584-1.909,4.718-4.155,7.076-6.177,4.044-3.37,10.109-8.087,7.076-13.816-3.033-5.617-8.649-10.334-14.938-11.457-5.728-1.011-12.019,0-17.522,1.46a34.906,34.906,0,0,0-15.388,8.256c-4.381,4.381-8.087,8.368-10.333,14.1a78.708,78.708,0,0,0-3.033,8.087,20.945,20.945,0,0,0-.786,3.819c-.224,1.8-.9,2.359-1.8,3.819-1.572,2.471,1.123,3.932.786,6.4-.224,1.348-1.011,3.37-1.235,4.493Z" transform="translate(-199.408 -126.185)" fill="#3c697c"/>
              <path id="Trazado_141751" data-name="Trazado 141751" d="M271.106,145.666c-1.123.449-1.685,1.123-2.808,1.46a7.935,7.935,0,0,1-6.739-1.011c-5.28-3.594-3.932-13.029,2.246-14.827a8.909,8.909,0,0,1,9.434,3.033,7.677,7.677,0,0,1,1.348,4.943c-.112,1.235-.561,3.931-1.8,4.492Z" transform="translate(-218.605 -127.735)" fill="#dd7a66"/>
              <path id="Trazado_141752" data-name="Trazado 141752" d="M243.127,183.124c-7.413,2.359-15.949.561-23.587,1.235-1.011.113-3.931-.224-3.482,1.46.449,1.572,5.055,2.022,6.29,2.134a78.285,78.285,0,0,0,15.387-.225c1.236-.224,7.076-1.572,7.076.45,0,2.583-7.75,3.37-9.322,3.594a45.043,45.043,0,0,1-11.008.786c-3.707-.113-7.076-1.46-10.67-2.359" transform="translate(-204.105 -144.751)" fill="none" stroke="#2a495e" stroke-miterlimit="10" stroke-width="1"/>
            </g>
            <g id="Grupo_91547" data-name="Grupo 91547" transform="translate(15.548 10.151)">
              <path id="Trazado_141753" data-name="Trazado 141753" d="M231.479,174.737a138.836,138.836,0,0,1,.449,15.275,15.8,15.8,0,0,0,0,3.258,6.752,6.752,0,0,0,2.471,3.145,36.422,36.422,0,0,0,6.4,5.28c4.38,2.808,8.76,6.29,13.478,8.536,1.8.9,5.391.562,4.044-2.246-1.236-2.471-4.6-4.493-6.514-6.29-2.471-2.247-4.493-4.718-7.076-6.852a21.529,21.529,0,0,1-3.257-3.145c-.9-1.123-.674-1.909-.561-3.37.224-4.6,0-9.1,0-13.7Z" transform="translate(-225.414 -152.13)" fill="#f7a87f"/>
              <g id="Grupo_91544" data-name="Grupo 91544" transform="translate(9.198 52.245)">
                <path id="Trazado_141754" data-name="Trazado 141754" d="M265.478,218.957a16.6,16.6,0,0,0,3.706,1.91c1.685.561,4.718-.225,5.954,1.011.9,1.011.674,2.471,1.348,3.482.337.562,2.247,2.359,1.8,3.145-.561.674-6.177-1.123-7.076-1.46-1.011-.337-4.829-1.46-4.941-2.359Z" transform="translate(-245.697 -218.831)" fill="#f7a87f"/>
                <g id="Grupo_91541" data-name="Grupo 91541">
                  <path id="Trazado_141755" data-name="Trazado 141755" d="M349.809,253.492s-92.548-28.528-109.175-34.371c-1.273-.447-2.937-.654-3.841.548-.973,1.3-.966,3.956.609,4.7,1.314.619,3.1.657,4.5,1.078q3.715,1.113,7.427,2.233,11.265,3.394,22.525,6.807,13.539,4.1,27.073,8.206,13.454,4.085,26.9,8.2,10.088,3.094,20.157,6.237c.678.211,1.356.42,2.033.634C348.012,257.76,351.38,258.209,349.809,253.492Z" transform="translate(-236.127 -218.77)" fill="#4a281e"/>
                  <path id="Trazado_141756" data-name="Trazado 141756" d="M420.57,301.074c-.168-2.19-1.853-16.6-2.106-20.471a29.145,29.145,0,0,0-1.1-5.391,4.967,4.967,0,0,0-.907-2.135c-1.062-1.709-3.13-2.164-4.849-2.863-1.179-.449-2.3-.9-3.482-1.4a36.217,36.217,0,0,0-3.988-1.8c-2.359-.562-4.492,3.033-4.773,5-.113,1.068-.113,3.426.842,4.212a6.94,6.94,0,0,0,1.628.562c.505.169,1.011.449,1.573.617,1.284.467,3,1.125,3.858,2.308-.7,7.217-2.058,18.76-2.476,22.347-.084.842-.4,3.117.695,3.37a1.842,1.842,0,0,0,2.106-1.152c.59-1.1.421-19.628,3.454-19.46,1.225.068.421,12.72.758,17.943.076,1.18-.168,1.769,1.1,1.853s1.348-.505,1.516-1.685c.59-4.549-.493-17.8,1.769-18.112,1.61-.222,1.516,14.742,1.685,16.933.084,1.348.065,2.544,1.938,2.022C421.023,303.432,420.655,302.337,420.57,301.074Z" transform="translate(-289.339 -234.481)" fill="#728196"/>
                </g>
                <g id="Grupo_91543" data-name="Grupo 91543" transform="translate(47.85 10.797)">
                  <g id="Grupo_91542" data-name="Grupo 91542" transform="translate(0 5.499)">
                    <path id="Trazado_141757" data-name="Trazado 141757" d="M309.646,248.907a13.962,13.962,0,0,0-.3-1.853c-.212-.9-1.191-1.516-1.873-.954-.724.562-.171,2.752.383,3.313.427.45,1.747.842,2.045.057Z" transform="translate(-307.128 -243.907)" fill="#f7a87f" stroke="#c15e4d" stroke-miterlimit="10" stroke-width="1"/>
                    <path id="Trazado_141758" data-name="Trazado 141758" d="M313.839,250.03a1.63,1.63,0,0,1-1.448.787c-1.278.055-1.406-1.068-1.661-2.472-.128-.842-.555-2.582,0-3.2a1.408,1.408,0,0,1,2.343.45,10.336,10.336,0,0,1,.341,1.066Z" transform="translate(-308.212 -243.514)" fill="#f7a87f" stroke="#c15e4d" stroke-miterlimit="10" stroke-width="1"/>
                    <path id="Trazado_141759" data-name="Trazado 141759" d="M318.282,250.3a3.476,3.476,0,0,1-2.215.45c-1.533-.057-1.831-1.91-1.917-3.651-.086-1.291-.468-2.864.682-3.37.979-.449,1.831-.505,2.256.956a11.4,11.4,0,0,1,.171,1.179Z" transform="translate(-309.375 -243.115)" fill="#f7a87f" stroke="#c15e4d" stroke-miterlimit="10" stroke-width="1"/>
                    <path id="Trazado_141760" data-name="Trazado 141760" d="M322.441,249.748c-.127.9-1.576.842-2.044.674-1.362-.45-1.619-2.527-1.747-4.157a11.6,11.6,0,0,1-.212-2.414c.084-.731.468-.842,1.065-.9,1.149-.057,1.7,1.4,2.13,2.639a12.207,12.207,0,0,1,.255,1.348Z" transform="translate(-310.809 -242.951)" fill="#f7a87f" stroke="#c15e4d" stroke-miterlimit="10" stroke-width="1"/>
                  </g>
                  <path id="Trazado_141761" data-name="Trazado 141761" d="M316.968,237.936a4.223,4.223,0,0,0,.9,2.921c1.123,1.348,2.7,1.572,4.381,1.572a16.132,16.132,0,0,0,1.516,4.268c.28.449.954,1.179,1.628.731.45-.337.337-1.348.337-1.853a12.469,12.469,0,0,0-.674-3.2c-.28-.955-.617-2.527-1.4-3.145-.842-.73-2.078-1.011-2.977-1.741a13.36,13.36,0,0,1-2.3-2.7" transform="translate(-310.33 -234.791)" fill="#f7a87f" stroke="#c15e4d" stroke-miterlimit="10" stroke-width="1"/>
                </g>
                <path id="Trazado_141762" data-name="Trazado 141762" d="M273.241,227.436c-1.685,1.236.45,5.728,1.011,7.076.337,1.011,1.011,2.022,0,2.808-1.011.9-2.471.224-3.145-.561-.225-.337-.562-1.348-.786-1.46-.337-.224-1.236.224-1.685.224a2.4,2.4,0,0,1-2.247-2.134c-1.46.224-2.134,1.011-2.7-.674a9.692,9.692,0,0,1-.224-3.145c0-1.348-.113-4.6,1.348-5.279Z" transform="translate(-245.037 -220.57)" fill="#f7a87f"/>
              </g>
              <g id="Grupo_91546" data-name="Grupo 91546">
                <path id="Trazado_141763" data-name="Trazado 141763" d="M222.479,164.976a7.984,7.984,0,0,0,.112-1.685c0-1.8.674-2.134,1.46-3.594s.337-3.37.337-4.942a30.671,30.671,0,0,1,.337-4.606c.561-3.257,2.022-5.84,4.942-7.413,2.247-1.235,5.5-2.134,7.975-.9a8.729,8.729,0,0,1,4.492,7.189c.112,1.123.112,2.359.112,3.594-.112,1.348-.9,2.471-.9,3.707-.113,1.011.45.786.786,1.685.224.674-.113,1.235-.337,1.909-.225.562-.786,1.011-.674,1.685s.674.9.9,1.573c1.011,3.145-4.043,2.359-5.84,2.583a51.4,51.4,0,0,1-5.841.561c-1.909,0-3.707-.561-5.616-.674Z" transform="translate(-222.479 -141.247)" fill="#508699"/>
                <g id="Grupo_91545" data-name="Grupo 91545" transform="translate(3.033 16.091)">
                  <path id="Trazado_141764" data-name="Trazado 141764" d="M226.979,172.624c1.8,1.235,4.942,1.348,7.076,1.46,1.909.112,5.5.449,7.076-1.123" transform="translate(-226.979 -167.57)" fill="none" stroke="#3c697c" stroke-miterlimit="10" stroke-width="1"/>
                  <path id="Trazado_141765" data-name="Trazado 141765" d="M239.3,169.168c-2.246,0-4.381.224-6.627.113-1.011-.113-3.257-.225-4.044-1.011-1.46-1.573,1.8-1.123,2.7-1.123,1.46,0,2.92,0,4.381.113,1.123.112,3.707.9,4.605.337,1.685-1.011-1.909-1.685-2.7-1.8a21.715,21.715,0,0,0-4.6-.674H229.98" transform="translate(-227.397 -165.124)" fill="none" stroke="#3c697c" stroke-miterlimit="10" stroke-width="1"/>
                </g>
              </g>
            </g>
          </g>
          <g id="Grupo_91554" data-name="Grupo 91554" transform="translate(30.43)">
            <path id="Trazado_141766" data-name="Trazado 141766" d="M262.019,115.084c-1.011.449-1.46,2.359-1.572,3.37a6.915,6.915,0,0,0,2.471,6.177c3.707,3.37,10.333,4.269,15.163,4.718,2.808.337,5.5,1.011,8.424.45,3.033-.561,4.829-3.145,6.065-5.841,0,1.236-2.7,6.29-2.135,6.964,1.573,1.909,3.37-4.943,3.483-5.728a12.361,12.361,0,0,0-1.348-6.964c-.9-1.8-2.809-4.6-5.168-4.6Z" transform="translate(-249.72 -96.848)" fill="#4a281e"/>
            <path id="Trazado_141767" data-name="Trazado 141767" d="M265.829,123.068a10.382,10.382,0,0,0-.45,3.257c-.113,1.909-.449,4.268.113,6.178a27.6,27.6,0,0,0,4.6,6.739c1.461,1.909,2.8,3.436,5.389,2.762a14.669,14.669,0,0,0,6.855-4.335,6.988,6.988,0,0,0,1.685-3.257c.449-1.572,1.123-2.022,2.359-3.257,4.044-4.044,6.514-9.548,2.808-14.715-5.166-7.3-22.24-7.525-23.588,3.258Z" transform="translate(-251.283 -96.071)" fill="#f7a87f"/>
            <path id="Trazado_141768" data-name="Trazado 141768" d="M263.284,123.041a6.039,6.039,0,0,0-2.78-.337c-2.106.084-3.622,1.1-3.959,3.2-.842,4.8,2.864,6.318,6.571,6.318Z" transform="translate(-248.429 -99.807)" fill="#f7a87f"/>
            <path id="Trazado_141769" data-name="Trazado 141769" d="M264.1,119.1c0,2.527-.505,4.886-.505,7.413,0,.927-.168,1.6.758,1.938a1.852,1.852,0,0,0,2.275-.674c.757-1.1.589-3.117.673-4.465,1.264.59,3.707-.253,4.633-1.179,1.1-1.011,2.443-3.117.674-3.959a13.793,13.793,0,0,0-4.549-.59,18.722,18.722,0,0,1-3.874-.253Z" transform="translate(-250.765 -98.057)" fill="#4a281e"/>
            <g id="Grupo_91550" data-name="Grupo 91550">
              <g id="Grupo_91549" data-name="Grupo 91549" transform="translate(12.748)">
                <path id="Trazado_141770" data-name="Trazado 141770" d="M278,102.362c4.3.168,8.845.253,12.889-1.264a5.736,5.736,0,0,0,.968-.517c-.04-.193-.079-.386-.125-.578-.505-2.359-.674-5.223-1.853-7.413-1.1-2.106-2.7-3.2-5.055-2.864-.927.084-1.853.421-2.864.421-1.179,0-2.359-.084-3.622-.084-2.864,0-5.728-1.685-8.593-1.264-2.274.337-3.2,2.275-3.622,4.465-.344,2.147-.491,4.4-.743,6.647a17.133,17.133,0,0,0,5.375,1.609A53.04,53.04,0,0,0,278,102.362Z" transform="translate(-264.097 -88.732)" fill="#967654"/>
                <path id="Trazado_141771" data-name="Trazado 141771" d="M292.288,111.815c-.536-1.914-.657-3.9-1.054-5.824a5.736,5.736,0,0,1-.968.517c-4.044,1.516-8.593,1.432-12.889,1.264a53.039,53.039,0,0,1-7.245-.842,17.133,17.133,0,0,1-5.375-1.609,29.12,29.12,0,0,1-1.279,6.326l1.348,1.432h.084a24.936,24.936,0,0,0,6.065,1.179c2.443.253,4.97.758,7.413.842a54.472,54.472,0,0,0,7.413-.168c2.19-.253,5.055-.337,6.992-1.348Z" transform="translate(-263.478 -94.141)" fill="#774742"/>
                <path id="Trazado_141772" data-name="Trazado 141772" d="M275.227,93.207c.337,1.432,2.022,2.611,3.285,3.285a9.823,9.823,0,0,0,9.856-.674" transform="translate(-267.309 -90.191)" fill="none" stroke="#6b533d" stroke-miterlimit="10" stroke-width="1"/>
              </g>
              <path id="Trazado_141773" data-name="Trazado 141773" d="M248.349,105.829a14.717,14.717,0,0,0,1.393,1.548c4.386,3.651,11.451,4.35,16.907,4.881a75.452,75.452,0,0,0,18.207-.018,47.178,47.178,0,0,0,4.97-1.011,20.64,20.64,0,0,1,4.886-1.179,1.936,1.936,0,0,1,2.022,1.432c.337,1.264-.413,1.781-1.432,2.19-14.237,5.728-36.652,1.574-40.079.673a18.072,18.072,0,0,1-9.707-6.317c-.59-.758-1.516-2.443-.505-3.285C246.279,103.686,247.384,104.709,248.349,105.829Z" transform="translate(-244.562 -93.808)" fill="#cdaa80"/>
            </g>
            <g id="Grupo_91553" data-name="Grupo 91553" transform="translate(21.423 24.246)">
              <g id="Grupo_91551" data-name="Grupo 91551" transform="translate(2.851)">
                <path id="Trazado_141774" data-name="Trazado 141774" d="M282.261,126.949a2.112,2.112,0,0,1-1.119.653c-.747-.047-.653-1.073-.28-1.539a3.769,3.769,0,0,1,2.471-1.353c.886-.047,1.073.7.374,1.166Z" transform="translate(-280.58 -124.708)" fill="#4a281e"/>
                <path id="Trazado_141775" data-name="Trazado 141775" d="M297.569,130.508a2.1,2.1,0,0,0,.608,1.144c.66.352,1.119-.57,1.048-1.163a3.769,3.769,0,0,0-1.394-2.45c-.729-.5-1.28.032-.929.8Z" transform="translate(-285.866 -125.73)" fill="#4a281e"/>
              </g>
              <path id="Trazado_141776" data-name="Trazado 141776" d="M288.4,135.091a6.059,6.059,0,0,0-.328,2.239,24.235,24.235,0,0,0,.187,3.684,1.742,1.742,0,0,1-1.119,2.192,4.642,4.642,0,0,1-2.751.28" transform="translate(-278.972 -128.094)" fill="none" stroke="#c15e4d" stroke-miterlimit="10" stroke-width="1"/>
              <path id="Trazado_141777" data-name="Trazado 141777" d="M276.359,147.063a4.694,4.694,0,0,0,1.491,3.731,3.448,3.448,0,0,0,4.058-.42Z" transform="translate(-276.35 -131.997)" fill="#fff"/>
              <g id="Grupo_91552" data-name="Grupo 91552" transform="translate(2.509 5.443)">
                <path id="Trazado_141778" data-name="Trazado 141778" d="M281.88,134.658c-.466.756-1.159,1.175-1.55.935s-.33-1.049.137-1.805,1.158-1.176,1.549-.935S282.345,133.9,281.88,134.658Z" transform="translate(-280.072 -132.784)" fill="#272525"/>
                <path id="Trazado_141779" data-name="Trazado 141779" d="M293.643,138.925c-.466.757-1.16,1.175-1.551.935s-.329-1.049.137-1.805,1.158-1.176,1.549-.935S294.108,138.168,293.643,138.925Z" transform="translate(-283.908 -134.176)" fill="#272525"/>
              </g>
            </g>
          </g>
        </g>
      </g>
    </g>
  </g>
</svg>
